STARTFONT 2.1
FONT -Misc-Fixed-Medium-R-Normal--10-100-75-75-C-120-JISX0208.1983-0
SIZE 10 75 75
FONTBOUNDINGBOX 12 10 0 -1
STARTPROPERTIES 19
FONTNAME_REGISTRY ""
FOUNDRY "Misc"
FAMILY "Fixed"
WEIGHT_NAME "Medium"
SLANT "R"
SETWIDTH_NAME "Normal"
ADD_STYLE_NAME ""
PIXEL_SIZE 10
POINT_SIZE 100
RESOLUTION_X 75
RESOLUTION_Y 75
SPACING "C"
AVERAGE_WIDTH 120
CHARSET_REGISTRY "JISX0208.1983"
CHARSET_ENCODING "0"
DEFAULT_CHAR 8481
FONT_DESCENT 1
FONT_ASCENT 9
COPYRIGHT "Public domain font. Share and enjoy."
ENDPROPERTIES
CHARS 6962
STARTCHAR 2121
ENCODING 8481
SWIDTH 960 0
DWIDTH 12 0
BBX 12 10 0 -1
BITMAP
0000
0000
0000
0000
0000
0000
0000
0000
0000
0000
ENDCHAR
STARTCHAR 2122
ENCODING 8482
SWIDTH 960 0
DWIDTH 12 0
BBX 12 10 0 -1
BITMAP
0000
0000
0000
0000
0000
0000
4000
2000
1000
0000
ENDCHAR
STARTCHAR 2123
ENCODING 8483
SWIDTH 960 0
DWIDTH 12 0
BBX 12 10 0 -1
BITMAP
0000
0000
0000
0000
0000
0000
3000
4800
3000
0000
ENDCHAR
STARTCHAR 2124
ENCODING 8484
SWIDTH 960 0
DWIDTH 12 0
BBX 12 10 0 -1
BITMAP
0000
0000
0000
0000
0000
0000
3000
3000
2000
4000
ENDCHAR
STARTCHAR 2125
ENCODING 8485
SWIDTH 960 0
DWIDTH 12 0
BBX 12 10 0 -1
BITMAP
0000
0000
0000
0000
0000
0000
0000
3000
3000
0000
ENDCHAR
STARTCHAR 2126
ENCODING 8486
SWIDTH 960 0
DWIDTH 12 0
BBX 12 10 0 -1
BITMAP
0000
0000
0000
0c00
0c00
0000
0000
0000
0000
0000
ENDCHAR
STARTCHAR 2127
ENCODING 8487
SWIDTH 960 0
DWIDTH 12 0
BBX 12 10 0 -1
BITMAP
0000
0c00
0c00
0000
0000
0000
0c00
0c00
0000
0000
ENDCHAR
STARTCHAR 2128
ENCODING 8488
SWIDTH 960 0
DWIDTH 12 0
BBX 12 10 0 -1
BITMAP
0000
0c00
0c00
0000
0000
0c00
0c00
0800
1000
0000
ENDCHAR
STARTCHAR 2129
ENCODING 8489
SWIDTH 960 0
DWIDTH 12 0
BBX 12 10 0 -1
BITMAP
1f00
2080
2080
0100
0200
0400
0000
0c00
0c00
0000
ENDCHAR
STARTCHAR 212a
ENCODING 8490
SWIDTH 960 0
DWIDTH 12 0
BBX 12 10 0 -1
BITMAP
0400
0400
0400
0400
0400
0400
0000
0c00
0c00
0000
ENDCHAR
STARTCHAR 212b
ENCODING 8491
SWIDTH 960 0
DWIDTH 12 0
BBX 12 10 0 -1
BITMAP
2000
9000
4000
0000
0000
0000
0000
0000
0000
0000
ENDCHAR
STARTCHAR 212c
ENCODING 8492
SWIDTH 960 0
DWIDTH 12 0
BBX 12 10 0 -1
BITMAP
6000
9000
6000
0000
0000
0000
0000
0000
0000
0000
ENDCHAR
STARTCHAR 212d
ENCODING 8493
SWIDTH 960 0
DWIDTH 12 0
BBX 12 10 0 -1
BITMAP
0300
0c00
1000
0000
0000
0000
0000
0000
0000
0000
ENDCHAR
STARTCHAR 212e
ENCODING 8494
SWIDTH 960 0
DWIDTH 12 0
BBX 12 10 0 -1
BITMAP
1800
0600
0100
0000
0000
0000
0000
0000
0000
0000
ENDCHAR
STARTCHAR 212f
ENCODING 8495
SWIDTH 960 0
DWIDTH 12 0
BBX 12 10 0 -1
BITMAP
3180
3180
0000
0000
0000
0000
0000
0000
0000
0000
ENDCHAR
STARTCHAR 2130
ENCODING 8496
SWIDTH 960 0
DWIDTH 12 0
BBX 12 10 0 -1
BITMAP
0400
0a00
1100
2080
0000
0000
0000
0000
0000
0000
ENDCHAR
STARTCHAR 2131
ENCODING 8497
SWIDTH 960 0
DWIDTH 12 0
BBX 12 10 0 -1
BITMAP
ffe0
0000
0000
0000
0000
0000
0000
0000
0000
0000
ENDCHAR
STARTCHAR 2132
ENCODING 8498
SWIDTH 960 0
DWIDTH 12 0
BBX 12 10 0 -1
BITMAP
0000
0000
0000
0000
0000
0000
0000
0000
ffe0
0000
ENDCHAR
STARTCHAR 2133
ENCODING 8499
SWIDTH 960 0
DWIDTH 12 0
BBX 12 10 0 -1
BITMAP
0000
0000
0000
3000
0c00
0200
0100
0000
0000
0000
ENDCHAR
STARTCHAR 2134
ENCODING 8500
SWIDTH 960 0
DWIDTH 12 0
BBX 12 10 0 -1
BITMAP
0000
0080
0240
3100
0c00
0200
0100
0000
0000
0000
ENDCHAR
STARTCHAR 2135
ENCODING 8501
SWIDTH 960 0
DWIDTH 12 0
BBX 12 10 0 -1
BITMAP
0000
0000
0000
3000
0c00
0200
0300
0400
0000
0000
ENDCHAR
STARTCHAR 2136
ENCODING 8502
SWIDTH 960 0
DWIDTH 12 0
BBX 12 10 0 -1
BITMAP
0000
0080
0240
3100
0c00
0200
0300
0400
0000
0000
ENDCHAR
STARTCHAR 2137
ENCODING 8503
SWIDTH 960 0
DWIDTH 12 0
BBX 12 10 0 -1
BITMAP
0000
0000
0880
0880
1100
1100
2200
0000
0000
0000
ENDCHAR
STARTCHAR 2138
ENCODING 8504
SWIDTH 960 0
DWIDTH 12 0
BBX 12 10 0 -1
BITMAP
0400
0a00
3180
c060
1f00
0400
0400
0400
7fc0
0000
ENDCHAR
STARTCHAR 2139
ENCODING 8505
SWIDTH 960 0
DWIDTH 12 0
BBX 12 10 0 -1
BITMAP
0000
0800
0800
0fc0
1040
2080
4d00
0200
0100
0000
ENDCHAR
STARTCHAR 213a
ENCODING 8506
SWIDTH 960 0
DWIDTH 12 0
BBX 12 10 0 -1
BITMAP
0040
0080
0100
1a00
2400
2a00
5000
6000
4000
0000
ENDCHAR
STARTCHAR 213b
ENCODING 8507
SWIDTH 960 0
DWIDTH 12 0
BBX 12 10 0 -1
BITMAP
0000
1f00
2080
4040
4040
4040
2080
1f00
0000
0000
ENDCHAR
STARTCHAR 213c
ENCODING 8508
SWIDTH 960 0
DWIDTH 12 0
BBX 12 10 0 -1
BITMAP
0000
0000
0000
8000
7fc0
0000
0000
0000
0000
0000
ENDCHAR
STARTCHAR 213d
ENCODING 8509
SWIDTH 960 0
DWIDTH 12 0
BBX 12 10 0 -1
BITMAP
0000
0000
0000
0000
ffe0
0000
0000
0000
0000
0000
ENDCHAR
STARTCHAR 213e
ENCODING 8510
SWIDTH 960 0
DWIDTH 12 0
BBX 12 10 0 -1
BITMAP
0000
0000
0000
0000
0e00
0000
0000
0000
0000
0000
ENDCHAR
STARTCHAR 213f
ENCODING 8511
SWIDTH 960 0
DWIDTH 12 0
BBX 12 10 0 -1
BITMAP
0040
0080
0100
0200
0400
0800
1000
2000
4000
0000
ENDCHAR
STARTCHAR 2140
ENCODING 8512
SWIDTH 960 0
DWIDTH 12 0
BBX 12 10 0 -1
BITMAP
4000
2000
1000
0800
0400
0200
0100
0080
0040
0000
ENDCHAR
STARTCHAR 2141
ENCODING 8513
SWIDTH 960 0
DWIDTH 12 0
BBX 12 10 0 -1
BITMAP
0000
0000
0000
3820
4440
8380
0000
0000
0000
0000
ENDCHAR
STARTCHAR 2142
ENCODING 8514
SWIDTH 960 0
DWIDTH 12 0
BBX 12 10 0 -1
BITMAP
0a00
0a00
0a00
0a00
0a00
0a00
0a00
0a00
0a00
0000
ENDCHAR
STARTCHAR 2143
ENCODING 8515
SWIDTH 960 0
DWIDTH 12 0
BBX 12 10 0 -1
BITMAP
0400
0400
0400
0400
0400
0400
0400
0400
0400
0000
ENDCHAR
STARTCHAR 2144
ENCODING 8516
SWIDTH 960 0
DWIDTH 12 0
BBX 12 10 0 -1
BITMAP
0000
0000
0000
ccc0
ccc0
0000
0000
0000
0000
0000
ENDCHAR
STARTCHAR 2145
ENCODING 8517
SWIDTH 960 0
DWIDTH 12 0
BBX 12 10 0 -1
BITMAP
0000
0000
0000
3180
3180
0000
0000
0000
0000
0000
ENDCHAR
STARTCHAR 2146
ENCODING 8518
SWIDTH 960 0
DWIDTH 12 0
BBX 12 10 0 -1
BITMAP
0080
0100
0300
0300
0000
0000
0000
0000
0000
0000
ENDCHAR
STARTCHAR 2147
ENCODING 8519
SWIDTH 960 0
DWIDTH 12 0
BBX 12 10 0 -1
BITMAP
1800
1800
1000
2000
0000
0000
0000
0000
0000
0000
ENDCHAR
STARTCHAR 2148
ENCODING 8520
SWIDTH 960 0
DWIDTH 12 0
BBX 12 10 0 -1
BITMAP
0440
0880
1980
1980
0000
0000
0000
0000
0000
0000
ENDCHAR
STARTCHAR 2149
ENCODING 8521
SWIDTH 960 0
DWIDTH 12 0
BBX 12 10 0 -1
BITMAP
3300
3300
2200
4400
0000
0000
0000
0000
0000
0000
ENDCHAR
STARTCHAR 214a
ENCODING 8522
SWIDTH 960 0
DWIDTH 12 0
BBX 12 10 0 -1
BITMAP
0080
0100
0200
0400
0400
0400
0200
0100
0080
0000
ENDCHAR
STARTCHAR 214b
ENCODING 8523
SWIDTH 960 0
DWIDTH 12 0
BBX 12 10 0 -1
BITMAP
2000
1000
0800
0400
0400
0400
0800
1000
2000
0000
ENDCHAR
STARTCHAR 214c
ENCODING 8524
SWIDTH 960 0
DWIDTH 12 0
BBX 12 10 0 -1
BITMAP
0080
0300
0200
0200
0200
0200
0200
0300
0080
0000
ENDCHAR
STARTCHAR 214d
ENCODING 8525
SWIDTH 960 0
DWIDTH 12 0
BBX 12 10 0 -1
BITMAP
2000
1800
0800
0800
0800
0800
0800
1800
2000
0000
ENDCHAR
STARTCHAR 214e
ENCODING 8526
SWIDTH 960 0
DWIDTH 12 0
BBX 12 10 0 -1
BITMAP
0380
0200
0200
0200
0200
0200
0200
0200
0380
0000
ENDCHAR
STARTCHAR 214f
ENCODING 8527
SWIDTH 960 0
DWIDTH 12 0
BBX 12 10 0 -1
BITMAP
3800
0800
0800
0800
0800
0800
0800
0800
3800
0000
ENDCHAR
STARTCHAR 2150
ENCODING 8528
SWIDTH 960 0
DWIDTH 12 0
BBX 12 10 0 -1
BITMAP
0180
0200
0200
0200
0c00
0200
0200
0200
0180
0000
ENDCHAR
STARTCHAR 2151
ENCODING 8529
SWIDTH 960 0
DWIDTH 12 0
BBX 12 10 0 -1
BITMAP
3000
0800
0800
0800
0600
0800
0800
0800
3000
0000
ENDCHAR
STARTCHAR 2152
ENCODING 8530
SWIDTH 960 0
DWIDTH 12 0
BBX 12 10 0 -1
BITMAP
0080
0080
0100
0100
0200
0100
0100
0080
0080
0000
ENDCHAR
STARTCHAR 2153
ENCODING 8531
SWIDTH 960 0
DWIDTH 12 0
BBX 12 10 0 -1
BITMAP
2000
2000
1000
1000
0800
1000
1000
2000
2000
0000
ENDCHAR
STARTCHAR 2154
ENCODING 8532
SWIDTH 960 0
DWIDTH 12 0
BBX 12 10 0 -1
BITMAP
0240
0240
0480
0480
0900
0480
0480
0240
0240
0000
ENDCHAR
STARTCHAR 2155
ENCODING 8533
SWIDTH 960 0
DWIDTH 12 0
BBX 12 10 0 -1
BITMAP
4800
4800
2400
2400
1200
2400
2400
4800
4800
0000
ENDCHAR
STARTCHAR 2156
ENCODING 8534
SWIDTH 960 0
DWIDTH 12 0
BBX 12 10 0 -1
BITMAP
03c0
0200
0200
0200
0200
0200
0000
0000
0000
0000
ENDCHAR
STARTCHAR 2157
ENCODING 8535
SWIDTH 960 0
DWIDTH 12 0
BBX 12 10 0 -1
BITMAP
0000
0000
0000
0800
0800
0800
0800
0800
7800
0000
ENDCHAR
STARTCHAR 2158
ENCODING 8536
SWIDTH 960 0
DWIDTH 12 0
BBX 12 10 0 -1
BITMAP
07e0
0420
05e0
0500
0500
0500
0700
0000
0000
0000
ENDCHAR
STARTCHAR 2159
ENCODING 8537
SWIDTH 960 0
DWIDTH 12 0
BBX 12 10 0 -1
BITMAP
0000
0000
1c00
1400
1400
1400
f400
8400
fc00
0000
ENDCHAR
STARTCHAR 215a
ENCODING 8538
SWIDTH 960 0
DWIDTH 12 0
BBX 12 10 0 -1
BITMAP
03c0
0380
0300
0200
0200
0200
0300
0380
03c0
0000
ENDCHAR
STARTCHAR 215b
ENCODING 8539
SWIDTH 960 0
DWIDTH 12 0
BBX 12 10 0 -1
BITMAP
7800
3800
1800
0800
0800
0800
1800
3800
7800
0000
ENDCHAR
STARTCHAR 215c
ENCODING 8540
SWIDTH 960 0
DWIDTH 12 0
BBX 12 10 0 -1
BITMAP
0000
0400
0400
0400
3f80
0400
0400
0400
0000
0000
ENDCHAR
STARTCHAR 215d
ENCODING 8541
SWIDTH 960 0
DWIDTH 12 0
BBX 12 10 0 -1
BITMAP
0000
0000
0000
0000
3f80
0000
0000
0000
0000
0000
ENDCHAR
STARTCHAR 215e
ENCODING 8542
SWIDTH 960 0
DWIDTH 12 0
BBX 12 10 0 -1
BITMAP
0400
0400
0400
3f80
0400
0400
0400
0000
3f80
0000
ENDCHAR
STARTCHAR 215f
ENCODING 8543
SWIDTH 960 0
DWIDTH 12 0
BBX 12 10 0 -1
BITMAP
0000
2080
1100
0a00
0400
0a00
1100
2080
0000
0000
ENDCHAR
STARTCHAR 2160
ENCODING 8544
SWIDTH 960 0
DWIDTH 12 0
BBX 12 10 0 -1
BITMAP
0000
0c00
0c00
0000
7f80
0000
0c00
0c00
0000
0000
ENDCHAR
STARTCHAR 2161
ENCODING 8545
SWIDTH 960 0
DWIDTH 12 0
BBX 12 10 0 -1
BITMAP
0000
0000
0000
7fc0
0000
0000
7fc0
0000
0000
0000
ENDCHAR
STARTCHAR 2162
ENCODING 8546
SWIDTH 960 0
DWIDTH 12 0
BBX 12 10 0 -1
BITMAP
0000
0100
0200
7fc0
0400
0800
7fc0
1000
2000
0000
ENDCHAR
STARTCHAR 2163
ENCODING 8547
SWIDTH 960 0
DWIDTH 12 0
BBX 12 10 0 -1
BITMAP
0000
0180
0600
1800
6000
1800
0600
0180
0000
0000
ENDCHAR
STARTCHAR 2164
ENCODING 8548
SWIDTH 960 0
DWIDTH 12 0
BBX 12 10 0 -1
BITMAP
0000
3000
0c00
0300
00c0
0300
0c00
3000
0000
0000
ENDCHAR
STARTCHAR 2165
ENCODING 8549
SWIDTH 960 0
DWIDTH 12 0
BBX 12 10 0 -1
BITMAP
01c0
0e00
7000
0e00
01c0
0000
7fc0
0000
7fc0
0000
ENDCHAR
STARTCHAR 2166
ENCODING 8550
SWIDTH 960 0
DWIDTH 12 0
BBX 12 10 0 -1
BITMAP
7000
0e00
01c0
0e00
7000
0000
7fc0
0000
7fc0
0000
ENDCHAR
STARTCHAR 2167
ENCODING 8551
SWIDTH 960 0
DWIDTH 12 0
BBX 12 10 0 -1
BITMAP
0000
0000
71c0
8a20
8420
8a20
71c0
0000
0000
0000
ENDCHAR
STARTCHAR 2168
ENCODING 8552
SWIDTH 960 0
DWIDTH 12 0
BBX 12 10 0 -1
BITMAP
0000
0600
0600
0000
0000
0000
30c0
30c0
0000
0000
ENDCHAR
STARTCHAR 2169
ENCODING 8553
SWIDTH 960 0
DWIDTH 12 0
BBX 12 10 0 -1
BITMAP
07c0
00c0
0140
0240
3c40
4400
4400
4400
3800
0000
ENDCHAR
STARTCHAR 216a
ENCODING 8554
SWIDTH 960 0
DWIDTH 12 0
BBX 12 10 0 -1
BITMAP
0e00
1100
1100
1100
0e00
0400
3f80
0400
0400
0000
ENDCHAR
STARTCHAR 216b
ENCODING 8555
SWIDTH 960 0
DWIDTH 12 0
BBX 12 10 0 -1
BITMAP
6000
9000
9000
6000
0000
0000
0000
0000
0000
0000
ENDCHAR
STARTCHAR 216c
ENCODING 8556
SWIDTH 960 0
DWIDTH 12 0
BBX 12 10 0 -1
BITMAP
1000
1000
2000
4000
0000
0000
0000
0000
0000
0000
ENDCHAR
STARTCHAR 216d
ENCODING 8557
SWIDTH 960 0
DWIDTH 12 0
BBX 12 10 0 -1
BITMAP
2400
2400
4800
9000
0000
0000
0000
0000
0000
0000
ENDCHAR
STARTCHAR 216e
ENCODING 8558
SWIDTH 960 0
DWIDTH 12 0
BBX 12 10 0 -1
BITMAP
6700
9880
9040
6000
2000
2000
1040
08c0
0700
0000
ENDCHAR
STARTCHAR 216f
ENCODING 8559
SWIDTH 960 0
DWIDTH 12 0
BBX 12 10 0 -1
BITMAP
71c0
1100
0a00
7fc0
0400
7fc0
0400
0400
0e00
0000
ENDCHAR
STARTCHAR 2170
ENCODING 8560
SWIDTH 960 0
DWIDTH 12 0
BBX 12 10 0 -1
BITMAP
0400
1f00
2580
2400
1f80
0440
6440
3f80
0400
0000
ENDCHAR
STARTCHAR 2171
ENCODING 8561
SWIDTH 960 0
DWIDTH 12 0
BBX 12 10 0 -1
BITMAP
0400
0e00
1500
2580
2400
2480
1500
0e00
0400
0000
ENDCHAR
STARTCHAR 2172
ENCODING 8562
SWIDTH 960 0
DWIDTH 12 0
BBX 12 10 0 -1
BITMAP
0600
0900
0800
0800
3e00
0800
7820
8840
7780
0000
ENDCHAR
STARTCHAR 2173
ENCODING 8563
SWIDTH 960 0
DWIDTH 12 0
BBX 12 10 0 -1
BITMAP
3040
4880
4900
3200
0400
0980
1240
2240
4180
0000
ENDCHAR
STARTCHAR 2174
ENCODING 8564
SWIDTH 960 0
DWIDTH 12 0
BBX 12 10 0 -1
BITMAP
0880
0880
7fc0
1100
1100
1100
7fc0
2200
2200
0000
ENDCHAR
STARTCHAR 2175
ENCODING 8565
SWIDTH 960 0
DWIDTH 12 0
BBX 12 10 0 -1
BITMAP
1c00
2200
2200
1400
1980
2500
4200
4500
38c0
0000
ENDCHAR
STARTCHAR 2176
ENCODING 8566
SWIDTH 960 0
DWIDTH 12 0
BBX 12 10 0 -1
BITMAP
0000
0400
64c0
3580
0e00
3580
64c0
0400
0000
0000
ENDCHAR
STARTCHAR 2177
ENCODING 8567
SWIDTH 960 0
DWIDTH 12 0
BBX 12 10 0 -1
BITMAP
1f00
2080
4d40
9320
9120
9140
4e80
2040
1f80
0000
ENDCHAR
STARTCHAR 2178
ENCODING 8568
SWIDTH 960 0
DWIDTH 12 0
BBX 12 10 0 -1
BITMAP
0e00
1100
0c00
1200
1100
0900
0600
1100
0e00
0000
ENDCHAR
STARTCHAR 2179
ENCODING 8569
SWIDTH 960 0
DWIDTH 12 0
BBX 12 10 0 -1
BITMAP
0400
0400
0a00
f1e0
4040
2080
2e80
3180
4040
0000
ENDCHAR
STARTCHAR 217a
ENCODING 8570
SWIDTH 960 0
DWIDTH 12 0
BBX 12 10 0 -1
BITMAP
0400
0400
0e00
ffe0
3f80
1f00
3f80
3180
4040
0000
ENDCHAR
STARTCHAR 217b
ENCODING 8571
SWIDTH 960 0
DWIDTH 12 0
BBX 12 10 0 -1
BITMAP
0e00
1100
2080
4040
4040
4040
2080
1100
0e00
0000
ENDCHAR
STARTCHAR 217c
ENCODING 8572
SWIDTH 960 0
DWIDTH 12 0
BBX 12 10 0 -1
BITMAP
0e00
1f00
3f80
7fc0
7fc0
7fc0
3f80
1f00
0e00
0000
ENDCHAR
STARTCHAR 217d
ENCODING 8573
SWIDTH 960 0
DWIDTH 12 0
BBX 12 10 0 -1
BITMAP
0e00
1100
2e80
5140
5140
5140
2e80
1100
0e00
0000
ENDCHAR
STARTCHAR 217e
ENCODING 8574
SWIDTH 960 0
DWIDTH 12 0
BBX 12 10 0 -1
BITMAP
0400
0a00
1100
2080
4040
2080
1100
0a00
0400
0000
ENDCHAR
STARTCHAR 2221
ENCODING 8737
SWIDTH 960 0
DWIDTH 12 0
BBX 12 10 0 -1
BITMAP
0400
0e00
1f00
3f80
7fc0
3f80
1f00
0e00
0400
0000
ENDCHAR
STARTCHAR 2222
ENCODING 8738
SWIDTH 960 0
DWIDTH 12 0
BBX 12 10 0 -1
BITMAP
7fc0
4040
4040
4040
4040
4040
4040
4040
7fc0
0000
ENDCHAR
STARTCHAR 2223
ENCODING 8739
SWIDTH 960 0
DWIDTH 12 0
BBX 12 10 0 -1
BITMAP
7fc0
7fc0
7fc0
7fc0
7fc0
7fc0
7fc0
7fc0
7fc0
0000
ENDCHAR
STARTCHAR 2224
ENCODING 8740
SWIDTH 960 0
DWIDTH 12 0
BBX 12 10 0 -1
BITMAP
0400
0a00
0a00
1100
1100
2080
2080
4040
7fc0
0000
ENDCHAR
STARTCHAR 2225
ENCODING 8741
SWIDTH 960 0
DWIDTH 12 0
BBX 12 10 0 -1
BITMAP
0400
0e00
0e00
1f00
1f00
3f80
3f80
7fc0
7fc0
0000
ENDCHAR
STARTCHAR 2226
ENCODING 8742
SWIDTH 960 0
DWIDTH 12 0
BBX 12 10 0 -1
BITMAP
7fc0
4040
2080
2080
1100
1100
0a00
0a00
0400
0000
ENDCHAR
STARTCHAR 2227
ENCODING 8743
SWIDTH 960 0
DWIDTH 12 0
BBX 12 10 0 -1
BITMAP
7fc0
7fc0
3f80
3f80
1f00
1f00
0e00
0e00
0400
0000
ENDCHAR
STARTCHAR 2228
ENCODING 8744
SWIDTH 960 0
DWIDTH 12 0
BBX 12 10 0 -1
BITMAP
4440
2080
1100
0a00
4440
0a00
1100
2080
4440
0000
ENDCHAR
STARTCHAR 2229
ENCODING 8745
SWIDTH 960 0
DWIDTH 12 0
BBX 12 10 0 -1
BITMAP
7fc0
0000
0000
ffe0
0400
0400
0400
0400
0400
0000
ENDCHAR
STARTCHAR 222a
ENCODING 8746
SWIDTH 960 0
DWIDTH 12 0
BBX 12 10 0 -1
BITMAP
0000
0000
0080
0040
ffe0
0040
0080
0000
0000
0000
ENDCHAR
STARTCHAR 222b
ENCODING 8747
SWIDTH 960 0
DWIDTH 12 0
BBX 12 10 0 -1
BITMAP
0000
0000
2000
4000
ffe0
4000
2000
0000
0000
0000
ENDCHAR
STARTCHAR 222c
ENCODING 8748
SWIDTH 960 0
DWIDTH 12 0
BBX 12 10 0 -1
BITMAP
0400
0e00
1500
0400
0400
0400
0400
0400
0400
0000
ENDCHAR
STARTCHAR 222d
ENCODING 8749
SWIDTH 960 0
DWIDTH 12 0
BBX 12 10 0 -1
BITMAP
0400
0400
0400
0400
0400
0400
1500
0e00
0400
0000
ENDCHAR
STARTCHAR 222e
ENCODING 8750
SWIDTH 960 0
DWIDTH 12 0
BBX 12 10 0 -1
BITMAP
7fc0
7fc0
7fc0
0000
0000
0000
7fc0
7fc0
7fc0
0000
ENDCHAR
STARTCHAR 223a
ENCODING 8762
SWIDTH 960 0
DWIDTH 12 0
BBX 12 10 0 -1
BITMAP
0000
1fc0
2000
4000
7fc0
4000
2000
1fc0
0000
0000
ENDCHAR
STARTCHAR 223b
ENCODING 8763
SWIDTH 960 0
DWIDTH 12 0
BBX 12 10 0 -1
BITMAP
0000
7f00
0080
0040
7fc0
0040
0080
7f00
0000
0000
ENDCHAR
STARTCHAR 223c
ENCODING 8764
SWIDTH 960 0
DWIDTH 12 0
BBX 12 10 0 -1
BITMAP
0000
3fc0
4000
4000
4000
3fc0
0000
0000
7fc0
0000
ENDCHAR
STARTCHAR 223d
ENCODING 8765
SWIDTH 960 0
DWIDTH 12 0
BBX 12 10 0 -1
BITMAP
0000
7f80
0040
0040
0040
7f80
0000
0000
7fc0
0000
ENDCHAR
STARTCHAR 223e
ENCODING 8766
SWIDTH 960 0
DWIDTH 12 0
BBX 12 10 0 -1
BITMAP
0000
1fc0
2000
4000
4000
4000
2000
1fc0
0000
0000
ENDCHAR
STARTCHAR 223f
ENCODING 8767
SWIDTH 960 0
DWIDTH 12 0
BBX 12 10 0 -1
BITMAP
0000
7f00
0080
0040
0040
0040
0080
7f00
0000
0000
ENDCHAR
STARTCHAR 2240
ENCODING 8768
SWIDTH 960 0
DWIDTH 12 0
BBX 12 10 0 -1
BITMAP
2080
2080
2080
2080
2080
2080
2080
1100
0e00
0000
ENDCHAR
STARTCHAR 2241
ENCODING 8769
SWIDTH 960 0
DWIDTH 12 0
BBX 12 10 0 -1
BITMAP
0e00
1100
2080
2080
2080
2080
2080
2080
2080
0000
ENDCHAR
STARTCHAR 224a
ENCODING 8778
SWIDTH 960 0
DWIDTH 12 0
BBX 12 10 0 -1
BITMAP
0400
0a00
0a00
1100
1100
2080
2080
4040
0000
0000
ENDCHAR
STARTCHAR 224b
ENCODING 8779
SWIDTH 960 0
DWIDTH 12 0
BBX 12 10 0 -1
BITMAP
0000
4040
2080
2080
1100
1100
0a00
0a00
0400
0000
ENDCHAR
STARTCHAR 224c
ENCODING 8780
SWIDTH 960 0
DWIDTH 12 0
BBX 12 10 0 -1
BITMAP
0000
0000
0000
0000
3fc0
0040
0040
0040
0000
0000
ENDCHAR
STARTCHAR 224d
ENCODING 8781
SWIDTH 960 0
DWIDTH 12 0
BBX 12 10 0 -1
BITMAP
0000
0100
0080
ffc0
0020
ffc0
0080
0100
0000
0000
ENDCHAR
STARTCHAR 224e
ENCODING 8782
SWIDTH 960 0
DWIDTH 12 0
BBX 12 10 0 -1
BITMAP
0000
1100
2080
7fc0
8020
7fc0
2080
1100
0000
0000
ENDCHAR
STARTCHAR 224f
ENCODING 8783
SWIDTH 960 0
DWIDTH 12 0
BBX 12 10 0 -1
BITMAP
4040
2080
2080
1f00
1100
0a00
0a00
0400
0400
0000
ENDCHAR
STARTCHAR 2250
ENCODING 8784
SWIDTH 960 0
DWIDTH 12 0
BBX 12 10 0 -1
BITMAP
3f80
0080
0080
0080
3f80
0080
0080
0080
3f80
0000
ENDCHAR
STARTCHAR 225c
ENCODING 8796
SWIDTH 960 0
DWIDTH 12 0
BBX 12 10 0 -1
BITMAP
0040
0080
0100
0200
0400
0800
1000
2000
7fc0
0000
ENDCHAR
STARTCHAR 225d
ENCODING 8797
SWIDTH 960 0
DWIDTH 12 0
BBX 12 10 0 -1
BITMAP
0400
0400
0400
0400
0400
0400
0400
0400
7fc0
0000
ENDCHAR
STARTCHAR 225e
ENCODING 8798
SWIDTH 960 0
DWIDTH 12 0
BBX 12 10 0 -1
BITMAP
1f00
60c0
8020
0000
0000
0000
0000
0000
0000
0000
ENDCHAR
STARTCHAR 225f
ENCODING 8799
SWIDTH 960 0
DWIDTH 12 0
BBX 12 10 0 -1
BITMAP
0700
0880
0080
0e80
1180
2100
2100
2200
1c00
0000
ENDCHAR
STARTCHAR 2260
ENCODING 8800
SWIDTH 960 0
DWIDTH 12 0
BBX 12 10 0 -1
BITMAP
7fc0
2040
2080
1080
1100
0900
0a00
0600
0400
0000
ENDCHAR
STARTCHAR 2261
ENCODING 8801
SWIDTH 960 0
DWIDTH 12 0
BBX 12 10 0 -1
BITMAP
0000
0000
7fc0
0000
7fc0
0000
7fc0
0000
0000
0000
ENDCHAR
STARTCHAR 2262
ENCODING 8802
SWIDTH 960 0
DWIDTH 12 0
BBX 12 10 0 -1
BITMAP
3000
3000
0000
7fc0
0000
7fc0
0000
0180
0180
0000
ENDCHAR
STARTCHAR 2263
ENCODING 8803
SWIDTH 960 0
DWIDTH 12 0
BBX 12 10 0 -1
BITMAP
0440
0880
1100
2200
4400
2200
1100
0880
0440
0000
ENDCHAR
STARTCHAR 2264
ENCODING 8804
SWIDTH 960 0
DWIDTH 12 0
BBX 12 10 0 -1
BITMAP
4400
2200
1100
0880
0440
0880
1100
2200
4400
0000
ENDCHAR
STARTCHAR 2265
ENCODING 8805
SWIDTH 960 0
DWIDTH 12 0
BBX 12 10 0 -1
BITMAP
07e0
0400
0400
0800
0800
0800
5000
b000
1000
0000
ENDCHAR
STARTCHAR 2266
ENCODING 8806
SWIDTH 960 0
DWIDTH 12 0
BBX 12 10 0 -1
BITMAP
0000
0000
71c0
8220
8420
8820
71c0
0000
0000
0000
ENDCHAR
STARTCHAR 2267
ENCODING 8807
SWIDTH 960 0
DWIDTH 12 0
BBX 12 10 0 -1
BITMAP
0000
0000
71c0
8a00
8400
8a00
71c0
0000
0000
0000
ENDCHAR
STARTCHAR 2268
ENCODING 8808
SWIDTH 960 0
DWIDTH 12 0
BBX 12 10 0 -1
BITMAP
0000
30c0
30c0
0000
0000
0000
0600
0600
0000
0000
ENDCHAR
STARTCHAR 2269
ENCODING 8809
SWIDTH 960 0
DWIDTH 12 0
BBX 12 10 0 -1
BITMAP
0600
0a00
0800
0400
0400
0200
0200
0a00
0c00
0000
ENDCHAR
STARTCHAR 226a
ENCODING 8810
SWIDTH 960 0
DWIDTH 12 0
BBX 12 10 0 -1
BITMAP
1980
2a80
2200
1100
1100
0880
0880
2a80
3300
0000
ENDCHAR
STARTCHAR 2272
ENCODING 8818
SWIDTH 960 0
DWIDTH 12 0
BBX 12 10 0 -1
BITMAP
0e00
1100
1100
0e00
0a00
1100
1f00
2080
71c0
0000
ENDCHAR
STARTCHAR 2273
ENCODING 8819
SWIDTH 960 0
DWIDTH 12 0
BBX 12 10 0 -1
BITMAP
6080
9100
9200
6400
0800
1240
25a0
45a0
8240
0000
ENDCHAR
STARTCHAR 2274
ENCODING 8820
SWIDTH 960 0
DWIDTH 12 0
BBX 12 10 0 -1
BITMAP
0900
09c0
0f00
3900
0900
09c0
0f00
3900
0900
0000
ENDCHAR
STARTCHAR 2275
ENCODING 8821
SWIDTH 960 0
DWIDTH 12 0
BBX 12 10 0 -1
BITMAP
1000
1000
1000
1700
1880
1080
1100
1600
1800
0000
ENDCHAR
STARTCHAR 2276
ENCODING 8822
SWIDTH 960 0
DWIDTH 12 0
BBX 12 10 0 -1
BITMAP
0600
0700
0580
0480
0480
0480
1d00
3c00
3800
0000
ENDCHAR
STARTCHAR 2277
ENCODING 8823
SWIDTH 960 0
DWIDTH 12 0
BBX 12 10 0 -1
BITMAP
0e00
2480
3f80
2480
0e00
0400
0400
0400
0400
0000
ENDCHAR
STARTCHAR 2278
ENCODING 8824
SWIDTH 960 0
DWIDTH 12 0
BBX 12 10 0 -1
BITMAP
0e00
2480
3f80
2480
0e00
2480
3f80
2480
0e00
0000
ENDCHAR
STARTCHAR 2279
ENCODING 8825
SWIDTH 960 0
DWIDTH 12 0
BBX 12 10 0 -1
BITMAP
1f00
3d00
3d00
1d00
0500
0500
0500
0500
0500
0000
ENDCHAR
STARTCHAR 227e
ENCODING 8830
SWIDTH 960 0
DWIDTH 12 0
BBX 12 10 0 -1
BITMAP
1f00
2080
4040
4040
4040
4040
4040
2080
1f00
0000
ENDCHAR
STARTCHAR 2330
ENCODING 9008
SWIDTH 960 0
DWIDTH 12 0
BBX 12 10 0 -1
BITMAP
0e00
1100
2080
2080
2080
2080
2080
1100
0e00
0000
ENDCHAR
STARTCHAR 2331
ENCODING 9009
SWIDTH 960 0
DWIDTH 12 0
BBX 12 10 0 -1
BITMAP
0400
0c00
1400
0400
0400
0400
0400
0400
1f00
0000
ENDCHAR
STARTCHAR 2332
ENCODING 9010
SWIDTH 960 0
DWIDTH 12 0
BBX 12 10 0 -1
BITMAP
1f00
2080
0080
0080
0700
1800
2000
2000
3f80
0000
ENDCHAR
STARTCHAR 2333
ENCODING 9011
SWIDTH 960 0
DWIDTH 12 0
BBX 12 10 0 -1
BITMAP
1f00
2080
0080
0080
0f00
0080
0080
2080
1f00
0000
ENDCHAR
STARTCHAR 2334
ENCODING 9012
SWIDTH 960 0
DWIDTH 12 0
BBX 12 10 0 -1
BITMAP
0300
0500
0900
1100
2100
3fc0
0100
0100
0380
0000
ENDCHAR
STARTCHAR 2335
ENCODING 9013
SWIDTH 960 0
DWIDTH 12 0
BBX 12 10 0 -1
BITMAP
3f80
2000
2000
3f00
2080
0080
0080
2080
1f00
0000
ENDCHAR
STARTCHAR 2336
ENCODING 9014
SWIDTH 960 0
DWIDTH 12 0
BBX 12 10 0 -1
BITMAP
1f00
2080
2000
2f00
3080
2080
2080
2080
1f00
0000
ENDCHAR
STARTCHAR 2337
ENCODING 9015
SWIDTH 960 0
DWIDTH 12 0
BBX 12 10 0 -1
BITMAP
3f80
2080
0100
0100
0200
0200
0200
0200
0200
0000
ENDCHAR
STARTCHAR 2338
ENCODING 9016
SWIDTH 960 0
DWIDTH 12 0
BBX 12 10 0 -1
BITMAP
1f00
2080
2080
2080
1f00
2080
2080
2080
1f00
0000
ENDCHAR
STARTCHAR 2339
ENCODING 9017
SWIDTH 960 0
DWIDTH 12 0
BBX 12 10 0 -1
BITMAP
1f00
2080
2080
2080
2180
1e80
0080
2080
1f00
0000
ENDCHAR
STARTCHAR 2341
ENCODING 9025
SWIDTH 960 0
DWIDTH 12 0
BBX 12 10 0 -1
BITMAP
0400
0400
0a00
0a00
1100
1f00
2080
2080
71c0
0000
ENDCHAR
STARTCHAR 2342
ENCODING 9026
SWIDTH 960 0
DWIDTH 12 0
BBX 12 10 0 -1
BITMAP
7f00
2080
2080
2080
3f00
2080
2080
2080
7f00
0000
ENDCHAR
STARTCHAR 2343
ENCODING 9027
SWIDTH 960 0
DWIDTH 12 0
BBX 12 10 0 -1
BITMAP
0f00
1080
2040
2000
2000
2000
2040
10c0
0f00
0000
ENDCHAR
STARTCHAR 2344
ENCODING 9028
SWIDTH 960 0
DWIDTH 12 0
BBX 12 10 0 -1
BITMAP
7e00
2100
2080
2080
2080
2080
2080
2100
7e00
0000
ENDCHAR
STARTCHAR 2345
ENCODING 9029
SWIDTH 960 0
DWIDTH 12 0
BBX 12 10 0 -1
BITMAP
7f80
2080
2000
2200
3e00
2200
2000
2080
7f80
0000
ENDCHAR
STARTCHAR 2346
ENCODING 9030
SWIDTH 960 0
DWIDTH 12 0
BBX 12 10 0 -1
BITMAP
7f80
2080
2000
2200
3e00
2200
2000
2000
7000
0000
ENDCHAR
STARTCHAR 2347
ENCODING 9031
SWIDTH 960 0
DWIDTH 12 0
BBX 12 10 0 -1
BITMAP
0f00
1080
2000
2000
2380
2080
2080
1180
0e80
0000
ENDCHAR
STARTCHAR 2348
ENCODING 9032
SWIDTH 960 0
DWIDTH 12 0
BBX 12 10 0 -1
BITMAP
71c0
2080
2080
2080
3f80
2080
2080
2080
71c0
0000
ENDCHAR
STARTCHAR 2349
ENCODING 9033
SWIDTH 960 0
DWIDTH 12 0
BBX 12 10 0 -1
BITMAP
0e00
0400
0400
0400
0400
0400
0400
0400
0e00
0000
ENDCHAR
STARTCHAR 234a
ENCODING 9034
SWIDTH 960 0
DWIDTH 12 0
BBX 12 10 0 -1
BITMAP
01c0
0080
0080
0080
0080
3080
2080
1100
0e00
0000
ENDCHAR
STARTCHAR 234b
ENCODING 9035
SWIDTH 960 0
DWIDTH 12 0
BBX 12 10 0 -1
BITMAP
71c0
2100
2200
2400
2c00
3200
2100
2080
71c0
0000
ENDCHAR
STARTCHAR 234c
ENCODING 9036
SWIDTH 960 0
DWIDTH 12 0
BBX 12 10 0 -1
BITMAP
7000
2000
2000
2000
2000
2000
2000
2080
7f80
0000
ENDCHAR
STARTCHAR 234d
ENCODING 9037
SWIDTH 960 0
DWIDTH 12 0
BBX 12 10 0 -1
BITMAP
71c0
2080
3180
3180
2a80
2a80
2480
2480
71c0
0000
ENDCHAR
STARTCHAR 234e
ENCODING 9038
SWIDTH 960 0
DWIDTH 12 0
BBX 12 10 0 -1
BITMAP
71c0
2080
3080
2880
2480
2280
2180
2080
71c0
0000
ENDCHAR
STARTCHAR 234f
ENCODING 9039
SWIDTH 960 0
DWIDTH 12 0
BBX 12 10 0 -1
BITMAP
1f00
2080
2080
2080
2080
2080
2080
2080
1f00
0000
ENDCHAR
STARTCHAR 2350
ENCODING 9040
SWIDTH 960 0
DWIDTH 12 0
BBX 12 10 0 -1
BITMAP
7f00
2080
2080
2080
3f00
2000
2000
2000
7000
0000
ENDCHAR
STARTCHAR 2351
ENCODING 9041
SWIDTH 960 0
DWIDTH 12 0
BBX 12 10 0 -1
BITMAP
1f00
2080
2080
2080
2080
2080
2380
2480
1f40
0000
ENDCHAR
STARTCHAR 2352
ENCODING 9042
SWIDTH 960 0
DWIDTH 12 0
BBX 12 10 0 -1
BITMAP
7f00
2080
2080
2080
3f00
2200
2100
2080
71c0
0000
ENDCHAR
STARTCHAR 2353
ENCODING 9043
SWIDTH 960 0
DWIDTH 12 0
BBX 12 10 0 -1
BITMAP
1e80
2180
2000
2000
1f00
0080
0080
3080
2f00
0000
ENDCHAR
STARTCHAR 2354
ENCODING 9044
SWIDTH 960 0
DWIDTH 12 0
BBX 12 10 0 -1
BITMAP
7fc0
4440
0400
0400
0400
0400
0400
0400
0e00
0000
ENDCHAR
STARTCHAR 2355
ENCODING 9045
SWIDTH 960 0
DWIDTH 12 0
BBX 12 10 0 -1
BITMAP
71c0
2080
2080
2080
2080
2080
2080
2080
1f00
0000
ENDCHAR
STARTCHAR 2356
ENCODING 9046
SWIDTH 960 0
DWIDTH 12 0
BBX 12 10 0 -1
BITMAP
71c0
2080
2080
1100
1100
0a00
0a00
0400
0400
0000
ENDCHAR
STARTCHAR 2357
ENCODING 9047
SWIDTH 960 0
DWIDTH 12 0
BBX 12 10 0 -1
BITMAP
71c0
2480
2480
2480
2a80
2a80
1100
1100
1100
0000
ENDCHAR
STARTCHAR 2358
ENCODING 9048
SWIDTH 960 0
DWIDTH 12 0
BBX 12 10 0 -1
BITMAP
71c0
2080
1100
0a00
0400
0a00
1100
2080
71c0
0000
ENDCHAR
STARTCHAR 2359
ENCODING 9049
SWIDTH 960 0
DWIDTH 12 0
BBX 12 10 0 -1
BITMAP
71c0
2080
1100
0a00
0400
0400
0400
0400
0e00
0000
ENDCHAR
STARTCHAR 235a
ENCODING 9050
SWIDTH 960 0
DWIDTH 12 0
BBX 12 10 0 -1
BITMAP
3f80
2080
0100
0200
0400
0800
1000
2080
3f80
0000
ENDCHAR
STARTCHAR 2361
ENCODING 9057
SWIDTH 960 0
DWIDTH 12 0
BBX 12 10 0 -1
BITMAP
0000
0000
0000
1f00
0080
1f80
2080
2080
1f40
0000
ENDCHAR
STARTCHAR 2362
ENCODING 9058
SWIDTH 960 0
DWIDTH 12 0
BBX 12 10 0 -1
BITMAP
6000
2000
2000
2f00
3080
2080
2080
3080
6f00
0000
ENDCHAR
STARTCHAR 2363
ENCODING 9059
SWIDTH 960 0
DWIDTH 12 0
BBX 12 10 0 -1
BITMAP
0000
0000
0000
1f00
2080
2000
2000
20c0
1f80
0000
ENDCHAR
STARTCHAR 2364
ENCODING 9060
SWIDTH 960 0
DWIDTH 12 0
BBX 12 10 0 -1
BITMAP
00c0
0080
0080
1e80
2180
2080
2080
2180
1ec0
0000
ENDCHAR
STARTCHAR 2365
ENCODING 9061
SWIDTH 960 0
DWIDTH 12 0
BBX 12 10 0 -1
BITMAP
0000
0000
0000
1f00
2080
3f80
2000
2080
1f00
0000
ENDCHAR
STARTCHAR 2366
ENCODING 9062
SWIDTH 960 0
DWIDTH 12 0
BBX 12 10 0 -1
BITMAP
0380
0400
0400
3f80
0400
0400
0400
0400
0e00
0000
ENDCHAR
STARTCHAR 2367
ENCODING 9063
SWIDTH 960 0
DWIDTH 12 0
BBX 12 10 0 -1
BITMAP
0000
0000
0000
1e40
2180
1e00
2000
3f00
4080
3f00
ENDCHAR
STARTCHAR 2368
ENCODING 9064
SWIDTH 960 0
DWIDTH 12 0
BBX 12 10 0 -1
BITMAP
6000
2000
2000
2f00
3080
2080
2080
2080
71c0
0000
ENDCHAR
STARTCHAR 2369
ENCODING 9065
SWIDTH 960 0
DWIDTH 12 0
BBX 12 10 0 -1
BITMAP
0c00
0000
0000
0c00
0400
0400
0400
0400
0e00
0000
ENDCHAR
STARTCHAR 236a
ENCODING 9066
SWIDTH 960 0
DWIDTH 12 0
BBX 12 10 0 -1
BITMAP
0180
0000
0000
0180
0080
0080
0080
2080
1100
0e00
ENDCHAR
STARTCHAR 236b
ENCODING 9067
SWIDTH 960 0
DWIDTH 12 0
BBX 12 10 0 -1
BITMAP
3000
1000
1000
1380
1100
1200
1500
1880
31c0
0000
ENDCHAR
STARTCHAR 236c
ENCODING 9068
SWIDTH 960 0
DWIDTH 12 0
BBX 12 10 0 -1
BITMAP
0c00
0400
0400
0400
0400
0400
0400
0400
0e00
0000
ENDCHAR
STARTCHAR 236d
ENCODING 9069
SWIDTH 960 0
DWIDTH 12 0
BBX 12 10 0 -1
BITMAP
0000
0000
0000
5b00
2480
2480
2480
2480
6ec0
0000
ENDCHAR
STARTCHAR 236e
ENCODING 9070
SWIDTH 960 0
DWIDTH 12 0
BBX 12 10 0 -1
BITMAP
0000
0000
0000
6f00
3080
2080
2080
2080
71c0
0000
ENDCHAR
STARTCHAR 236f
ENCODING 9071
SWIDTH 960 0
DWIDTH 12 0
BBX 12 10 0 -1
BITMAP
0000
0000
0000
1f00
2080
2080
2080
2080
1f00
0000
ENDCHAR
STARTCHAR 2370
ENCODING 9072
SWIDTH 960 0
DWIDTH 12 0
BBX 12 10 0 -1
BITMAP
0000
0000
0000
6f00
3080
2080
3080
2f00
2000
7000
ENDCHAR
STARTCHAR 2371
ENCODING 9073
SWIDTH 960 0
DWIDTH 12 0
BBX 12 10 0 -1
BITMAP
0000
0000
0000
1ec0
2180
2080
2180
1e80
0080
01c0
ENDCHAR
STARTCHAR 2372
ENCODING 9074
SWIDTH 960 0
DWIDTH 12 0
BBX 12 10 0 -1
BITMAP
0000
0000
0000
6700
2980
3000
2000
2000
7000
0000
ENDCHAR
STARTCHAR 2373
ENCODING 9075
SWIDTH 960 0
DWIDTH 12 0
BBX 12 10 0 -1
BITMAP
0000
0000
0000
1f00
2000
1f00
0080
6080
3f00
0000
ENDCHAR
STARTCHAR 2374
ENCODING 9076
SWIDTH 960 0
DWIDTH 12 0
BBX 12 10 0 -1
BITMAP
0000
0800
0800
3e00
0800
0800
0800
0900
0e00
0000
ENDCHAR
STARTCHAR 2375
ENCODING 9077
SWIDTH 960 0
DWIDTH 12 0
BBX 12 10 0 -1
BITMAP
0000
0000
0000
6180
2080
2080
2080
2180
1e40
0000
ENDCHAR
STARTCHAR 2376
ENCODING 9078
SWIDTH 960 0
DWIDTH 12 0
BBX 12 10 0 -1
BITMAP
0000
0000
0000
71c0
2080
1100
1100
0a00
0400
0000
ENDCHAR
STARTCHAR 2377
ENCODING 9079
SWIDTH 960 0
DWIDTH 12 0
BBX 12 10 0 -1
BITMAP
0000
0000
0000
71c0
2480
2480
2a80
1100
1100
0000
ENDCHAR
STARTCHAR 2378
ENCODING 9080
SWIDTH 960 0
DWIDTH 12 0
BBX 12 10 0 -1
BITMAP
0000
0000
0000
71c0
1100
0e00
1100
2080
71c0
0000
ENDCHAR
STARTCHAR 2379
ENCODING 9081
SWIDTH 960 0
DWIDTH 12 0
BBX 12 10 0 -1
BITMAP
0000
0000
0000
71c0
2080
1100
0a00
0400
4800
3000
ENDCHAR
STARTCHAR 237a
ENCODING 9082
SWIDTH 960 0
DWIDTH 12 0
BBX 12 10 0 -1
BITMAP
0000
0000
0000
3f80
2200
0400
0800
1080
3f80
0000
ENDCHAR
STARTCHAR 2421
ENCODING 9249
SWIDTH 960 0
DWIDTH 12 0
BBX 12 10 0 -1
BITMAP
0000
0000
0800
3f00
0800
1f00
2a80
2c80
1900
0000
ENDCHAR
STARTCHAR 2422
ENCODING 9250
SWIDTH 960 0
DWIDTH 12 0
BBX 12 10 0 -1
BITMAP
1000
7f00
1000
1f80
3240
5220
9420
9840
7380
0000
ENDCHAR
STARTCHAR 2423
ENCODING 9251
SWIDTH 960 0
DWIDTH 12 0
BBX 12 10 0 -1
BITMAP
0000
0000
0000
2080
2040
2040
2040
1400
0800
0000
ENDCHAR
STARTCHAR 2424
ENCODING 9252
SWIDTH 960 0
DWIDTH 12 0
BBX 12 10 0 -1
BITMAP
0000
4000
4080
4040
4020
4020
2020
2800
1000
0000
ENDCHAR
STARTCHAR 2425
ENCODING 9253
SWIDTH 960 0
DWIDTH 12 0
BBX 12 10 0 -1
BITMAP
0000
0000
1e00
0000
0f00
3080
0080
0100
0e00
0000
ENDCHAR
STARTCHAR 2426
ENCODING 9254
SWIDTH 960 0
DWIDTH 12 0
BBX 12 10 0 -1
BITMAP
1f00
0000
1f80
6040
0040
0040
0080
0300
0c00
0000
ENDCHAR
STARTCHAR 2427
ENCODING 9255
SWIDTH 960 0
DWIDTH 12 0
BBX 12 10 0 -1
BITMAP
0000
0000
0e00
0000
1f00
0400
0c00
1200
2180
0000
ENDCHAR
STARTCHAR 2428
ENCODING 9256
SWIDTH 960 0
DWIDTH 12 0
BBX 12 10 0 -1
BITMAP
1e00
0000
3f00
0200
0400
0c00
1200
2200
41c0
0000
ENDCHAR
STARTCHAR 2429
ENCODING 9257
SWIDTH 960 0
DWIDTH 12 0
BBX 12 10 0 -1
BITMAP
0000
0000
0800
3c80
0840
0f00
1880
2880
1900
0000
ENDCHAR
STARTCHAR 242a
ENCODING 9258
SWIDTH 960 0
DWIDTH 12 0
BBX 12 10 0 -1
BITMAP
1000
7e40
1020
1f20
3080
5040
9040
9040
7180
0000
ENDCHAR
STARTCHAR 242b
ENCODING 9259
SWIDTH 960 0
DWIDTH 12 0
BBX 12 10 0 -1
BITMAP
0800
0880
7e40
1120
1120
2100
2100
4900
4600
0000
ENDCHAR
STARTCHAR 242c
ENCODING 9260
SWIDTH 960 0
DWIDTH 12 0
BBX 12 10 0 -1
BITMAP
0820
0850
7ea0
1140
1120
2120
2100
4900
4600
0000
ENDCHAR
STARTCHAR 242d
ENCODING 9261
SWIDTH 960 0
DWIDTH 12 0
BBX 12 10 0 -1
BITMAP
0400
3f80
0200
7fc0
0100
1f00
2080
2000
1f00
0000
ENDCHAR
STARTCHAR 242e
ENCODING 9262
SWIDTH 960 0
DWIDTH 12 0
BBX 12 10 0 -1
BITMAP
0420
3f90
0240
7f80
0100
1f00
2080
2000
1f00
0000
ENDCHAR
STARTCHAR 242f
ENCODING 9263
SWIDTH 960 0
DWIDTH 12 0
BBX 12 10 0 -1
BITMAP
0200
0400
0800
1000
2000
1800
0400
0200
0100
0000
ENDCHAR
STARTCHAR 2430
ENCODING 9264
SWIDTH 960 0
DWIDTH 12 0
BBX 12 10 0 -1
BITMAP
0200
0440
0920
1080
2000
1800
0400
0200
0100
0000
ENDCHAR
STARTCHAR 2431
ENCODING 9265
SWIDTH 960 0
DWIDTH 12 0
BBX 12 10 0 -1
BITMAP
2080
2080
47e0
4080
4080
4080
4080
4080
2100
0000
ENDCHAR
STARTCHAR 2432
ENCODING 9266
SWIDTH 960 0
DWIDTH 12 0
BBX 12 10 0 -1
BITMAP
4120
4190
8fc0
8100
8100
8100
8100
8100
4200
0000
ENDCHAR
STARTCHAR 2433
ENCODING 9267
SWIDTH 960 0
DWIDTH 12 0
BBX 12 10 0 -1
BITMAP
0000
3f00
0080
0000
0000
0000
4000
4040
3f80
0000
ENDCHAR
STARTCHAR 2434
ENCODING 9268
SWIDTH 960 0
DWIDTH 12 0
BBX 12 10 0 -1
BITMAP
0020
3e90
0140
0000
0000
0000
4000
4040
3f80
0000
ENDCHAR
STARTCHAR 2435
ENCODING 9269
SWIDTH 960 0
DWIDTH 12 0
BBX 12 10 0 -1
BITMAP
0400
7f80
0200
0100
3f00
4080
4000
2000
1f00
0000
ENDCHAR
STARTCHAR 2436
ENCODING 9270
SWIDTH 960 0
DWIDTH 12 0
BBX 12 10 0 -1
BITMAP
0420
7f90
0240
0100
3f00
4080
4000
2000
1f00
0000
ENDCHAR
STARTCHAR 2437
ENCODING 9271
SWIDTH 960 0
DWIDTH 12 0
BBX 12 10 0 -1
BITMAP
2000
2000
2000
2000
2000
2000
2040
1180
0e00
0000
ENDCHAR
STARTCHAR 2438
ENCODING 9272
SWIDTH 960 0
DWIDTH 12 0
BBX 12 10 0 -1
BITMAP
2080
2240
2100
2000
2000
2000
2040
1180
0e00
0000
ENDCHAR
STARTCHAR 2439
ENCODING 9273
SWIDTH 960 0
DWIDTH 12 0
BBX 12 10 0 -1
BITMAP
0200
ffe0
0e00
1200
1200
0e00
0200
0400
0800
0000
ENDCHAR
STARTCHAR 243a
ENCODING 9274
SWIDTH 960 0
DWIDTH 12 0
BBX 12 10 0 -1
BITMAP
0220
ffd0
0e40
1220
1200
0e00
0200
0400
0800
0000
ENDCHAR
STARTCHAR 243b
ENCODING 9275
SWIDTH 960 0
DWIDTH 12 0
BBX 12 10 0 -1
BITMAP
2100
2100
ffe0
2100
2100
2300
2000
2000
1f80
0000
ENDCHAR
STARTCHAR 243c
ENCODING 9276
SWIDTH 960 0
DWIDTH 12 0
BBX 12 10 0 -1
BITMAP
2120
2110
ffc0
2120
2100
2300
2000
2000
1f80
0000
ENDCHAR
STARTCHAR 243d
ENCODING 9277
SWIDTH 960 0
DWIDTH 12 0
BBX 12 10 0 -1
BITMAP
1f80
0200
0c00
7fe0
0400
0800
0800
0400
0380
0000
ENDCHAR
STARTCHAR 243e
ENCODING 9278
SWIDTH 960 0
DWIDTH 12 0
BBX 12 10 0 -1
BITMAP
1fa0
0290
0c40
7fe0
0400
0800
0800
0400
0380
0000
ENDCHAR
STARTCHAR 243f
ENCODING 9279
SWIDTH 960 0
DWIDTH 12 0
BBX 12 10 0 -1
BITMAP
1000
7e00
1000
1000
23c0
2000
2000
4400
43e0
0000
ENDCHAR
STARTCHAR 2440
ENCODING 9280
SWIDTH 960 0
DWIDTH 12 0
BBX 12 10 0 -1
BITMAP
1020
7e90
1040
1000
23c0
2000
2000
4400
43e0
0000
ENDCHAR
STARTCHAR 2441
ENCODING 9281
SWIDTH 960 0
DWIDTH 12 0
BBX 12 10 0 -1
BITMAP
0400
7f80
0800
1000
1f80
2040
0040
0080
0700
0000
ENDCHAR
STARTCHAR 2442
ENCODING 9282
SWIDTH 960 0
DWIDTH 12 0
BBX 12 10 0 -1
BITMAP
0420
7f90
0840
1000
1f80
2040
0040
0080
0700
0000
ENDCHAR
STARTCHAR 2443
ENCODING 9283
SWIDTH 960 0
DWIDTH 12 0
BBX 12 10 0 -1
BITMAP
0000
0000
0000
0f80
7040
0040
0080
0100
0600
0000
ENDCHAR
STARTCHAR 2444
ENCODING 9284
SWIDTH 960 0
DWIDTH 12 0
BBX 12 10 0 -1
BITMAP
0000
1f80
e040
0020
0020
0040
0180
0e00
0000
0000
ENDCHAR
STARTCHAR 2445
ENCODING 9285
SWIDTH 960 0
DWIDTH 12 0
BBX 12 10 0 -1
BITMAP
00a0
1f50
e080
0040
0040
0080
0300
1c00
0000
0000
ENDCHAR
STARTCHAR 2446
ENCODING 9286
SWIDTH 960 0
DWIDTH 12 0
BBX 12 10 0 -1
BITMAP
00c0
ff00
0200
0400
0800
0800
0800
0400
0300
0000
ENDCHAR
STARTCHAR 2447
ENCODING 9287
SWIDTH 960 0
DWIDTH 12 0
BBX 12 10 0 -1
BITMAP
00c0
ff20
0290
0440
0800
0800
0800
0400
0300
0000
ENDCHAR
STARTCHAR 2448
ENCODING 9288
SWIDTH 960 0
DWIDTH 12 0
BBX 12 10 0 -1
BITMAP
1000
1000
0b80
1c00
2000
4000
4000
2000
1f80
0000
ENDCHAR
STARTCHAR 2449
ENCODING 9289
SWIDTH 960 0
DWIDTH 12 0
BBX 12 10 0 -1
BITMAP
1020
1090
0b40
1c00
2000
4000
4000
2000
1f80
0000
ENDCHAR
STARTCHAR 244a
ENCODING 9290
SWIDTH 960 0
DWIDTH 12 0
BBX 12 10 0 -1
BITMAP
1000
fc00
21c0
2020
4100
4100
8fc0
9120
0e00
0000
ENDCHAR
STARTCHAR 244b
ENCODING 9291
SWIDTH 960 0
DWIDTH 12 0
BBX 12 10 0 -1
BITMAP
2000
27c0
4000
4000
4000
4000
4400
4400
23e0
0000
ENDCHAR
STARTCHAR 244c
ENCODING 9292
SWIDTH 960 0
DWIDTH 12 0
BBX 12 10 0 -1
BITMAP
0200
2200
2f80
3440
6420
a820
91a0
aa40
41a0
0000
ENDCHAR
STARTCHAR 244d
ENCODING 9293
SWIDTH 960 0
DWIDTH 12 0
BBX 12 10 0 -1
BITMAP
2000
2000
fb80
2c40
3040
2040
63c0
a460
2380
0000
ENDCHAR
STARTCHAR 244e
ENCODING 9294
SWIDTH 960 0
DWIDTH 12 0
BBX 12 10 0 -1
BITMAP
0000
1f80
2440
4420
8820
8820
9020
6040
0180
0000
ENDCHAR
STARTCHAR 244f
ENCODING 9295
SWIDTH 960 0
DWIDTH 12 0
BBX 12 10 0 -1
BITMAP
2080
2080
4fe0
4080
4080
4080
4780
48c0
2720
0000
ENDCHAR
STARTCHAR 2450
ENCODING 9296
SWIDTH 960 0
DWIDTH 12 0
BBX 12 10 0 -1
BITMAP
4120
4110
9fc0
8120
8100
8100
8f00
9180
4e40
0000
ENDCHAR
STARTCHAR 2451
ENCODING 9297
SWIDTH 960 0
DWIDTH 12 0
BBX 12 10 0 -1
BITMAP
4160
4190
9fe0
8100
8100
8100
8f00
9180
4e40
0000
ENDCHAR
STARTCHAR 2452
ENCODING 9298
SWIDTH 960 0
DWIDTH 12 0
BBX 12 10 0 -1
BITMAP
0200
3100
e180
2140
4120
4100
4100
2200
1c00
0000
ENDCHAR
STARTCHAR 2453
ENCODING 9299
SWIDTH 960 0
DWIDTH 12 0
BBX 12 10 0 -1
BITMAP
0220
3190
e140
2180
4140
4100
4100
2200
1c00
0000
ENDCHAR
STARTCHAR 2454
ENCODING 9300
SWIDTH 960 0
DWIDTH 12 0
BBX 12 10 0 -1
BITMAP
0260
3190
e160
2180
4140
4100
4100
2200
1c00
0000
ENDCHAR
STARTCHAR 2455
ENCODING 9301
SWIDTH 960 0
DWIDTH 12 0
BBX 12 10 0 -1
BITMAP
0c00
0200
0000
0400
2480
2240
4220
9220
0c00
0000
ENDCHAR
STARTCHAR 2456
ENCODING 9302
SWIDTH 960 0
DWIDTH 12 0
BBX 12 10 0 -1
BITMAP
0840
0520
0080
0400
2480
2240
4220
9220
0c00
0000
ENDCHAR
STARTCHAR 2457
ENCODING 9303
SWIDTH 960 0
DWIDTH 12 0
BBX 12 10 0 -1
BITMAP
0cc0
0320
00c0
0400
2480
2240
4220
9220
0c00
0000
ENDCHAR
STARTCHAR 2458
ENCODING 9304
SWIDTH 960 0
DWIDTH 12 0
BBX 12 10 0 -1
BITMAP
0000
0000
0c00
1200
2100
c080
0040
0020
0000
0000
ENDCHAR
STARTCHAR 2459
ENCODING 9305
SWIDTH 960 0
DWIDTH 12 0
BBX 12 10 0 -1
BITMAP
0040
0120
0c80
1200
2100
c080
0040
0020
0000
0000
ENDCHAR
STARTCHAR 245a
ENCODING 9306
SWIDTH 960 0
DWIDTH 12 0
BBX 12 10 0 -1
BITMAP
00c0
0120
0cc0
1200
2100
c080
0040
0020
0000
0000
ENDCHAR
STARTCHAR 245b
ENCODING 9307
SWIDTH 960 0
DWIDTH 12 0
BBX 12 10 0 -1
BITMAP
2000
2fe0
4080
47e0
4080
4080
4780
48c0
2720
0000
ENDCHAR
STARTCHAR 245c
ENCODING 9308
SWIDTH 960 0
DWIDTH 12 0
BBX 12 10 0 -1
BITMAP
40a0
5fd0
8100
8fe0
8100
8100
8f00
b1c0
4e20
0000
ENDCHAR
STARTCHAR 245d
ENCODING 9309
SWIDTH 960 0
DWIDTH 12 0
BBX 12 10 0 -1
BITMAP
4060
5f90
8160
8fc0
8100
8100
8f00
91c0
4e20
0000
ENDCHAR
STARTCHAR 245e
ENCODING 9310
SWIDTH 960 0
DWIDTH 12 0
BBX 12 10 0 -1
BITMAP
0400
7fc0
0400
3f80
0400
0400
3e00
4580
3840
0000
ENDCHAR
STARTCHAR 245f
ENCODING 9311
SWIDTH 960 0
DWIDTH 12 0
BBX 12 10 0 -1
BITMAP
1e00
0200
0200
0440
3f40
48c0
90a0
6100
0200
0000
ENDCHAR
STARTCHAR 2460
ENCODING 9312
SWIDTH 960 0
DWIDTH 12 0
BBX 12 10 0 -1
BITMAP
1000
10c0
fc20
1000
7000
9040
6040
2040
1f80
0000
ENDCHAR
STARTCHAR 2461
ENCODING 9313
SWIDTH 960 0
DWIDTH 12 0
BBX 12 10 0 -1
BITMAP
0200
2200
2f80
3440
6420
a820
9020
a840
4180
0000
ENDCHAR
STARTCHAR 2462
ENCODING 9314
SWIDTH 960 0
DWIDTH 12 0
BBX 12 10 0 -1
BITMAP
1000
1000
fe00
2000
2080
fe40
2040
1080
0f00
0000
ENDCHAR
STARTCHAR 2463
ENCODING 9315
SWIDTH 960 0
DWIDTH 12 0
BBX 12 10 0 -1
BITMAP
0000
0000
0200
1200
1780
7840
0980
0400
0400
0000
ENDCHAR
STARTCHAR 2464
ENCODING 9316
SWIDTH 960 0
DWIDTH 12 0
BBX 12 10 0 -1
BITMAP
0200
2200
23c0
1c20
f020
08c0
0800
0400
0400
0000
ENDCHAR
STARTCHAR 2465
ENCODING 9317
SWIDTH 960 0
DWIDTH 12 0
BBX 12 10 0 -1
BITMAP
0000
0000
0400
2200
2f00
3280
2a80
2700
0400
0000
ENDCHAR
STARTCHAR 2466
ENCODING 9318
SWIDTH 960 0
DWIDTH 12 0
BBX 12 10 0 -1
BITMAP
0400
4780
4a40
5220
6220
4a40
4780
0400
0800
0000
ENDCHAR
STARTCHAR 2467
ENCODING 9319
SWIDTH 960 0
DWIDTH 12 0
BBX 12 10 0 -1
BITMAP
0000
0000
0400
0400
0780
0400
1e00
2500
1880
0000
ENDCHAR
STARTCHAR 2468
ENCODING 9320
SWIDTH 960 0
DWIDTH 12 0
BBX 12 10 0 -1
BITMAP
0400
0400
07c0
0400
0400
0400
3e00
4580
3840
0000
ENDCHAR
STARTCHAR 2469
ENCODING 9321
SWIDTH 960 0
DWIDTH 12 0
BBX 12 10 0 -1
BITMAP
1800
0600
2000
4000
4f80
7040
4040
0180
0e00
0000
ENDCHAR
STARTCHAR 246a
ENCODING 9322
SWIDTH 960 0
DWIDTH 12 0
BBX 12 10 0 -1
BITMAP
2080
2080
2080
2080
2880
1080
0100
0100
0200
0000
ENDCHAR
STARTCHAR 246b
ENCODING 9323
SWIDTH 960 0
DWIDTH 12 0
BBX 12 10 0 -1
BITMAP
3f00
0400
0800
1f80
3040
4040
0e40
1180
0f00
0000
ENDCHAR
STARTCHAR 246c
ENCODING 9324
SWIDTH 960 0
DWIDTH 12 0
BBX 12 10 0 -1
BITMAP
2000
2300
fc80
2880
3080
2080
60a0
a0a0
2040
0000
ENDCHAR
STARTCHAR 246d
ENCODING 9325
SWIDTH 960 0
DWIDTH 12 0
BBX 12 10 0 -1
BITMAP
3f00
0400
0800
1f80
3040
4040
0040
0180
0e00
0000
ENDCHAR
STARTCHAR 246e
ENCODING 9326
SWIDTH 960 0
DWIDTH 12 0
BBX 12 10 0 -1
BITMAP
0000
0000
0000
1000
7f00
1880
1080
3080
5300
0000
ENDCHAR
STARTCHAR 246f
ENCODING 9327
SWIDTH 960 0
DWIDTH 12 0
BBX 12 10 0 -1
BITMAP
2000
2000
fb80
2c40
3020
2020
6020
a040
2180
0000
ENDCHAR
STARTCHAR 2470
ENCODING 9328
SWIDTH 960 0
DWIDTH 12 0
BBX 12 10 0 -1
BITMAP
3e00
0400
0400
0f80
3840
4820
9320
a4c0
4380
0000
ENDCHAR
STARTCHAR 2471
ENCODING 9329
SWIDTH 960 0
DWIDTH 12 0
BBX 12 10 0 -1
BITMAP
1f00
0200
0f00
1080
2680
0900
1600
39c0
4620
0000
ENDCHAR
STARTCHAR 2472
ENCODING 9330
SWIDTH 960 0
DWIDTH 12 0
BBX 12 10 0 -1
BITMAP
0800
7f00
1000
3800
47c0
8c00
1400
2000
1f80
0000
ENDCHAR
STARTCHAR 2473
ENCODING 9331
SWIDTH 960 0
DWIDTH 12 0
BBX 12 10 0 -1
BITMAP
0400
0800
0800
1000
1c00
2200
4220
4240
8180
0000
ENDCHAR
STARTCHAR 2521
ENCODING 9505
SWIDTH 960 0
DWIDTH 12 0
BBX 12 10 0 -1
BITMAP
0000
0000
0000
3f80
0100
0600
0400
0400
0800
0000
ENDCHAR
STARTCHAR 2522
ENCODING 9506
SWIDTH 960 0
DWIDTH 12 0
BBX 12 10 0 -1
BITMAP
0000
7fc0
0040
0480
0500
0400
0800
0800
1000
0000
ENDCHAR
STARTCHAR 2523
ENCODING 9507
SWIDTH 960 0
DWIDTH 12 0
BBX 12 10 0 -1
BITMAP
0000
0000
0100
0600
1c00
6400
0400
0400
0400
0000
ENDCHAR
STARTCHAR 2524
ENCODING 9508
SWIDTH 960 0
DWIDTH 12 0
BBX 12 10 0 -1
BITMAP
0040
0080
0300
0e00
7200
0200
0200
0200
0200
0000
ENDCHAR
STARTCHAR 2525
ENCODING 9509
SWIDTH 960 0
DWIDTH 12 0
BBX 12 10 0 -1
BITMAP
0000
0000
0400
3f80
2080
2080
0100
0200
0c00
0000
ENDCHAR
STARTCHAR 2526
ENCODING 9510
SWIDTH 960 0
DWIDTH 12 0
BBX 12 10 0 -1
BITMAP
0400
0400
7fc0
4040
4040
0080
0100
0200
0c00
0000
ENDCHAR
STARTCHAR 2527
ENCODING 9511
SWIDTH 960 0
DWIDTH 12 0
BBX 12 10 0 -1
BITMAP
0000
0000
0000
0000
3f80
0400
0400
0400
7fc0
0000
ENDCHAR
STARTCHAR 2528
ENCODING 9512
SWIDTH 960 0
DWIDTH 12 0
BBX 12 10 0 -1
BITMAP
0000
7fc0
0400
0400
0400
0400
0400
ffe0
0000
0000
ENDCHAR
STARTCHAR 2529
ENCODING 9513
SWIDTH 960 0
DWIDTH 12 0
BBX 12 10 0 -1
BITMAP
0000
0000
0200
7f80
0600
0a00
1200
6200
0600
0000
ENDCHAR
STARTCHAR 252a
ENCODING 9514
SWIDTH 960 0
DWIDTH 12 0
BBX 12 10 0 -1
BITMAP
0100
0100
ffe0
0300
0500
0900
3100
c100
0300
0000
ENDCHAR
STARTCHAR 252b
ENCODING 9515
SWIDTH 960 0
DWIDTH 12 0
BBX 12 10 0 -1
BITMAP
0800
0800
ffe0
0820
0820
1020
1040
2140
4080
0000
ENDCHAR
STARTCHAR 252c
ENCODING 9516
SWIDTH 960 0
DWIDTH 12 0
BBX 12 10 0 -1
BITMAP
0820
0890
ffc0
0840
0840
1040
1080
2280
4100
0000
ENDCHAR
STARTCHAR 252d
ENCODING 9517
SWIDTH 960 0
DWIDTH 12 0
BBX 12 10 0 -1
BITMAP
0800
0800
7f80
0400
0400
ffe0
0200
0200
0200
0000
ENDCHAR
STARTCHAR 252e
ENCODING 9518
SWIDTH 960 0
DWIDTH 12 0
BBX 12 10 0 -1
BITMAP
0820
0890
7fc0
0400
0400
ffe0
0200
0200
0200
0000
ENDCHAR
STARTCHAR 252f
ENCODING 9519
SWIDTH 960 0
DWIDTH 12 0
BBX 12 10 0 -1
BITMAP
1000
1f80
1080
2080
4100
0100
0200
0c00
7000
0000
ENDCHAR
STARTCHAR 2530
ENCODING 9520
SWIDTH 960 0
DWIDTH 12 0
BBX 12 10 0 -1
BITMAP
1020
1f90
10c0
2080
4100
0100
0200
0c00
7000
0000
ENDCHAR
STARTCHAR 2531
ENCODING 9521
SWIDTH 960 0
DWIDTH 12 0
BBX 12 10 0 -1
BITMAP
2000
2000
3fe0
2100
4100
8100
0200
0200
0400
0000
ENDCHAR
STARTCHAR 2532
ENCODING 9522
SWIDTH 960 0
DWIDTH 12 0
BBX 12 10 0 -1
BITMAP
2020
2090
3fc0
2200
4200
8200
0400
0400
0800
0000
ENDCHAR
STARTCHAR 2533
ENCODING 9523
SWIDTH 960 0
DWIDTH 12 0
BBX 12 10 0 -1
BITMAP
0000
7fc0
0040
0040
0040
0040
0040
7fc0
0040
0000
ENDCHAR
STARTCHAR 2534
ENCODING 9524
SWIDTH 960 0
DWIDTH 12 0
BBX 12 10 0 -1
BITMAP
00a0
7fd0
0040
0040
0040
0040
0040
7fc0
0040
0000
ENDCHAR
STARTCHAR 2535
ENCODING 9525
SWIDTH 960 0
DWIDTH 12 0
BBX 12 10 0 -1
BITMAP
1080
1080
ffe0
1080
1080
0100
0100
0200
0400
0000
ENDCHAR
STARTCHAR 2536
ENCODING 9526
SWIDTH 960 0
DWIDTH 12 0
BBX 12 10 0 -1
BITMAP
1120
1190
ffc0
1100
1100
0200
0200
0400
0800
0000
ENDCHAR
STARTCHAR 2537
ENCODING 9527
SWIDTH 960 0
DWIDTH 12 0
BBX 12 10 0 -1
BITMAP
3000
0800
0000
6020
1040
0080
0100
0600
3800
0000
ENDCHAR
STARTCHAR 2538
ENCODING 9528
SWIDTH 960 0
DWIDTH 12 0
BBX 12 10 0 -1
BITMAP
3040
0920
0080
6020
1040
0080
0100
0600
3800
0000
ENDCHAR
STARTCHAR 2539
ENCODING 9529
SWIDTH 960 0
DWIDTH 12 0
BBX 12 10 0 -1
BITMAP
0000
7f80
0080
0100
0200
0600
0900
1080
6040
0000
ENDCHAR
STARTCHAR 253a
ENCODING 9530
SWIDTH 960 0
DWIDTH 12 0
BBX 12 10 0 -1
BITMAP
0020
7f90
00c0
0100
0200
0600
0900
1080
6040
0000
ENDCHAR
STARTCHAR 253b
ENCODING 9531
SWIDTH 960 0
DWIDTH 12 0
BBX 12 10 0 -1
BITMAP
1000
1000
13e0
fc40
1080
1100
1000
1000
0fc0
0000
ENDCHAR
STARTCHAR 253c
ENCODING 9532
SWIDTH 960 0
DWIDTH 12 0
BBX 12 10 0 -1
BITMAP
1020
1090
13c0
fc40
1080
1100
1000
1000
0fc0
0000
ENDCHAR
STARTCHAR 253d
ENCODING 9533
SWIDTH 960 0
DWIDTH 12 0
BBX 12 10 0 -1
BITMAP
0000
4040
2040
1080
1080
0100
0200
0400
1800
0000
ENDCHAR
STARTCHAR 253e
ENCODING 9534
SWIDTH 960 0
DWIDTH 12 0
BBX 12 10 0 -1
BITMAP
0020
4090
20c0
1100
1100
0200
0400
0800
3000
0000
ENDCHAR
STARTCHAR 253f
ENCODING 9535
SWIDTH 960 0
DWIDTH 12 0
BBX 12 10 0 -1
BITMAP
1000
1f80
1080
3080
4d00
0300
0200
0c00
7000
0000
ENDCHAR
STARTCHAR 2540
ENCODING 9536
SWIDTH 960 0
DWIDTH 12 0
BBX 12 10 0 -1
BITMAP
1020
1f90
10c0
3080
4d00
0300
0200
0c00
7000
0000
ENDCHAR
STARTCHAR 2541
ENCODING 9537
SWIDTH 960 0
DWIDTH 12 0
BBX 12 10 0 -1
BITMAP
0180
3e00
0200
0200
ffe0
0200
0400
0400
0800
0000
ENDCHAR
STARTCHAR 2542
ENCODING 9538
SWIDTH 960 0
DWIDTH 12 0
BBX 12 10 0 -1
BITMAP
0320
3c90
0440
0400
ffc0
0400
0800
0800
1000
0000
ENDCHAR
STARTCHAR 2543
ENCODING 9539
SWIDTH 960 0
DWIDTH 12 0
BBX 12 10 0 -1
BITMAP
0000
0000
0000
0800
4480
2480
2100
0200
0c00
0000
ENDCHAR
STARTCHAR 2544
ENCODING 9540
SWIDTH 960 0
DWIDTH 12 0
BBX 12 10 0 -1
BITMAP
1000
9040
8840
4880
4080
0100
0200
0400
1800
0000
ENDCHAR
STARTCHAR 2545
ENCODING 9541
SWIDTH 960 0
DWIDTH 12 0
BBX 12 10 0 -1
BITMAP
1020
9090
88c0
4880
4100
0100
0200
0400
1800
0000
ENDCHAR
STARTCHAR 2546
ENCODING 9542
SWIDTH 960 0
DWIDTH 12 0
BBX 12 10 0 -1
BITMAP
3f80
0000
0000
ffe0
0200
0200
0400
0400
0800
0000
ENDCHAR
STARTCHAR 2547
ENCODING 9543
SWIDTH 960 0
DWIDTH 12 0
BBX 12 10 0 -1
BITMAP
7f20
0090
0040
ffc0
0400
0400
0800
0800
1000
0000
ENDCHAR
STARTCHAR 2548
ENCODING 9544
SWIDTH 960 0
DWIDTH 12 0
BBX 12 10 0 -1
BITMAP
0800
0800
0800
0e00
0900
0880
0800
0800
0800
0000
ENDCHAR
STARTCHAR 2549
ENCODING 9545
SWIDTH 960 0
DWIDTH 12 0
BBX 12 10 0 -1
BITMAP
0840
0920
0880
0e00
0900
0880
0800
0800
0800
0000
ENDCHAR
STARTCHAR 254a
ENCODING 9546
SWIDTH 960 0
DWIDTH 12 0
BBX 12 10 0 -1
BITMAP
0200
0200
7fe0
0200
0200
0400
0400
0800
1000
0000
ENDCHAR
STARTCHAR 254b
ENCODING 9547
SWIDTH 960 0
DWIDTH 12 0
BBX 12 10 0 -1
BITMAP
0000
3f80
0000
0000
0000
0000
0000
ffe0
0000
0000
ENDCHAR
STARTCHAR 254c
ENCODING 9548
SWIDTH 960 0
DWIDTH 12 0
BBX 12 10 0 -1
BITMAP
0000
3fc0
0040
0080
0d00
0300
0480
1840
6000
0000
ENDCHAR
STARTCHAR 254d
ENCODING 9549
SWIDTH 960 0
DWIDTH 12 0
BBX 12 10 0 -1
BITMAP
0400
3f80
0080
0100
0600
1d80
e460
0400
0400
0000
ENDCHAR
STARTCHAR 254e
ENCODING 9550
SWIDTH 960 0
DWIDTH 12 0
BBX 12 10 0 -1
BITMAP
0080
0080
0080
0100
0100
0200
0400
1800
6000
0000
ENDCHAR
STARTCHAR 254f
ENCODING 9551
SWIDTH 960 0
DWIDTH 12 0
BBX 12 10 0 -1
BITMAP
0000
0000
1100
1080
2040
2040
4020
8020
0000
0000
ENDCHAR
STARTCHAR 2550
ENCODING 9552
SWIDTH 960 0
DWIDTH 12 0
BBX 12 10 0 -1
BITMAP
0020
0090
1240
1100
2080
2080
4040
8040
0000
0000
ENDCHAR
STARTCHAR 2551
ENCODING 9553
SWIDTH 960 0
DWIDTH 12 0
BBX 12 10 0 -1
BITMAP
0060
0090
1260
1100
2080
2080
4040
8040
0000
0000
ENDCHAR
STARTCHAR 2552
ENCODING 9554
SWIDTH 960 0
DWIDTH 12 0
BBX 12 10 0 -1
BITMAP
4000
4000
4380
7c00
4000
4000
4000
2000
1fc0
0000
ENDCHAR
STARTCHAR 2553
ENCODING 9555
SWIDTH 960 0
DWIDTH 12 0
BBX 12 10 0 -1
BITMAP
4020
4090
4340
7c00
4000
4000
4000
2000
1f80
0000
ENDCHAR
STARTCHAR 2554
ENCODING 9556
SWIDTH 960 0
DWIDTH 12 0
BBX 12 10 0 -1
BITMAP
4060
4090
4360
7c00
4000
4000
4000
2000
1f80
0000
ENDCHAR
STARTCHAR 2555
ENCODING 9557
SWIDTH 960 0
DWIDTH 12 0
BBX 12 10 0 -1
BITMAP
0000
7fc0
0040
0080
0080
0100
0200
0c00
3000
0000
ENDCHAR
STARTCHAR 2556
ENCODING 9558
SWIDTH 960 0
DWIDTH 12 0
BBX 12 10 0 -1
BITMAP
0020
7f90
0040
00a0
0080
0100
0200
0c00
3000
0000
ENDCHAR
STARTCHAR 2557
ENCODING 9559
SWIDTH 960 0
DWIDTH 12 0
BBX 12 10 0 -1
BITMAP
0060
7f90
00e0
0080
0080
0100
0200
0c00
3000
0000
ENDCHAR
STARTCHAR 2558
ENCODING 9560
SWIDTH 960 0
DWIDTH 12 0
BBX 12 10 0 -1
BITMAP
0000
0800
1400
2200
4100
8080
0040
0020
0000
0000
ENDCHAR
STARTCHAR 2559
ENCODING 9561
SWIDTH 960 0
DWIDTH 12 0
BBX 12 10 0 -1
BITMAP
0040
0920
1480
2200
4100
8080
0040
0020
0000
0000
ENDCHAR
STARTCHAR 255a
ENCODING 9562
SWIDTH 960 0
DWIDTH 12 0
BBX 12 10 0 -1
BITMAP
00c0
0920
14c0
2200
4100
8080
0040
0020
0000
0000
ENDCHAR
STARTCHAR 255b
ENCODING 9563
SWIDTH 960 0
DWIDTH 12 0
BBX 12 10 0 -1
BITMAP
0400
0400
ffe0
0400
2480
2440
4420
8420
0400
0000
ENDCHAR
STARTCHAR 255c
ENCODING 9564
SWIDTH 960 0
DWIDTH 12 0
BBX 12 10 0 -1
BITMAP
0420
0490
ffc0
0400
2480
2440
4420
8420
0400
0000
ENDCHAR
STARTCHAR 255d
ENCODING 9565
SWIDTH 960 0
DWIDTH 12 0
BBX 12 10 0 -1
BITMAP
0460
0490
ffe0
0400
2480
2440
4420
8420
0400
0000
ENDCHAR
STARTCHAR 255e
ENCODING 9566
SWIDTH 960 0
DWIDTH 12 0
BBX 12 10 0 -1
BITMAP
0000
ffe0
0020
0040
0080
1900
0600
0200
0100
0000
ENDCHAR
STARTCHAR 255f
ENCODING 9567
SWIDTH 960 0
DWIDTH 12 0
BBX 12 10 0 -1
BITMAP
1c00
0300
00c0
3800
0600
0180
7000
0e00
01c0
0000
ENDCHAR
STARTCHAR 2560
ENCODING 9568
SWIDTH 960 0
DWIDTH 12 0
BBX 12 10 0 -1
BITMAP
0400
0400
0800
0800
1080
1040
2040
23e0
fc20
0000
ENDCHAR
STARTCHAR 2561
ENCODING 9569
SWIDTH 960 0
DWIDTH 12 0
BBX 12 10 0 -1
BITMAP
0080
0080
0080
1d00
0300
0280
0440
1800
6000
0000
ENDCHAR
STARTCHAR 2562
ENCODING 9570
SWIDTH 960 0
DWIDTH 12 0
BBX 12 10 0 -1
BITMAP
0000
7f80
0800
0800
ffe0
0800
0800
0800
07c0
0000
ENDCHAR
STARTCHAR 2563
ENCODING 9571
SWIDTH 960 0
DWIDTH 12 0
BBX 12 10 0 -1
BITMAP
0000
0000
1000
17c0
7840
0880
0800
0400
0400
0000
ENDCHAR
STARTCHAR 2564
ENCODING 9572
SWIDTH 960 0
DWIDTH 12 0
BBX 12 10 0 -1
BITMAP
1000
17e0
f820
0840
0880
0800
0400
0400
0400
0000
ENDCHAR
STARTCHAR 2565
ENCODING 9573
SWIDTH 960 0
DWIDTH 12 0
BBX 12 10 0 -1
BITMAP
0000
0000
0000
3f00
0100
0100
0200
0200
7fc0
0000
ENDCHAR
STARTCHAR 2566
ENCODING 9574
SWIDTH 960 0
DWIDTH 12 0
BBX 12 10 0 -1
BITMAP
0000
3f00
0100
0100
0200
0200
0200
ffe0
0000
0000
ENDCHAR
STARTCHAR 2567
ENCODING 9575
SWIDTH 960 0
DWIDTH 12 0
BBX 12 10 0 -1
BITMAP
0000
0000
0000
3f00
0100
3f00
0100
3f00
0100
0000
ENDCHAR
STARTCHAR 2568
ENCODING 9576
SWIDTH 960 0
DWIDTH 12 0
BBX 12 10 0 -1
BITMAP
0000
7fc0
0040
0040
7fc0
0040
0040
7fc0
0040
0000
ENDCHAR
STARTCHAR 2569
ENCODING 9577
SWIDTH 960 0
DWIDTH 12 0
BBX 12 10 0 -1
BITMAP
3f80
0000
0000
7fc0
0040
0080
0100
0600
1800
0000
ENDCHAR
STARTCHAR 256a
ENCODING 9578
SWIDTH 960 0
DWIDTH 12 0
BBX 12 10 0 -1
BITMAP
2080
2080
2080
2080
2080
0100
0100
0200
0400
0000
ENDCHAR
STARTCHAR 256b
ENCODING 9579
SWIDTH 960 0
DWIDTH 12 0
BBX 12 10 0 -1
BITMAP
0200
1200
1200
1200
1220
2220
2240
4280
8300
0000
ENDCHAR
STARTCHAR 256c
ENCODING 9580
SWIDTH 960 0
DWIDTH 12 0
BBX 12 10 0 -1
BITMAP
2000
2000
2000
2000
2040
2080
2100
2600
3800
0000
ENDCHAR
STARTCHAR 256d
ENCODING 9581
SWIDTH 960 0
DWIDTH 12 0
BBX 12 10 0 -1
BITMAP
0000
7fc0
4040
4040
4040
4040
4040
7fc0
0000
0000
ENDCHAR
STARTCHAR 256e
ENCODING 9582
SWIDTH 960 0
DWIDTH 12 0
BBX 12 10 0 -1
BITMAP
0000
0000
0000
3f80
2080
2080
0100
0200
0c00
0000
ENDCHAR
STARTCHAR 256f
ENCODING 9583
SWIDTH 960 0
DWIDTH 12 0
BBX 12 10 0 -1
BITMAP
0000
7fc0
4040
4040
0080
0080
0100
0200
0c00
0000
ENDCHAR
STARTCHAR 2570
ENCODING 9584
SWIDTH 960 0
DWIDTH 12 0
BBX 12 10 0 -1
BITMAP
0200
0200
7fc0
1200
1200
1200
ffe0
0200
0200
0000
ENDCHAR
STARTCHAR 2571
ENCODING 9585
SWIDTH 960 0
DWIDTH 12 0
BBX 12 10 0 -1
BITMAP
0000
7fc0
0080
0100
0600
0400
0400
ffe0
0000
0000
ENDCHAR
STARTCHAR 2572
ENCODING 9586
SWIDTH 960 0
DWIDTH 12 0
BBX 12 10 0 -1
BITMAP
0000
7fc0
0040
0040
3f80
0080
0100
0600
3800
0000
ENDCHAR
STARTCHAR 2573
ENCODING 9587
SWIDTH 960 0
DWIDTH 12 0
BBX 12 10 0 -1
BITMAP
0000
7000
0820
0020
0040
0080
0100
0600
3800
0000
ENDCHAR
STARTCHAR 2574
ENCODING 9588
SWIDTH 960 0
DWIDTH 12 0
BBX 12 10 0 -1
BITMAP
0820
0810
ffc0
80a0
8080
0100
0200
0400
1800
0000
ENDCHAR
STARTCHAR 2575
ENCODING 9589
SWIDTH 960 0
DWIDTH 12 0
BBX 12 10 0 -1
BITMAP
0000
0000
0400
0400
3f80
0880
0880
1500
2300
0000
ENDCHAR
STARTCHAR 2576
ENCODING 9590
SWIDTH 960 0
DWIDTH 12 0
BBX 12 10 0 -1
BITMAP
0000
0000
0800
0800
0fc0
1100
2100
0200
0400
0000
ENDCHAR
STARTCHAR 2621
ENCODING 9761
SWIDTH 960 0
DWIDTH 12 0
BBX 12 10 0 -1
BITMAP
0400
0400
0a00
0a00
1100
1f00
2080
2080
71c0
0000
ENDCHAR
STARTCHAR 2622
ENCODING 9762
SWIDTH 960 0
DWIDTH 12 0
BBX 12 10 0 -1
BITMAP
7f00
2080
2080
2080
3f00
2080
2080
2080
7f00
0000
ENDCHAR
STARTCHAR 2623
ENCODING 9763
SWIDTH 960 0
DWIDTH 12 0
BBX 12 10 0 -1
BITMAP
3f80
1080
1040
1000
1000
1000
1000
1000
3800
0000
ENDCHAR
STARTCHAR 2624
ENCODING 9764
SWIDTH 960 0
DWIDTH 12 0
BBX 12 10 0 -1
BITMAP
0400
0400
0a00
0a00
1100
1100
2080
2080
7fc0
0000
ENDCHAR
STARTCHAR 2625
ENCODING 9765
SWIDTH 960 0
DWIDTH 12 0
BBX 12 10 0 -1
BITMAP
7f80
2080
2000
2200
3e00
2200
2000
2080
7f80
0000
ENDCHAR
STARTCHAR 2626
ENCODING 9766
SWIDTH 960 0
DWIDTH 12 0
BBX 12 10 0 -1
BITMAP
3f80
2080
0100
0200
0400
0800
1000
2080
3f80
0000
ENDCHAR
STARTCHAR 2627
ENCODING 9767
SWIDTH 960 0
DWIDTH 12 0
BBX 12 10 0 -1
BITMAP
71c0
2080
2080
2080
3f80
2080
2080
2080
71c0
0000
ENDCHAR
STARTCHAR 2628
ENCODING 9768
SWIDTH 960 0
DWIDTH 12 0
BBX 12 10 0 -1
BITMAP
1f00
2080
4040
5140
5f40
5140
4040
2080
1f00
0000
ENDCHAR
STARTCHAR 2629
ENCODING 9769
SWIDTH 960 0
DWIDTH 12 0
BBX 12 10 0 -1
BITMAP
1f00
0400
0400
0400
0400
0400
0400
0400
1f00
0000
ENDCHAR
STARTCHAR 262a
ENCODING 9770
SWIDTH 960 0
DWIDTH 12 0
BBX 12 10 0 -1
BITMAP
71c0
2100
2200
2400
2c00
3200
2100
2080
71c0
0000
ENDCHAR
STARTCHAR 262b
ENCODING 9771
SWIDTH 960 0
DWIDTH 12 0
BBX 12 10 0 -1
BITMAP
0400
0400
0a00
0a00
1100
1100
2080
2080
71c0
0000
ENDCHAR
STARTCHAR 262c
ENCODING 9772
SWIDTH 960 0
DWIDTH 12 0
BBX 12 10 0 -1
BITMAP
71c0
2080
3180
3180
2a80
2a80
2480
2480
71c0
0000
ENDCHAR
STARTCHAR 262d
ENCODING 9773
SWIDTH 960 0
DWIDTH 12 0
BBX 12 10 0 -1
BITMAP
71c0
2080
3080
2880
2480
2280
2180
2080
71c0
0000
ENDCHAR
STARTCHAR 262e
ENCODING 9774
SWIDTH 960 0
DWIDTH 12 0
BBX 12 10 0 -1
BITMAP
3f80
2080
0000
1100
1f00
1100
0000
2080
3f80
0000
ENDCHAR
STARTCHAR 262f
ENCODING 9775
SWIDTH 960 0
DWIDTH 12 0
BBX 12 10 0 -1
BITMAP
1f00
2080
2080
2080
2080
2080
2080
2080
1f00
0000
ENDCHAR
STARTCHAR 2630
ENCODING 9776
SWIDTH 960 0
DWIDTH 12 0
BBX 12 10 0 -1
BITMAP
7fc0
2080
2080
2080
2080
2080
2080
2080
71c0
0000
ENDCHAR
STARTCHAR 2631
ENCODING 9777
SWIDTH 960 0
DWIDTH 12 0
BBX 12 10 0 -1
BITMAP
7f00
2080
2080
2080
3f00
2000
2000
2000
7000
0000
ENDCHAR
STARTCHAR 2632
ENCODING 9778
SWIDTH 960 0
DWIDTH 12 0
BBX 12 10 0 -1
BITMAP
7f80
2080
1000
0800
0400
0800
1000
2080
7f80
0000
ENDCHAR
STARTCHAR 2633
ENCODING 9779
SWIDTH 960 0
DWIDTH 12 0
BBX 12 10 0 -1
BITMAP
7fc0
4440
0400
0400
0400
0400
0400
0400
0e00
0000
ENDCHAR
STARTCHAR 2634
ENCODING 9780
SWIDTH 960 0
DWIDTH 12 0
BBX 12 10 0 -1
BITMAP
3180
4a40
4440
0400
0400
0400
0400
0400
0e00
0000
ENDCHAR
STARTCHAR 2635
ENCODING 9781
SWIDTH 960 0
DWIDTH 12 0
BBX 12 10 0 -1
BITMAP
0e00
0400
1f00
2480
2480
2480
1f00
0400
0e00
0000
ENDCHAR
STARTCHAR 2636
ENCODING 9782
SWIDTH 960 0
DWIDTH 12 0
BBX 12 10 0 -1
BITMAP
71c0
2080
1100
0a00
0400
0a00
1100
2080
71c0
0000
ENDCHAR
STARTCHAR 2637
ENCODING 9783
SWIDTH 960 0
DWIDTH 12 0
BBX 12 10 0 -1
BITMAP
0e00
4440
2480
2480
2480
1500
0e00
0400
0e00
0000
ENDCHAR
STARTCHAR 2638
ENCODING 9784
SWIDTH 960 0
DWIDTH 12 0
BBX 12 10 0 -1
BITMAP
0e00
1100
2080
2080
2080
1100
0a00
4a40
7bc0
0000
ENDCHAR
STARTCHAR 2641
ENCODING 9793
SWIDTH 960 0
DWIDTH 12 0
BBX 12 10 0 -1
BITMAP
0000
0000
0080
0e80
1100
2100
2100
2300
1cc0
0000
ENDCHAR
STARTCHAR 2642
ENCODING 9794
SWIDTH 960 0
DWIDTH 12 0
BBX 12 10 0 -1
BITMAP
0700
0880
1080
1080
2700
2100
2080
5080
4f00
0000
ENDCHAR
STARTCHAR 2643
ENCODING 9795
SWIDTH 960 0
DWIDTH 12 0
BBX 12 10 0 -1
BITMAP
0000
0000
0000
31c0
4a00
0400
0400
0c00
0800
0000
ENDCHAR
STARTCHAR 2644
ENCODING 9796
SWIDTH 960 0
DWIDTH 12 0
BBX 12 10 0 -1
BITMAP
0600
0900
0880
0c00
1200
2100
2100
2200
1c00
0000
ENDCHAR
STARTCHAR 2645
ENCODING 9797
SWIDTH 960 0
DWIDTH 12 0
BBX 12 10 0 -1
BITMAP
0000
0000
0f00
1080
1000
1f00
2000
2080
1f00
0000
ENDCHAR
STARTCHAR 2646
ENCODING 9798
SWIDTH 960 0
DWIDTH 12 0
BBX 12 10 0 -1
BITMAP
1000
1180
0f00
0800
1000
2000
2000
1f00
0080
0300
ENDCHAR
STARTCHAR 2647
ENCODING 9799
SWIDTH 960 0
DWIDTH 12 0
BBX 12 10 0 -1
BITMAP
0000
0000
0000
2700
5880
1080
2100
2100
0200
0200
ENDCHAR
STARTCHAR 2648
ENCODING 9800
SWIDTH 960 0
DWIDTH 12 0
BBX 12 10 0 -1
BITMAP
0700
0880
1080
1080
3f80
2100
2100
2200
1c00
0000
ENDCHAR
STARTCHAR 2649
ENCODING 9801
SWIDTH 960 0
DWIDTH 12 0
BBX 12 10 0 -1
BITMAP
0000
0000
0000
0800
0800
1000
1000
1100
0e00
0000
ENDCHAR
STARTCHAR 264a
ENCODING 9802
SWIDTH 960 0
DWIDTH 12 0
BBX 12 10 0 -1
BITMAP
0000
0000
0000
1180
1600
1800
2400
2480
4300
0000
ENDCHAR
STARTCHAR 264b
ENCODING 9803
SWIDTH 960 0
DWIDTH 12 0
BBX 12 10 0 -1
BITMAP
1800
0400
0400
0400
0c00
1400
1400
2200
2180
0000
ENDCHAR
STARTCHAR 264c
ENCODING 9804
SWIDTH 960 0
DWIDTH 12 0
BBX 12 10 0 -1
BITMAP
0000
0000
0000
1100
1100
1100
2200
3200
4d80
4000
ENDCHAR
STARTCHAR 264d
ENCODING 9805
SWIDTH 960 0
DWIDTH 12 0
BBX 12 10 0 -1
BITMAP
0000
0000
0000
3080
1080
1100
1200
1c00
3000
0000
ENDCHAR
STARTCHAR 264e
ENCODING 9806
SWIDTH 960 0
DWIDTH 12 0
BBX 12 10 0 -1
BITMAP
1000
1380
0c00
1000
1f00
2000
2000
1f00
0080
0300
ENDCHAR
STARTCHAR 264f
ENCODING 9807
SWIDTH 960 0
DWIDTH 12 0
BBX 12 10 0 -1
BITMAP
0000
0000
0000
0f00
1080
2080
2080
2100
1e00
0000
ENDCHAR
STARTCHAR 2650
ENCODING 9808
SWIDTH 960 0
DWIDTH 12 0
BBX 12 10 0 -1
BITMAP
0000
0000
0040
3f80
4900
0a00
1200
1200
6180
0000
ENDCHAR
STARTCHAR 2651
ENCODING 9809
SWIDTH 960 0
DWIDTH 12 0
BBX 12 10 0 -1
BITMAP
0000
0000
0000
0f00
1080
2080
2080
3100
4e00
4000
ENDCHAR
STARTCHAR 2652
ENCODING 9810
SWIDTH 960 0
DWIDTH 12 0
BBX 12 10 0 -1
BITMAP
0000
0000
0020
0fc0
1100
2080
2080
2100
1e00
0000
ENDCHAR
STARTCHAR 2653
ENCODING 9811
SWIDTH 960 0
DWIDTH 12 0
BBX 12 10 0 -1
BITMAP
0000
0000
0080
3f00
4800
1000
1000
1200
0c00
0000
ENDCHAR
STARTCHAR 2654
ENCODING 9812
SWIDTH 960 0
DWIDTH 12 0
BBX 12 10 0 -1
BITMAP
0000
0000
0000
3100
1080
2080
2100
2200
1c00
0000
ENDCHAR
STARTCHAR 2655
ENCODING 9813
SWIDTH 960 0
DWIDTH 12 0
BBX 12 10 0 -1
BITMAP
0200
0200
0200
1f00
2480
2480
2480
1f00
0800
0800
ENDCHAR
STARTCHAR 2656
ENCODING 9814
SWIDTH 960 0
DWIDTH 12 0
BBX 12 10 0 -1
BITMAP
0000
1800
2480
0500
0600
0400
0c00
1480
2300
0000
ENDCHAR
STARTCHAR 2657
ENCODING 9815
SWIDTH 960 0
DWIDTH 12 0
BBX 12 10 0 -1
BITMAP
0200
0200
0200
3500
5480
2480
2500
1e00
0800
0800
ENDCHAR
STARTCHAR 2658
ENCODING 9816
SWIDTH 960 0
DWIDTH 12 0
BBX 12 10 0 -1
BITMAP
0000
0000
0000
1100
2480
4480
4880
4900
3600
0000
ENDCHAR
STARTCHAR 2721
ENCODING 10017
SWIDTH 960 0
DWIDTH 12 0
BBX 12 10 0 -1
BITMAP
0400
0400
0a00
0a00
1100
1f00
2080
2080
71c0
0000
ENDCHAR
STARTCHAR 2722
ENCODING 10018
SWIDTH 960 0
DWIDTH 12 0
BBX 12 10 0 -1
BITMAP
7f00
2100
2080
2000
3f00
2080
2080
2080
7f00
0000
ENDCHAR
STARTCHAR 2723
ENCODING 10019
SWIDTH 960 0
DWIDTH 12 0
BBX 12 10 0 -1
BITMAP
7f00
2080
2080
2080
3f00
2080
2080
2080
7f00
0000
ENDCHAR
STARTCHAR 2724
ENCODING 10020
SWIDTH 960 0
DWIDTH 12 0
BBX 12 10 0 -1
BITMAP
3f80
1080
1040
1000
1000
1000
1000
1000
3800
0000
ENDCHAR
STARTCHAR 2725
ENCODING 10021
SWIDTH 960 0
DWIDTH 12 0
BBX 12 10 0 -1
BITMAP
3f80
1100
1100
1100
1100
1100
2100
2100
3fc0
4040
ENDCHAR
STARTCHAR 2726
ENCODING 10022
SWIDTH 960 0
DWIDTH 12 0
BBX 12 10 0 -1
BITMAP
7f80
2080
2000
2200
3e00
2200
2000
2080
7f80
0000
ENDCHAR
STARTCHAR 2727
ENCODING 10023
SWIDTH 960 0
DWIDTH 12 0
BBX 12 10 0 -1
BITMAP
1b00
7f80
2080
2200
3e00
2200
2000
2080
7f80
0000
ENDCHAR
STARTCHAR 2728
ENCODING 10024
SWIDTH 960 0
DWIDTH 12 0
BBX 12 10 0 -1
BITMAP
6ec0
2480
2480
1500
0e00
1500
2480
4440
4e40
0000
ENDCHAR
STARTCHAR 2729
ENCODING 10025
SWIDTH 960 0
DWIDTH 12 0
BBX 12 10 0 -1
BITMAP
1f00
2080
0080
0100
0e00
0100
0080
2080
1f00
0000
ENDCHAR
STARTCHAR 272a
ENCODING 10026
SWIDTH 960 0
DWIDTH 12 0
BBX 12 10 0 -1
BITMAP
71c0
2080
2180
2280
2480
2880
3080
2080
71c0
0000
ENDCHAR
STARTCHAR 272b
ENCODING 10027
SWIDTH 960 0
DWIDTH 12 0
BBX 12 10 0 -1
BITMAP
1b00
6ec0
2180
2280
2480
2880
3080
2080
71c0
0000
ENDCHAR
STARTCHAR 272c
ENCODING 10028
SWIDTH 960 0
DWIDTH 12 0
BBX 12 10 0 -1
BITMAP
71c0
2200
2200
2400
3c00
2200
2100
2080
71c0
0000
ENDCHAR
STARTCHAR 272d
ENCODING 10029
SWIDTH 960 0
DWIDTH 12 0
BBX 12 10 0 -1
BITMAP
3f80
1100
1100
1100
1100
1100
a100
a100
4380
0000
ENDCHAR
STARTCHAR 272e
ENCODING 10030
SWIDTH 960 0
DWIDTH 12 0
BBX 12 10 0 -1
BITMAP
71c0
2080
3180
3180
2a80
2a80
2480
2480
71c0
0000
ENDCHAR
STARTCHAR 272f
ENCODING 10031
SWIDTH 960 0
DWIDTH 12 0
BBX 12 10 0 -1
BITMAP
71c0
2080
2080
2080
3f80
2080
2080
2080
71c0
0000
ENDCHAR
STARTCHAR 2730
ENCODING 10032
SWIDTH 960 0
DWIDTH 12 0
BBX 12 10 0 -1
BITMAP
1f00
2080
2080
2080
2080
2080
2080
2080
1f00
0000
ENDCHAR
STARTCHAR 2731
ENCODING 10033
SWIDTH 960 0
DWIDTH 12 0
BBX 12 10 0 -1
BITMAP
7fc0
2080
2080
2080
2080
2080
2080
2080
71c0
0000
ENDCHAR
STARTCHAR 2732
ENCODING 10034
SWIDTH 960 0
DWIDTH 12 0
BBX 12 10 0 -1
BITMAP
7f00
2080
2080
2080
3f00
2000
2000
2000
7000
0000
ENDCHAR
STARTCHAR 2733
ENCODING 10035
SWIDTH 960 0
DWIDTH 12 0
BBX 12 10 0 -1
BITMAP
0f00
1080
2000
2000
2000
2000
2040
10c0
0f00
0000
ENDCHAR
STARTCHAR 2734
ENCODING 10036
SWIDTH 960 0
DWIDTH 12 0
BBX 12 10 0 -1
BITMAP
7fc0
4440
0400
0400
0400
0400
0400
0400
0e00
0000
ENDCHAR
STARTCHAR 2735
ENCODING 10037
SWIDTH 960 0
DWIDTH 12 0
BBX 12 10 0 -1
BITMAP
71c0
2080
1100
1100
0a00
0a00
0400
0400
6800
3000
ENDCHAR
STARTCHAR 2736
ENCODING 10038
SWIDTH 960 0
DWIDTH 12 0
BBX 12 10 0 -1
BITMAP
0e00
0400
1f00
2480
2480
2480
1f00
0400
0e00
0000
ENDCHAR
STARTCHAR 2737
ENCODING 10039
SWIDTH 960 0
DWIDTH 12 0
BBX 12 10 0 -1
BITMAP
71c0
2080
1100
0a00
0400
0a00
1100
2080
71c0
0000
ENDCHAR
STARTCHAR 2738
ENCODING 10040
SWIDTH 960 0
DWIDTH 12 0
BBX 12 10 0 -1
BITMAP
7380
2100
2100
2100
2100
2100
2100
2100
7f80
00c0
ENDCHAR
STARTCHAR 2739
ENCODING 10041
SWIDTH 960 0
DWIDTH 12 0
BBX 12 10 0 -1
BITMAP
71c0
2080
2080
2080
2080
1f80
0080
0080
01c0
0000
ENDCHAR
STARTCHAR 273a
ENCODING 10042
SWIDTH 960 0
DWIDTH 12 0
BBX 12 10 0 -1
BITMAP
6ec0
2480
2480
2480
2480
2480
2480
2480
7fc0
0000
ENDCHAR
STARTCHAR 273b
ENCODING 10043
SWIDTH 960 0
DWIDTH 12 0
BBX 12 10 0 -1
BITMAP
6ec0
2480
2480
2480
2480
2480
2480
2480
7fc0
0060
ENDCHAR
STARTCHAR 273c
ENCODING 10044
SWIDTH 960 0
DWIDTH 12 0
BBX 12 10 0 -1
BITMAP
7000
5000
9000
1e00
1100
1080
1080
1100
3e00
0000
ENDCHAR
STARTCHAR 273d
ENCODING 10045
SWIDTH 960 0
DWIDTH 12 0
BBX 12 10 0 -1
BITMAP
71c0
2080
2080
3c80
2280
2180
2180
2280
7dc0
0000
ENDCHAR
STARTCHAR 273e
ENCODING 10046
SWIDTH 960 0
DWIDTH 12 0
BBX 12 10 0 -1
BITMAP
7000
2000
2000
3e00
2100
2080
2080
2100
7e00
0000
ENDCHAR
STARTCHAR 273f
ENCODING 10047
SWIDTH 960 0
DWIDTH 12 0
BBX 12 10 0 -1
BITMAP
1e00
2100
4080
0e80
1180
0080
4080
2100
1e00
0000
ENDCHAR
STARTCHAR 2740
ENCODING 10048
SWIDTH 960 0
DWIDTH 12 0
BBX 12 10 0 -1
BITMAP
7300
2480
2840
2840
3840
2840
2840
2480
7300
0000
ENDCHAR
STARTCHAR 2741
ENCODING 10049
SWIDTH 960 0
DWIDTH 12 0
BBX 12 10 0 -1
BITMAP
1fc0
2080
2080
2080
1f80
0880
1080
2080
71c0
0000
ENDCHAR
STARTCHAR 2751
ENCODING 10065
SWIDTH 960 0
DWIDTH 12 0
BBX 12 10 0 -1
BITMAP
0000
0000
0000
1f00
0080
1f80
2080
2080
1f40
0000
ENDCHAR
STARTCHAR 2752
ENCODING 10066
SWIDTH 960 0
DWIDTH 12 0
BBX 12 10 0 -1
BITMAP
0100
1e00
2000
3e00
2100
2100
2100
1100
0e00
0000
ENDCHAR
STARTCHAR 2753
ENCODING 10067
SWIDTH 960 0
DWIDTH 12 0
BBX 12 10 0 -1
BITMAP
0000
0000
0000
7e00
2100
3f00
2080
2080
7f00
0000
ENDCHAR
STARTCHAR 2754
ENCODING 10068
SWIDTH 960 0
DWIDTH 12 0
BBX 12 10 0 -1
BITMAP
0000
0000
0000
3f00
1100
1080
1000
1000
3800
0000
ENDCHAR
STARTCHAR 2755
ENCODING 10069
SWIDTH 960 0
DWIDTH 12 0
BBX 12 10 0 -1
BITMAP
0000
0000
0000
3f80
1100
1100
1100
2100
3f80
4080
ENDCHAR
STARTCHAR 2756
ENCODING 10070
SWIDTH 960 0
DWIDTH 12 0
BBX 12 10 0 -1
BITMAP
0000
0000
0000
1f00
2080
3f80
2000
2080
1f00
0000
ENDCHAR
STARTCHAR 2757
ENCODING 10071
SWIDTH 960 0
DWIDTH 12 0
BBX 12 10 0 -1
BITMAP
0000
1b00
0000
1f00
2080
3f80
2000
2080
1f00
0000
ENDCHAR
STARTCHAR 2758
ENCODING 10072
SWIDTH 960 0
DWIDTH 12 0
BBX 12 10 0 -1
BITMAP
0000
0000
0000
6ec0
1500
1f00
1500
2480
2e80
0000
ENDCHAR
STARTCHAR 2759
ENCODING 10073
SWIDTH 960 0
DWIDTH 12 0
BBX 12 10 0 -1
BITMAP
0000
0000
0000
1f00
2080
0f00
0080
2080
1f00
0000
ENDCHAR
STARTCHAR 275a
ENCODING 10074
SWIDTH 960 0
DWIDTH 12 0
BBX 12 10 0 -1
BITMAP
0000
0000
0000
71c0
2280
2480
2880
3080
71c0
0000
ENDCHAR
STARTCHAR 275b
ENCODING 10075
SWIDTH 960 0
DWIDTH 12 0
BBX 12 10 0 -1
BITMAP
0000
1b00
0e00
71c0
2280
2480
2880
3080
71c0
0000
ENDCHAR
STARTCHAR 275c
ENCODING 10076
SWIDTH 960 0
DWIDTH 12 0
BBX 12 10 0 -1
BITMAP
0000
0000
0000
7380
2400
3c00
2200
2100
71c0
0000
ENDCHAR
STARTCHAR 275d
ENCODING 10077
SWIDTH 960 0
DWIDTH 12 0
BBX 12 10 0 -1
BITMAP
0000
0000
0000
3f80
1100
1100
1100
a100
4380
0000
ENDCHAR
STARTCHAR 275e
ENCODING 10078
SWIDTH 960 0
DWIDTH 12 0
BBX 12 10 0 -1
BITMAP
0000
0000
0000
71c0
3180
2a80
2480
2480
71c0
0000
ENDCHAR
STARTCHAR 275f
ENCODING 10079
SWIDTH 960 0
DWIDTH 12 0
BBX 12 10 0 -1
BITMAP
0000
0000
0000
71c0
2080
3f80
2080
2080
71c0
0000
ENDCHAR
STARTCHAR 2760
ENCODING 10080
SWIDTH 960 0
DWIDTH 12 0
BBX 12 10 0 -1
BITMAP
0000
0000
0000
1f00
2080
2080
2080
2080
1f00
0000
ENDCHAR
STARTCHAR 2761
ENCODING 10081
SWIDTH 960 0
DWIDTH 12 0
BBX 12 10 0 -1
BITMAP
0000
0000
0000
7f80
2100
2100
2100
2100
7380
0000
ENDCHAR
STARTCHAR 2762
ENCODING 10082
SWIDTH 960 0
DWIDTH 12 0
BBX 12 10 0 -1
BITMAP
0000
0000
0000
6f00
3080
2080
3080
2f00
2000
7000
ENDCHAR
STARTCHAR 2763
ENCODING 10083
SWIDTH 960 0
DWIDTH 12 0
BBX 12 10 0 -1
BITMAP
0000
0000
0000
1f00
2080
2000
2000
20c0
1f80
0000
ENDCHAR
STARTCHAR 2764
ENCODING 10084
SWIDTH 960 0
DWIDTH 12 0
BBX 12 10 0 -1
BITMAP
0000
0000
0000
7fc0
4440
0400
0400
0400
0e00
0000
ENDCHAR
STARTCHAR 2765
ENCODING 10085
SWIDTH 960 0
DWIDTH 12 0
BBX 12 10 0 -1
BITMAP
0000
0000
0000
71c0
2080
1100
0a00
0400
6800
3000
ENDCHAR
STARTCHAR 2766
ENCODING 10086
SWIDTH 960 0
DWIDTH 12 0
BBX 12 10 0 -1
BITMAP
0400
0400
1500
2e80
2480
2480
2e80
1500
0400
0e00
ENDCHAR
STARTCHAR 2767
ENCODING 10087
SWIDTH 960 0
DWIDTH 12 0
BBX 12 10 0 -1
BITMAP
0000
0000
0000
71c0
1100
0e00
1100
2080
71c0
0000
ENDCHAR
STARTCHAR 2768
ENCODING 10088
SWIDTH 960 0
DWIDTH 12 0
BBX 12 10 0 -1
BITMAP
0000
0000
0000
7380
2100
2100
2100
2100
3f80
00c0
ENDCHAR
STARTCHAR 2769
ENCODING 10089
SWIDTH 960 0
DWIDTH 12 0
BBX 12 10 0 -1
BITMAP
0000
0000
0000
71c0
2080
2080
1f80
0080
01c0
0000
ENDCHAR
STARTCHAR 276a
ENCODING 10090
SWIDTH 960 0
DWIDTH 12 0
BBX 12 10 0 -1
BITMAP
0000
0000
0000
6ec0
2480
2480
2480
2480
7fc0
0000
ENDCHAR
STARTCHAR 276b
ENCODING 10091
SWIDTH 960 0
DWIDTH 12 0
BBX 12 10 0 -1
BITMAP
0000
0000
0000
6ec0
2480
2480
2480
2480
7fc0
0060
ENDCHAR
STARTCHAR 276c
ENCODING 10092
SWIDTH 960 0
DWIDTH 12 0
BBX 12 10 0 -1
BITMAP
0000
0000
0000
7000
5000
9f00
1080
1080
3f00
0000
ENDCHAR
STARTCHAR 276d
ENCODING 10093
SWIDTH 960 0
DWIDTH 12 0
BBX 12 10 0 -1
BITMAP
0000
0000
0000
71c0
2080
3e80
2180
2280
7dc0
0000
ENDCHAR
STARTCHAR 276e
ENCODING 10094
SWIDTH 960 0
DWIDTH 12 0
BBX 12 10 0 -1
BITMAP
0000
0000
0000
7000
2000
3f00
2080
2080
7f00
0000
ENDCHAR
STARTCHAR 276f
ENCODING 10095
SWIDTH 960 0
DWIDTH 12 0
BBX 12 10 0 -1
BITMAP
0000
0000
0000
1f00
2080
0680
0980
6080
3f00
0000
ENDCHAR
STARTCHAR 2770
ENCODING 10096
SWIDTH 960 0
DWIDTH 12 0
BBX 12 10 0 -1
BITMAP
0000
0000
0000
7300
2480
3840
2840
2480
7300
0000
ENDCHAR
STARTCHAR 2771
ENCODING 10097
SWIDTH 960 0
DWIDTH 12 0
BBX 12 10 0 -1
BITMAP
0000
0000
0000
1fc0
2080
1080
0f80
1080
21c0
0000
ENDCHAR
STARTCHAR 2821
ENCODING 10273
SWIDTH 960 0
DWIDTH 12 0
BBX 12 10 0 -1
BITMAP
0000
0000
0000
0000
fff0
0000
0000
0000
0000
0000
ENDCHAR
STARTCHAR 2822
ENCODING 10274
SWIDTH 960 0
DWIDTH 12 0
BBX 12 10 0 -1
BITMAP
0400
0400
0400
0400
0400
0400
0400
0400
0400
0400
ENDCHAR
STARTCHAR 2823
ENCODING 10275
SWIDTH 960 0
DWIDTH 12 0
BBX 12 10 0 -1
BITMAP
0000
0000
0000
0000
07f0
0400
0400
0400
0400
0400
ENDCHAR
STARTCHAR 2824
ENCODING 10276
SWIDTH 960 0
DWIDTH 12 0
BBX 12 10 0 -1
BITMAP
0000
0000
0000
0000
fc00
0400
0400
0400
0400
0400
ENDCHAR
STARTCHAR 2825
ENCODING 10277
SWIDTH 960 0
DWIDTH 12 0
BBX 12 10 0 -1
BITMAP
0400
0400
0400
0400
fc00
0000
0000
0000
0000
0000
ENDCHAR
STARTCHAR 2826
ENCODING 10278
SWIDTH 960 0
DWIDTH 12 0
BBX 12 10 0 -1
BITMAP
0400
0400
0400
0400
07f0
0000
0000
0000
0000
0000
ENDCHAR
STARTCHAR 2827
ENCODING 10279
SWIDTH 960 0
DWIDTH 12 0
BBX 12 10 0 -1
BITMAP
0400
0400
0400
0400
07f0
0400
0400
0400
0400
0400
ENDCHAR
STARTCHAR 2828
ENCODING 10280
SWIDTH 960 0
DWIDTH 12 0
BBX 12 10 0 -1
BITMAP
0000
0000
0000
0000
fff0
0400
0400
0400
0400
0400
ENDCHAR
STARTCHAR 2829
ENCODING 10281
SWIDTH 960 0
DWIDTH 12 0
BBX 12 10 0 -1
BITMAP
0400
0400
0400
0400
fc00
0400
0400
0400
0400
0400
ENDCHAR
STARTCHAR 282a
ENCODING 10282
SWIDTH 960 0
DWIDTH 12 0
BBX 12 10 0 -1
BITMAP
0400
0400
0400
0400
fff0
0000
0000
0000
0000
0000
ENDCHAR
STARTCHAR 282b
ENCODING 10283
SWIDTH 960 0
DWIDTH 12 0
BBX 12 10 0 -1
BITMAP
0400
0400
0400
0400
fff0
0400
0400
0400
0400
0400
ENDCHAR
STARTCHAR 282c
ENCODING 10284
SWIDTH 960 0
DWIDTH 12 0
BBX 12 10 0 -1
BITMAP
0000
0000
0000
0000
fff0
fff0
0000
0000
0000
0000
ENDCHAR
STARTCHAR 282d
ENCODING 10285
SWIDTH 960 0
DWIDTH 12 0
BBX 12 10 0 -1
BITMAP
0600
0600
0600
0600
0600
0600
0600
0600
0600
0600
ENDCHAR
STARTCHAR 282e
ENCODING 10286
SWIDTH 960 0
DWIDTH 12 0
BBX 12 10 0 -1
BITMAP
0000
0000
0000
0000
07f0
07f0
0600
0600
0600
0600
ENDCHAR
STARTCHAR 282f
ENCODING 10287
SWIDTH 960 0
DWIDTH 12 0
BBX 12 10 0 -1
BITMAP
0000
0000
0000
0000
fe00
fe00
0600
0600
0600
0600
ENDCHAR
STARTCHAR 2830
ENCODING 10288
SWIDTH 960 0
DWIDTH 12 0
BBX 12 10 0 -1
BITMAP
0600
0600
0600
0600
fe00
fe00
0000
0000
0000
0000
ENDCHAR
STARTCHAR 2831
ENCODING 10289
SWIDTH 960 0
DWIDTH 12 0
BBX 12 10 0 -1
BITMAP
0600
0600
0600
0600
07f0
07f0
0000
0000
0000
0000
ENDCHAR
STARTCHAR 2832
ENCODING 10290
SWIDTH 960 0
DWIDTH 12 0
BBX 12 10 0 -1
BITMAP
0600
0600
0600
0600
07f0
07f0
0600
0600
0600
0600
ENDCHAR
STARTCHAR 2833
ENCODING 10291
SWIDTH 960 0
DWIDTH 12 0
BBX 12 10 0 -1
BITMAP
0000
0000
0000
0000
fff0
fff0
0600
0600
0600
0600
ENDCHAR
STARTCHAR 2834
ENCODING 10292
SWIDTH 960 0
DWIDTH 12 0
BBX 12 10 0 -1
BITMAP
0600
0600
0600
0600
fe00
fe00
0600
0600
0600
0600
ENDCHAR
STARTCHAR 2835
ENCODING 10293
SWIDTH 960 0
DWIDTH 12 0
BBX 12 10 0 -1
BITMAP
0600
0600
0600
0600
fff0
fff0
0000
0000
0000
0000
ENDCHAR
STARTCHAR 2836
ENCODING 10294
SWIDTH 960 0
DWIDTH 12 0
BBX 12 10 0 -1
BITMAP
0600
0600
0600
0600
fff0
fff0
0600
0600
0600
0600
ENDCHAR
STARTCHAR 2837
ENCODING 10295
SWIDTH 960 0
DWIDTH 12 0
BBX 12 10 0 -1
BITMAP
0600
0600
0600
0600
07f0
0600
0600
0600
0600
0600
ENDCHAR
STARTCHAR 2838
ENCODING 10296
SWIDTH 960 0
DWIDTH 12 0
BBX 12 10 0 -1
BITMAP
0000
0000
0000
0000
fff0
fff0
0400
0400
0400
0400
ENDCHAR
STARTCHAR 2839
ENCODING 10297
SWIDTH 960 0
DWIDTH 12 0
BBX 12 10 0 -1
BITMAP
0600
0600
0600
0600
fe00
0600
0600
0600
0600
0600
ENDCHAR
STARTCHAR 283a
ENCODING 10298
SWIDTH 960 0
DWIDTH 12 0
BBX 12 10 0 -1
BITMAP
0400
0400
0400
0400
fff0
fff0
0000
0000
0000
0000
ENDCHAR
STARTCHAR 283b
ENCODING 10299
SWIDTH 960 0
DWIDTH 12 0
BBX 12 10 0 -1
BITMAP
0400
0400
0400
0400
fff0
fff0
0400
0400
0400
0400
ENDCHAR
STARTCHAR 283c
ENCODING 10300
SWIDTH 960 0
DWIDTH 12 0
BBX 12 10 0 -1
BITMAP
0400
0400
0400
0400
07f0
07f0
0400
0400
0400
0400
ENDCHAR
STARTCHAR 283d
ENCODING 10301
SWIDTH 960 0
DWIDTH 12 0
BBX 12 10 0 -1
BITMAP
0000
0000
0000
0000
fff0
0600
0600
0600
0600
0600
ENDCHAR
STARTCHAR 283e
ENCODING 10302
SWIDTH 960 0
DWIDTH 12 0
BBX 12 10 0 -1
BITMAP
0400
0400
0400
0400
fc00
fc00
0400
0400
0400
0400
ENDCHAR
STARTCHAR 283f
ENCODING 10303
SWIDTH 960 0
DWIDTH 12 0
BBX 12 10 0 -1
BITMAP
0600
0600
0600
0600
fff0
0000
0000
0000
0000
0000
ENDCHAR
STARTCHAR 2840
ENCODING 10304
SWIDTH 960 0
DWIDTH 12 0
BBX 12 10 0 -1
BITMAP
0600
0600
0600
0600
fff0
0600
0600
0600
0600
0600
ENDCHAR
STARTCHAR 2d21
ENCODING 11553
SWIDTH 960 0
DWIDTH 12 0
BBX 12 10 0 -1
BITMAP
3f80
4040
8c20
8420
8420
8420
8420
4040
3f80
0000
ENDCHAR
STARTCHAR 2d22
ENCODING 11554
SWIDTH 960 0
DWIDTH 12 0
BBX 12 10 0 -1
BITMAP
3f80
4040
9e20
8120
8e20
9020
9f20
4040
3f80
0000
ENDCHAR
STARTCHAR 2d23
ENCODING 11555
SWIDTH 960 0
DWIDTH 12 0
BBX 12 10 0 -1
BITMAP
3f80
4040
9e20
8120
8e20
8120
9e20
4040
3f80
0000
ENDCHAR
STARTCHAR 2d24
ENCODING 11556
SWIDTH 960 0
DWIDTH 12 0
BBX 12 10 0 -1
BITMAP
3f80
4040
8620
8a20
9220
9f20
8220
4040
3f80
0000
ENDCHAR
STARTCHAR 2d25
ENCODING 11557
SWIDTH 960 0
DWIDTH 12 0
BBX 12 10 0 -1
BITMAP
3f80
4040
9f20
9020
9e20
8120
9e20
4040
3f80
0000
ENDCHAR
STARTCHAR 2d26
ENCODING 11558
SWIDTH 960 0
DWIDTH 12 0
BBX 12 10 0 -1
BITMAP
3f80
4040
8e20
9020
9e20
9120
8e20
4040
3f80
0000
ENDCHAR
STARTCHAR 2d27
ENCODING 11559
SWIDTH 960 0
DWIDTH 12 0
BBX 12 10 0 -1
BITMAP
3f80
4040
9f20
9120
8220
8420
8420
4040
3f80
0000
ENDCHAR
STARTCHAR 2d28
ENCODING 11560
SWIDTH 960 0
DWIDTH 12 0
BBX 12 10 0 -1
BITMAP
3f80
4040
8e20
9120
8e20
9120
8e20
4040
3f80
0000
ENDCHAR
STARTCHAR 2d29
ENCODING 11561
SWIDTH 960 0
DWIDTH 12 0
BBX 12 10 0 -1
BITMAP
3f80
4040
8e20
9120
8f20
8120
9e20
4040
3f80
0000
ENDCHAR
STARTCHAR 2d2a
ENCODING 11562
SWIDTH 960 0
DWIDTH 12 0
BBX 12 10 0 -1
BITMAP
3f80
4040
b320
94a0
94a0
94a0
9320
4040
3f80
0000
ENDCHAR
STARTCHAR 2d2b
ENCODING 11563
SWIDTH 960 0
DWIDTH 12 0
BBX 12 10 0 -1
BITMAP
3f80
4040
b320
9120
9120
9120
9120
4040
3f80
0000
ENDCHAR
STARTCHAR 2d2c
ENCODING 11564
SWIDTH 960 0
DWIDTH 12 0
BBX 12 10 0 -1
BITMAP
3f80
4040
b720
90a0
9320
9420
97a0
4040
3f80
0000
ENDCHAR
STARTCHAR 2d2d
ENCODING 11565
SWIDTH 960 0
DWIDTH 12 0
BBX 12 10 0 -1
BITMAP
3f80
4040
b720
90a0
9720
90a0
9720
4040
3f80
0000
ENDCHAR
STARTCHAR 2d2e
ENCODING 11566
SWIDTH 960 0
DWIDTH 12 0
BBX 12 10 0 -1
BITMAP
3f80
4040
b120
9320
9520
97a0
9120
4040
3f80
0000
ENDCHAR
STARTCHAR 2d2f
ENCODING 11567
SWIDTH 960 0
DWIDTH 12 0
BBX 12 10 0 -1
BITMAP
3f80
4040
b7a0
9420
9720
90a0
9720
4040
3f80
0000
ENDCHAR
STARTCHAR 2d30
ENCODING 11568
SWIDTH 960 0
DWIDTH 12 0
BBX 12 10 0 -1
BITMAP
3f80
4040
b320
9420
9720
94a0
9320
4040
3f80
0000
ENDCHAR
STARTCHAR 2d31
ENCODING 11569
SWIDTH 960 0
DWIDTH 12 0
BBX 12 10 0 -1
BITMAP
3f80
4040
b7a0
94a0
9120
9120
9120
4040
3f80
0000
ENDCHAR
STARTCHAR 2d32
ENCODING 11570
SWIDTH 960 0
DWIDTH 12 0
BBX 12 10 0 -1
BITMAP
3f80
4040
b320
94a0
9320
94a0
9320
4040
3f80
0000
ENDCHAR
STARTCHAR 2d33
ENCODING 11571
SWIDTH 960 0
DWIDTH 12 0
BBX 12 10 0 -1
BITMAP
3f80
4040
b320
94a0
93a0
90a0
9720
4040
3f80
0000
ENDCHAR
STARTCHAR 2d34
ENCODING 11572
SWIDTH 960 0
DWIDTH 12 0
BBX 12 10 0 -1
BITMAP
3f80
4040
b120
8aa0
9aa0
a2a0
b920
4040
3f80
0000
ENDCHAR
STARTCHAR 2d35
ENCODING 11573
SWIDTH 960 0
DWIDTH 12 0
BBX 12 10 0 -1
BITMAP
1f00
0400
0400
0400
0400
0400
0400
0400
1f00
0000
ENDCHAR
STARTCHAR 2d36
ENCODING 11574
SWIDTH 960 0
DWIDTH 12 0
BBX 12 10 0 -1
BITMAP
3f80
1100
1100
1100
1100
1100
1100
1100
3f80
0000
ENDCHAR
STARTCHAR 2d37
ENCODING 11575
SWIDTH 960 0
DWIDTH 12 0
BBX 12 10 0 -1
BITMAP
7fc0
2480
2480
2480
2480
2480
2480
2480
7fc0
0000
ENDCHAR
STARTCHAR 2d38
ENCODING 11576
SWIDTH 960 0
DWIDTH 12 0
BBX 12 10 0 -1
BITMAP
f8e0
5040
5040
4880
4880
4500
4500
4200
e200
0000
ENDCHAR
STARTCHAR 2d39
ENCODING 11577
SWIDTH 960 0
DWIDTH 12 0
BBX 12 10 0 -1
BITMAP
71c0
2080
2080
1100
1100
0a00
0a00
0400
0400
0000
ENDCHAR
STARTCHAR 2d3a
ENCODING 11578
SWIDTH 960 0
DWIDTH 12 0
BBX 12 10 0 -1
BITMAP
e3e0
4140
4140
2240
2240
1440
1440
0840
08e0
0000
ENDCHAR
STARTCHAR 2d3b
ENCODING 11579
SWIDTH 960 0
DWIDTH 12 0
BBX 12 10 0 -1
BITMAP
efe0
4540
4540
2940
2940
2940
1140
1140
13e0
0000
ENDCHAR
STARTCHAR 2d3c
ENCODING 11580
SWIDTH 960 0
DWIDTH 12 0
BBX 12 10 0 -1
BITMAP
dfe0
8d40
8d40
5540
5540
5540
2540
2540
2fe0
0000
ENDCHAR
STARTCHAR 2d3d
ENCODING 11581
SWIDTH 960 0
DWIDTH 12 0
BBX 12 10 0 -1
BITMAP
f8e0
5040
4880
4500
4200
4500
4880
5040
f8e0
0000
ENDCHAR
STARTCHAR 2d3e
ENCODING 11582
SWIDTH 960 0
DWIDTH 12 0
BBX 12 10 0 -1
BITMAP
71c0
2080
1100
0a00
0400
0a00
1100
2080
71c0
0000
ENDCHAR
STARTCHAR 2d40
ENCODING 11584
SWIDTH 960 0
DWIDTH 12 0
BBX 12 10 0 -1
BITMAP
6000
1800
6000
1a20
c220
3a20
0020
0040
0180
0000
ENDCHAR
STARTCHAR 2d41
ENCODING 11585
SWIDTH 960 0
DWIDTH 12 0
BBX 12 10 0 -1
BITMAP
2000
fc00
2000
fc00
1000
13e0
0220
0220
03e0
0000
ENDCHAR
STARTCHAR 2d42
ENCODING 11586
SWIDTH 960 0
DWIDTH 12 0
BBX 12 10 0 -1
BITMAP
5a00
e920
4040
3b80
0600
0c00
3f00
0400
0800
0000
ENDCHAR
STARTCHAR 2d43
ENCODING 11587
SWIDTH 960 0
DWIDTH 12 0
BBX 12 10 0 -1
BITMAP
0800
2800
13c0
2800
c000
4280
7280
42a0
44c0
0000
ENDCHAR
STARTCHAR 2d44
ENCODING 11588
SWIDTH 960 0
DWIDTH 12 0
BBX 12 10 0 -1
BITMAP
2ac0
7800
89e0
1020
60c0
0400
0900
1300
1c80
0000
ENDCHAR
STARTCHAR 2d45
ENCODING 11589
SWIDTH 960 0
DWIDTH 12 0
BBX 12 10 0 -1
BITMAP
4000
4000
7000
4800
4200
0120
0020
0040
0380
0000
ENDCHAR
STARTCHAR 2d46
ENCODING 11590
SWIDTH 960 0
DWIDTH 12 0
BBX 12 10 0 -1
BITMAP
fc00
2800
11e0
1000
2000
0a00
0a00
0a80
1300
0000
ENDCHAR
STARTCHAR 2d47
ENCODING 11591
SWIDTH 960 0
DWIDTH 12 0
BBX 12 10 0 -1
BITMAP
61c0
9240
0880
0300
0000
7140
df40
2160
c240
0000
ENDCHAR
STARTCHAR 2d48
ENCODING 11592
SWIDTH 960 0
DWIDTH 12 0
BBX 12 10 0 -1
BITMAP
9000
9000
1540
2480
4100
4280
6280
52a0
44c0
0000
ENDCHAR
STARTCHAR 2d49
ENCODING 11593
SWIDTH 960 0
DWIDTH 12 0
BBX 12 10 0 -1
BITMAP
f800
8800
0aa0
1240
2880
0800
0e00
0900
0800
0000
ENDCHAR
STARTCHAR 2d4a
ENCODING 11594
SWIDTH 960 0
DWIDTH 12 0
BBX 12 10 0 -1
BITMAP
4000
fbc0
4a40
9bc0
0000
4800
4bc0
0800
1000
0000
ENDCHAR
STARTCHAR 2d4b
ENCODING 11595
SWIDTH 960 0
DWIDTH 12 0
BBX 12 10 0 -1
BITMAP
5400
4000
7000
4800
4280
0280
02a0
04a0
04c0
0000
ENDCHAR
STARTCHAR 2d4c
ENCODING 11596
SWIDTH 960 0
DWIDTH 12 0
BBX 12 10 0 -1
BITMAP
5a00
e920
4040
3b80
0000
0800
0e00
0900
0800
0000
ENDCHAR
STARTCHAR 2d4d
ENCODING 11597
SWIDTH 960 0
DWIDTH 12 0
BBX 12 10 0 -1
BITMAP
4c00
5400
89e0
8800
4080
7c80
d1c0
42a0
2c80
0000
ENDCHAR
STARTCHAR 2d4e
ENCODING 11598
SWIDTH 960 0
DWIDTH 12 0
BBX 12 10 0 -1
BITMAP
7a40
7240
8080
7900
1400
a140
af40
9160
9240
0000
ENDCHAR
STARTCHAR 2d4f
ENCODING 11599
SWIDTH 960 0
DWIDTH 12 0
BBX 12 10 0 -1
BITMAP
2c00
5400
89e0
0400
3140
0000
3200
0400
3800
0000
ENDCHAR
STARTCHAR 2d50
ENCODING 11600
SWIDTH 960 0
DWIDTH 12 0
BBX 12 10 0 -1
BITMAP
0000
0000
0000
f7c0
aaa0
aaa0
aaa0
aaa0
aaa0
0000
ENDCHAR
STARTCHAR 2d51
ENCODING 11601
SWIDTH 960 0
DWIDTH 12 0
BBX 12 10 0 -1
BITMAP
0000
0000
0000
77c0
8aa0
82a0
82a0
8aa0
72a0
0000
ENDCHAR
STARTCHAR 2d52
ENCODING 11602
SWIDTH 960 0
DWIDTH 12 0
BBX 12 10 0 -1
BITMAP
8000
8000
8000
8bc0
92a0
a2a0
e2a0
92a0
8aa0
0000
ENDCHAR
STARTCHAR 2d53
ENCODING 11603
SWIDTH 960 0
DWIDTH 12 0
BBX 12 10 0 -1
BITMAP
0000
0000
0000
f1a0
aa40
aa80
a9c0
aa20
aa20
01c0
ENDCHAR
STARTCHAR 2d54
ENCODING 11604
SWIDTH 960 0
DWIDTH 12 0
BBX 12 10 0 -1
BITMAP
8000
8000
8000
89a0
9240
a280
e1c0
9220
8a20
01c0
ENDCHAR
STARTCHAR 2d55
ENCODING 11605
SWIDTH 960 0
DWIDTH 12 0
BBX 12 10 0 -1
BITMAP
0000
0000
0000
71c0
8a20
8200
8200
8a20
71c0
0000
ENDCHAR
STARTCHAR 2d56
ENCODING 11606
SWIDTH 960 0
DWIDTH 12 0
BBX 12 10 0 -1
BITMAP
00c0
0120
0040
fc80
93e0
9200
9200
9200
9200
0000
ENDCHAR
STARTCHAR 2d5f
ENCODING 11615
SWIDTH 960 0
DWIDTH 12 0
BBX 12 10 0 -1
BITMAP
f8a0
27e0
ac80
74a0
27a0
fd40
2540
26a0
2920
0000
ENDCHAR
STARTCHAR 2d60
ENCODING 11616
SWIDTH 960 0
DWIDTH 12 0
BBX 12 10 0 -1
BITMAP
0240
0240
0480
0000
0000
0000
0000
0000
0000
0000
ENDCHAR
STARTCHAR 2d61
ENCODING 11617
SWIDTH 960 0
DWIDTH 12 0
BBX 12 10 0 -1
BITMAP
0000
0000
0000
0000
0000
0000
2400
2400
4800
0000
ENDCHAR
STARTCHAR 2d62
ENCODING 11618
SWIDTH 960 0
DWIDTH 12 0
BBX 12 10 0 -1
BITMAP
8800
8800
c800
c980
aa40
9a40
9a40
8a60
89a0
0000
ENDCHAR
STARTCHAR 2d63
ENCODING 11619
SWIDTH 960 0
DWIDTH 12 0
BBX 12 10 0 -1
BITMAP
9240
a280
a280
c300
8200
c300
a280
aaa0
9a60
0000
ENDCHAR
STARTCHAR 2d64
ENCODING 11620
SWIDTH 960 0
DWIDTH 12 0
BBX 12 10 0 -1
BITMAP
f800
2000
2e80
2880
2880
2e80
2880
2880
2ee0
0000
ENDCHAR
STARTCHAR 2d65
ENCODING 11621
SWIDTH 960 0
DWIDTH 12 0
BBX 12 10 0 -1
BITMAP
3f80
4040
8420
8420
8720
8420
bfa0
4040
3f80
0000
ENDCHAR
STARTCHAR 2d66
ENCODING 11622
SWIDTH 960 0
DWIDTH 12 0
BBX 12 10 0 -1
BITMAP
3f80
4040
8420
bfa0
a4a0
bfa0
8420
4040
3f80
0000
ENDCHAR
STARTCHAR 2d67
ENCODING 11623
SWIDTH 960 0
DWIDTH 12 0
BBX 12 10 0 -1
BITMAP
3f80
4040
bfa0
8420
8620
8520
8420
4040
3f80
0000
ENDCHAR
STARTCHAR 2d68
ENCODING 11624
SWIDTH 960 0
DWIDTH 12 0
BBX 12 10 0 -1
BITMAP
3f80
4840
bfa0
9020
9f20
a220
8fa0
4040
3f80
0000
ENDCHAR
STARTCHAR 2d69
ENCODING 11625
SWIDTH 960 0
DWIDTH 12 0
BBX 12 10 0 -1
BITMAP
3f80
4840
bfa0
9020
9f20
a920
8f20
4040
3f80
0000
ENDCHAR
STARTCHAR 2d6a
ENCODING 11626
SWIDTH 960 0
DWIDTH 12 0
BBX 12 10 0 -1
BITMAP
4040
9320
fbe0
9520
b7e0
dba0
d560
9120
4040
0000
ENDCHAR
STARTCHAR 2d6b
ENCODING 11627
SWIDTH 960 0
DWIDTH 12 0
BBX 12 10 0 -1
BITMAP
4040
8820
bfa0
8820
9f20
a920
8f20
8920
4040
0000
ENDCHAR
STARTCHAR 2d6c
ENCODING 11628
SWIDTH 960 0
DWIDTH 12 0
BBX 12 10 0 -1
BITMAP
4040
9320
92a0
bfe0
d220
92a0
91a0
90a0
4040
0000
ENDCHAR
STARTCHAR 2d6d
ENCODING 11629
SWIDTH 960 0
DWIDTH 12 0
BBX 12 10 0 -1
BITMAP
3840
ec80
bb20
ede0
ba00
e9e0
2b20
4b20
5de0
0000
ENDCHAR
STARTCHAR 2d6e
ENCODING 11630
SWIDTH 960 0
DWIDTH 12 0
BBX 12 10 0 -1
BITMAP
23e0
2080
f880
2080
22e0
5280
5280
8a80
8fe0
0000
ENDCHAR
STARTCHAR 2d6f
ENCODING 11631
SWIDTH 960 0
DWIDTH 12 0
BBX 12 10 0 -1
BITMAP
3b00
1ae0
efa0
aaa0
e7a0
bba0
eaa0
2ae0
3a00
0000
ENDCHAR
STARTCHAR 2d70
ENCODING 11632
SWIDTH 960 0
DWIDTH 12 0
BBX 12 10 0 -1
BITMAP
3000
3000
0000
7fc0
0000
7fc0
0000
0180
0180
0000
ENDCHAR
STARTCHAR 2d71
ENCODING 11633
SWIDTH 960 0
DWIDTH 12 0
BBX 12 10 0 -1
BITMAP
0000
0000
7fc0
0000
7fc0
0000
7fc0
0000
0000
0000
ENDCHAR
STARTCHAR 2d72
ENCODING 11634
SWIDTH 960 0
DWIDTH 12 0
BBX 12 10 0 -1
BITMAP
0600
0a00
0800
0400
0400
0200
0200
0a00
0c00
0000
ENDCHAR
STARTCHAR 2d73
ENCODING 11635
SWIDTH 960 0
DWIDTH 12 0
BBX 12 10 0 -1
BITMAP
0600
0a00
0800
1f00
2480
1f00
0200
0a00
0c00
0000
ENDCHAR
STARTCHAR 2d74
ENCODING 11636
SWIDTH 960 0
DWIDTH 12 0
BBX 12 10 0 -1
BITMAP
7f80
2080
1000
0800
0400
0800
1000
2080
7f80
0000
ENDCHAR
STARTCHAR 2d75
ENCODING 11637
SWIDTH 960 0
DWIDTH 12 0
BBX 12 10 0 -1
BITMAP
07e0
0400
0400
0800
0800
0800
5000
b000
1000
0000
ENDCHAR
STARTCHAR 2d76
ENCODING 11638
SWIDTH 960 0
DWIDTH 12 0
BBX 12 10 0 -1
BITMAP
0400
0400
0400
0400
0400
0400
0400
0400
7fc0
0000
ENDCHAR
STARTCHAR 2d77
ENCODING 11639
SWIDTH 960 0
DWIDTH 12 0
BBX 12 10 0 -1
BITMAP
0040
0080
0100
0200
0400
0800
1000
2000
7fc0
0000
ENDCHAR
STARTCHAR 2d78
ENCODING 11640
SWIDTH 960 0
DWIDTH 12 0
BBX 12 10 0 -1
BITMAP
4000
4000
4000
4000
4000
4000
4000
4000
7fc0
0000
ENDCHAR
STARTCHAR 2d79
ENCODING 11641
SWIDTH 960 0
DWIDTH 12 0
BBX 12 10 0 -1
BITMAP
0040
00c0
0140
0240
0440
0840
1040
2040
7fc0
0000
ENDCHAR
STARTCHAR 2d7a
ENCODING 11642
SWIDTH 960 0
DWIDTH 12 0
BBX 12 10 0 -1
BITMAP
0000
30c0
30c0
0000
0000
0000
0600
0600
0000
0000
ENDCHAR
STARTCHAR 2d7b
ENCODING 11643
SWIDTH 960 0
DWIDTH 12 0
BBX 12 10 0 -1
BITMAP
0e00
1100
2080
2080
2080
2080
2080
2080
2080
0000
ENDCHAR
STARTCHAR 2d7c
ENCODING 11644
SWIDTH 960 0
DWIDTH 12 0
BBX 12 10 0 -1
BITMAP
2080
2080
2080
2080
2080
2080
2080
1100
0e00
0000
ENDCHAR
STARTCHAR 3021
ENCODING 12321
SWIDTH 960 0
DWIDTH 12 0
BBX 12 10 0 -1
BITMAP
ffe0
1100
7fc0
5140
5140
7fc0
1100
1100
ffe0
0000
ENDCHAR
STARTCHAR 3022
ENCODING 12322
SWIDTH 960 0
DWIDTH 12 0
BBX 12 10 0 -1
BITMAP
0fe0
f280
9fe0
9aa0
9aa0
9fe0
f280
0280
0fe0
0000
ENDCHAR
STARTCHAR 3023
ENCODING 12323
SWIDTH 960 0
DWIDTH 12 0
BBX 12 10 0 -1
BITMAP
4100
47c0
f100
5fe0
9100
a7c0
e100
5100
8fe0
0000
ENDCHAR
STARTCHAR 3024
ENCODING 12324
SWIDTH 960 0
DWIDTH 12 0
BBX 12 10 0 -1
BITMAP
f7e0
9040
a740
e540
9540
9740
a040
c040
80c0
0000
ENDCHAR
STARTCHAR 3025
ENCODING 12325
SWIDTH 960 0
DWIDTH 12 0
BBX 12 10 0 -1
BITMAP
0400
ffe0
3f80
2080
3f80
0c40
3280
d500
38e0
0000
ENDCHAR
STARTCHAR 3026
ENCODING 12326
SWIDTH 960 0
DWIDTH 12 0
BBX 12 10 0 -1
BITMAP
7fc0
2a80
ffe0
9520
5f40
0f00
3900
0600
f9e0
0000
ENDCHAR
STARTCHAR 3027
ENCODING 12327
SWIDTH 960 0
DWIDTH 12 0
BBX 12 10 0 -1
BITMAP
2100
2240
ffe0
2420
37c0
e900
2fe0
2280
6c60
0000
ENDCHAR
STARTCHAR 3028
ENCODING 12328
SWIDTH 960 0
DWIDTH 12 0
BBX 12 10 0 -1
BITMAP
4100
4280
f440
5ba0
9000
a7c0
e440
5440
87c0
0000
ENDCHAR
STARTCHAR 3029
ENCODING 12329
SWIDTH 960 0
DWIDTH 12 0
BBX 12 10 0 -1
BITMAP
c3c0
2e40
0180
e6c0
2fe0
2380
2fe0
6100
9fe0
0000
ENDCHAR
STARTCHAR 302a
ENCODING 12330
SWIDTH 960 0
DWIDTH 12 0
BBX 12 10 0 -1
BITMAP
1100
ffe0
3e80
1140
3e80
c460
3f80
0a00
f1e0
0000
ENDCHAR
STARTCHAR 302b
ENCODING 12331
SWIDTH 960 0
DWIDTH 12 0
BBX 12 10 0 -1
BITMAP
1100
ffe0
1100
ffe0
7fc0
4a40
73c0
4040
7fc0
0000
ENDCHAR
STARTCHAR 302c
ENCODING 12332
SWIDTH 960 0
DWIDTH 12 0
BBX 12 10 0 -1
BITMAP
1700
efc0
2540
f7c0
2fe0
7920
afe0
a100
21e0
0000
ENDCHAR
STARTCHAR 302d
ENCODING 12333
SWIDTH 960 0
DWIDTH 12 0
BBX 12 10 0 -1
BITMAP
ffe0
1100
7fc0
7fc0
1100
ffe0
1400
52a0
8fa0
0000
ENDCHAR
STARTCHAR 302e
ENCODING 12334
SWIDTH 960 0
DWIDTH 12 0
BBX 12 10 0 -1
BITMAP
4fe0
4820
ffe0
4be0
6940
cba0
4be0
5080
d7e0
0000
ENDCHAR
STARTCHAR 302f
ENCODING 12335
SWIDTH 960 0
DWIDTH 12 0
BBX 12 10 0 -1
BITMAP
cfe0
2820
0fe0
cbe0
2940
0ba0
2be0
5080
97e0
0000
ENDCHAR
STARTCHAR 3030
ENCODING 12336
SWIDTH 960 0
DWIDTH 12 0
BBX 12 10 0 -1
BITMAP
4000
47c0
f440
5440
57c0
5440
57c0
5020
8fe0
0000
ENDCHAR
STARTCHAR 3031
ENCODING 12337
SWIDTH 960 0
DWIDTH 12 0
BBX 12 10 0 -1
BITMAP
1100
ffe0
7f80
2080
ffe0
3fc0
2400
ffe0
0400
0000
ENDCHAR
STARTCHAR 3032
ENCODING 12338
SWIDTH 960 0
DWIDTH 12 0
BBX 12 10 0 -1
BITMAP
1100
ffe0
0000
7fc0
4040
7fc0
4000
4000
8000
0000
ENDCHAR
STARTCHAR 3033
ENCODING 12339
SWIDTH 960 0
DWIDTH 12 0
BBX 12 10 0 -1
BITMAP
6200
a440
f7c0
bfe0
f280
b4c0
fb60
2080
d300
0000
ENDCHAR
STARTCHAR 3034
ENCODING 12340
SWIDTH 960 0
DWIDTH 12 0
BBX 12 10 0 -1
BITMAP
2100
2fe0
f440
2440
6fe0
b100
afe0
2100
2100
0000
ENDCHAR
STARTCHAR 3035
ENCODING 12341
SWIDTH 960 0
DWIDTH 12 0
BBX 12 10 0 -1
BITMAP
7fe0
4200
4200
4200
5fc0
4200
4200
8200
bfe0
0000
ENDCHAR
STARTCHAR 3036
ENCODING 12342
SWIDTH 960 0
DWIDTH 12 0
BBX 12 10 0 -1
BITMAP
2180
f240
2420
f140
9040
f240
20e0
f740
2040
0000
ENDCHAR
STARTCHAR 3037
ENCODING 12343
SWIDTH 960 0
DWIDTH 12 0
BBX 12 10 0 -1
BITMAP
2fc0
2440
f480
24e0
3620
e540
2880
2940
7220
0000
ENDCHAR
STARTCHAR 3038
ENCODING 12344
SWIDTH 960 0
DWIDTH 12 0
BBX 12 10 0 -1
BITMAP
0400
ffe0
8020
7bc0
4a40
7a40
8ac0
1200
e1e0
0000
ENDCHAR
STARTCHAR 3039
ENCODING 12345
SWIDTH 960 0
DWIDTH 12 0
BBX 12 10 0 -1
BITMAP
47c0
4440
f440
57c0
9440
a7c0
e440
5440
8fe0
0000
ENDCHAR
STARTCHAR 303a
ENCODING 12346
SWIDTH 960 0
DWIDTH 12 0
BBX 12 10 0 -1
BITMAP
2080
2080
ffe0
aa00
aa00
fa00
2200
3a00
e9e0
0000
ENDCHAR
STARTCHAR 303b
ENCODING 12347
SWIDTH 960 0
DWIDTH 12 0
BBX 12 10 0 -1
BITMAP
2100
5200
a460
f7a0
9000
f7e0
8420
b420
d7e0
0000
ENDCHAR
STARTCHAR 303c
ENCODING 12348
SWIDTH 960 0
DWIDTH 12 0
BBX 12 10 0 -1
BITMAP
6400
87e0
6820
87a0
f4a0
27a0
b4a0
a7a0
2040
0000
ENDCHAR
STARTCHAR 303d
ENCODING 12349
SWIDTH 960 0
DWIDTH 12 0
BBX 12 10 0 -1
BITMAP
6100
87c0
6100
8fe0
f280
27e0
ba80
b180
2e60
0000
ENDCHAR
STARTCHAR 303e
ENCODING 12350
SWIDTH 960 0
DWIDTH 12 0
BBX 12 10 0 -1
BITMAP
7100
9100
f9e0
a900
ffe0
ac20
fc20
2420
d7e0
0000
ENDCHAR
STARTCHAR 303f
ENCODING 12351
SWIDTH 960 0
DWIDTH 12 0
BBX 12 10 0 -1
BITMAP
0140
ffe0
0100
7920
4940
7880
0080
f960
0220
0000
ENDCHAR
STARTCHAR 3040
ENCODING 12352
SWIDTH 960 0
DWIDTH 12 0
BBX 12 10 0 -1
BITMAP
ffe0
7fc0
5140
7fc0
2480
1500
ffe0
3580
c460
0000
ENDCHAR
STARTCHAR 3041
ENCODING 12353
SWIDTH 960 0
DWIDTH 12 0
BBX 12 10 0 -1
BITMAP
2100
f280
1440
2ba0
7000
b7c0
a440
2440
27c0
0000
ENDCHAR
STARTCHAR 3042
ENCODING 12354
SWIDTH 960 0
DWIDTH 12 0
BBX 12 10 0 -1
BITMAP
0400
ffe0
8820
1000
ffe0
2100
3a00
0f00
70c0
0000
ENDCHAR
STARTCHAR 3043
ENCODING 12355
SWIDTH 960 0
DWIDTH 12 0
BBX 12 10 0 -1
BITMAP
0400
7fe0
4200
5fc0
5ac0
6fa0
4a80
8fa0
83e0
0000
ENDCHAR
STARTCHAR 3044
ENCODING 12356
SWIDTH 960 0
DWIDTH 12 0
BBX 12 10 0 -1
BITMAP
2100
27e0
f420
2100
37e0
e240
2280
2180
6660
0000
ENDCHAR
STARTCHAR 3045
ENCODING 12357
SWIDTH 960 0
DWIDTH 12 0
BBX 12 10 0 -1
BITMAP
0100
f7c0
9280
9fe0
f7c0
9440
97c0
f440
07c0
0000
ENDCHAR
STARTCHAR 3046
ENCODING 12358
SWIDTH 960 0
DWIDTH 12 0
BBX 12 10 0 -1
BITMAP
0400
ffe0
8820
3f80
1f80
6440
ffe0
1500
64c0
0000
ENDCHAR
STARTCHAR 3047
ENCODING 12359
SWIDTH 960 0
DWIDTH 12 0
BBX 12 10 0 -1
BITMAP
fbe0
8a20
fbe0
8420
9f20
8a20
bfa0
9120
9f60
0000
ENDCHAR
STARTCHAR 3048
ENCODING 12360
SWIDTH 960 0
DWIDTH 12 0
BBX 12 10 0 -1
BITMAP
5100
f7e0
2420
f100
b7e0
f240
2280
f180
2660
0000
ENDCHAR
STARTCHAR 3049
ENCODING 12361
SWIDTH 960 0
DWIDTH 12 0
BBX 12 10 0 -1
BITMAP
0400
ffe0
0e00
3580
c460
3f80
2080
2080
3f80
0000
ENDCHAR
STARTCHAR 304a
ENCODING 12362
SWIDTH 960 0
DWIDTH 12 0
BBX 12 10 0 -1
BITMAP
4040
4c40
4240
4040
4080
4880
7140
c220
0c20
0000
ENDCHAR
STARTCHAR 304b
ENCODING 12363
SWIDTH 960 0
DWIDTH 12 0
BBX 12 10 0 -1
BITMAP
17c0
1140
2fe0
6140
a7c0
2100
2100
2200
2200
0000
ENDCHAR
STARTCHAR 304c
ENCODING 12364
SWIDTH 960 0
DWIDTH 12 0
BBX 12 10 0 -1
BITMAP
1100
1100
2fe0
6440
a440
2240
2280
2080
2fe0
0000
ENDCHAR
STARTCHAR 304d
ENCODING 12365
SWIDTH 960 0
DWIDTH 12 0
BBX 12 10 0 -1
BITMAP
1100
1fe0
2100
62a0
a4c0
2c80
2440
2740
2c20
0000
ENDCHAR
STARTCHAR 304e
ENCODING 12366
SWIDTH 960 0
DWIDTH 12 0
BBX 12 10 0 -1
BITMAP
1200
1780
2280
6fe0
a440
27c0
2280
2fe0
2080
0000
ENDCHAR
STARTCHAR 304f
ENCODING 12367
SWIDTH 960 0
DWIDTH 12 0
BBX 12 10 0 -1
BITMAP
ffe0
8020
8920
bfa0
8920
bfa0
8920
9120
ffe0
0000
ENDCHAR
STARTCHAR 3050
ENCODING 12368
SWIDTH 960 0
DWIDTH 12 0
BBX 12 10 0 -1
BITMAP
0400
ffe0
0440
7fc0
4400
7fe0
0a20
1100
e0e0
0000
ENDCHAR
STARTCHAR 3051
ENCODING 12369
SWIDTH 960 0
DWIDTH 12 0
BBX 12 10 0 -1
BITMAP
3f80
0400
ffe0
3580
c860
3f80
1100
0e00
79c0
0000
ENDCHAR
STARTCHAR 3052
ENCODING 12370
SWIDTH 960 0
DWIDTH 12 0
BBX 12 10 0 -1
BITMAP
0140
ffe0
8100
fd40
9140
fc80
a880
b160
ee20
0000
ENDCHAR
STARTCHAR 3053
ENCODING 12371
SWIDTH 960 0
DWIDTH 12 0
BBX 12 10 0 -1
BITMAP
fc40
8440
fbe0
8040
fd40
9140
d440
d440
b0c0
0000
ENDCHAR
STARTCHAR 3054
ENCODING 12372
SWIDTH 960 0
DWIDTH 12 0
BBX 12 10 0 -1
BITMAP
2240
2280
b7e0
bc80
b7c0
2480
27c0
2480
27e0
0000
ENDCHAR
STARTCHAR 3055
ENCODING 12373
SWIDTH 960 0
DWIDTH 12 0
BBX 12 10 0 -1
BITMAP
0400
7fc0
1100
ffe0
2080
3f80
1400
52a0
8fa0
0000
ENDCHAR
STARTCHAR 3056
ENCODING 12374
SWIDTH 960 0
DWIDTH 12 0
BBX 12 10 0 -1
BITMAP
f840
8be0
f840
9340
d840
d8c0
0400
52a0
8fa0
0000
ENDCHAR
STARTCHAR 3057
ENCODING 12375
SWIDTH 960 0
DWIDTH 12 0
BBX 12 10 0 -1
BITMAP
3fc0
2040
3fc0
2040
3fc0
3fe0
2920
4920
12c0
0000
ENDCHAR
STARTCHAR 3058
ENCODING 12376
SWIDTH 960 0
DWIDTH 12 0
BBX 12 10 0 -1
BITMAP
2100
27c0
f280
2440
6fe0
b740
a540
2740
20c0
0000
ENDCHAR
STARTCHAR 3059
ENCODING 12377
SWIDTH 960 0
DWIDTH 12 0
BBX 12 10 0 -1
BITMAP
2800
7f00
1100
3fc0
2040
7fe0
8020
5520
9540
0000
ENDCHAR
STARTCHAR 305a
ENCODING 12378
SWIDTH 960 0
DWIDTH 12 0
BBX 12 10 0 -1
BITMAP
7fc0
4440
7fc0
4440
ffe0
2400
2280
2d00
70c0
0000
ENDCHAR
STARTCHAR 305b
ENCODING 12379
SWIDTH 960 0
DWIDTH 12 0
BBX 12 10 0 -1
BITMAP
7fc0
4440
7fc0
4440
7fc0
1100
ffe0
1100
e0e0
0000
ENDCHAR
STARTCHAR 305c
ENCODING 12380
SWIDTH 960 0
DWIDTH 12 0
BBX 12 10 0 -1
BITMAP
1100
e3c0
2e40
f180
2700
73e0
ae40
a180
2e00
0000
ENDCHAR
STARTCHAR 305d
ENCODING 12381
SWIDTH 960 0
DWIDTH 12 0
BBX 12 10 0 -1
BITMAP
6240
8280
67e0
8c80
f7c0
2480
b7c0
a480
27e0
0000
ENDCHAR
STARTCHAR 305e
ENCODING 12382
SWIDTH 960 0
DWIDTH 12 0
BBX 12 10 0 -1
BITMAP
6200
8780
6280
8fe0
f440
27c0
b280
afe0
2080
0000
ENDCHAR
STARTCHAR 305f
ENCODING 12383
SWIDTH 960 0
DWIDTH 12 0
BBX 12 10 0 -1
BITMAP
7fc0
4440
7fc0
4440
7fc0
2080
3f80
2080
2180
0000
ENDCHAR
STARTCHAR 3060
ENCODING 12384
SWIDTH 960 0
DWIDTH 12 0
BBX 12 10 0 -1
BITMAP
2080
ffe0
0e00
ffe0
3580
c860
3f80
1f00
78c0
0000
ENDCHAR
STARTCHAR 3061
ENCODING 12385
SWIDTH 960 0
DWIDTH 12 0
BBX 12 10 0 -1
BITMAP
0400
ffe0
0c00
1240
3280
d100
1100
1c80
7040
0000
ENDCHAR
STARTCHAR 3062
ENCODING 12386
SWIDTH 960 0
DWIDTH 12 0
BBX 12 10 0 -1
BITMAP
6fe0
0920
ffe0
0920
6fe0
0440
f7c0
9440
f4c0
0000
ENDCHAR
STARTCHAR 3063
ENCODING 12387
SWIDTH 960 0
DWIDTH 12 0
BBX 12 10 0 -1
BITMAP
8200
4780
1fe0
c840
4fc0
4480
5fe0
a080
9fe0
0000
ENDCHAR
STARTCHAR 3064
ENCODING 12388
SWIDTH 960 0
DWIDTH 12 0
BBX 12 10 0 -1
BITMAP
c100
27c0
0540
efe0
27c0
2440
27c0
6c60
9fe0
0000
ENDCHAR
STARTCHAR 3065
ENCODING 12389
SWIDTH 960 0
DWIDTH 12 0
BBX 12 10 0 -1
BITMAP
ffe0
9000
9f80
a400
bfc0
8400
9b00
e0c0
ffe0
0000
ENDCHAR
STARTCHAR 3066
ENCODING 12390
SWIDTH 960 0
DWIDTH 12 0
BBX 12 10 0 -1
BITMAP
1100
1100
ffc0
1100
1100
ffe0
2100
2100
4100
0000
ENDCHAR
STARTCHAR 3067
ENCODING 12391
SWIDTH 960 0
DWIDTH 12 0
BBX 12 10 0 -1
BITMAP
0400
ffe0
0880
3100
0e00
1880
6100
0680
7840
0000
ENDCHAR
STARTCHAR 3068
ENCODING 12392
SWIDTH 960 0
DWIDTH 12 0
BBX 12 10 0 -1
BITMAP
4140
5fe0
e100
4f00
4aa0
6ea0
c040
0ee0
0120
0000
ENDCHAR
STARTCHAR 3069
ENCODING 12393
SWIDTH 960 0
DWIDTH 12 0
BBX 12 10 0 -1
BITMAP
0400
ffe0
0980
7fc0
20a0
3f80
2080
3f80
2180
0000
ENDCHAR
STARTCHAR 306a
ENCODING 12394
SWIDTH 960 0
DWIDTH 12 0
BBX 12 10 0 -1
BITMAP
23c0
fa40
4280
fa80
ca40
7a20
4a20
7ac0
4a00
0000
ENDCHAR
STARTCHAR 306b
ENCODING 12395
SWIDTH 960 0
DWIDTH 12 0
BBX 12 10 0 -1
BITMAP
f540
4ba0
4540
7ba0
dfe0
d480
56a0
78c0
0b20
0000
ENDCHAR
STARTCHAR 306c
ENCODING 12396
SWIDTH 960 0
DWIDTH 12 0
BBX 12 10 0 -1
BITMAP
0000
0000
0000
0040
ffe0
0000
0000
0000
0000
0000
ENDCHAR
STARTCHAR 306d
ENCODING 12397
SWIDTH 960 0
DWIDTH 12 0
BBX 12 10 0 -1
BITMAP
0400
7fc0
0400
3f80
ffe0
a020
3f00
2040
1fc0
0000
ENDCHAR
STARTCHAR 306e
ENCODING 12398
SWIDTH 960 0
DWIDTH 12 0
BBX 12 10 0 -1
BITMAP
c440
2fe0
0280
c440
2820
0fe0
2aa0
4aa0
9fe0
0000
ENDCHAR
STARTCHAR 306f
ENCODING 12399
SWIDTH 960 0
DWIDTH 12 0
BBX 12 10 0 -1
BITMAP
8780
4900
1fe0
c920
4fe0
4500
4920
b0e0
9fe0
0000
ENDCHAR
STARTCHAR 3070
ENCODING 12400
SWIDTH 960 0
DWIDTH 12 0
BBX 12 10 0 -1
BITMAP
10c0
e720
2540
f800
25e0
7520
ade0
a520
25e0
0000
ENDCHAR
STARTCHAR 3071
ENCODING 12401
SWIDTH 960 0
DWIDTH 12 0
BBX 12 10 0 -1
BITMAP
2100
ffe0
0400
c7c0
2a40
1200
0500
2880
d060
0000
ENDCHAR
STARTCHAR 3072
ENCODING 12402
SWIDTH 960 0
DWIDTH 12 0
BBX 12 10 0 -1
BITMAP
1100
ffe0
1100
7fc0
0400
ffe0
0400
0400
1c00
0000
ENDCHAR
STARTCHAR 3073
ENCODING 12403
SWIDTH 960 0
DWIDTH 12 0
BBX 12 10 0 -1
BITMAP
6ee0
a220
eee0
b100
ffe0
aaa0
e660
5ba0
a440
0000
ENDCHAR
STARTCHAR 3074
ENCODING 12404
SWIDTH 960 0
DWIDTH 12 0
BBX 12 10 0 -1
BITMAP
0800
1080
2080
7f40
1240
1200
1200
2220
c1e0
0000
ENDCHAR
STARTCHAR 3075
ENCODING 12405
SWIDTH 960 0
DWIDTH 12 0
BBX 12 10 0 -1
BITMAP
0800
33e0
4220
4220
7a20
4220
4220
7ac0
0200
0000
ENDCHAR
STARTCHAR 3076
ENCODING 12406
SWIDTH 960 0
DWIDTH 12 0
BBX 12 10 0 -1
BITMAP
0fe0
e820
a920
afe0
a920
aaa0
ec60
0820
0fe0
0000
ENDCHAR
STARTCHAR 3077
ENCODING 12407
SWIDTH 960 0
DWIDTH 12 0
BBX 12 10 0 -1
BITMAP
3f80
2080
7fc0
4040
7fc0
4040
7fc0
3180
c060
0000
ENDCHAR
STARTCHAR 3078
ENCODING 12408
SWIDTH 960 0
DWIDTH 12 0
BBX 12 10 0 -1
BITMAP
ffe0
8020
8420
bfa0
8420
8a20
b1a0
8020
ffe0
0000
ENDCHAR
STARTCHAR 3079
ENCODING 12409
SWIDTH 960 0
DWIDTH 12 0
BBX 12 10 0 -1
BITMAP
4fe0
4820
f920
5fe0
9920
aaa0
ec60
5820
8fe0
0000
ENDCHAR
STARTCHAR 307a
ENCODING 12410
SWIDTH 960 0
DWIDTH 12 0
BBX 12 10 0 -1
BITMAP
7c40
0440
7c40
4040
7c40
0440
0440
0840
7040
0000
ENDCHAR
STARTCHAR 307b
ENCODING 12411
SWIDTH 960 0
DWIDTH 12 0
BBX 12 10 0 -1
BITMAP
2200
5200
a3e0
f520
9940
f100
8280
b240
d420
0000
ENDCHAR
STARTCHAR 307c
ENCODING 12412
SWIDTH 960 0
DWIDTH 12 0
BBX 12 10 0 -1
BITMAP
c0c0
2f20
0540
c280
27c0
0100
2fe0
4100
8fe0
0000
ENDCHAR
STARTCHAR 307d
ENCODING 12413
SWIDTH 960 0
DWIDTH 12 0
BBX 12 10 0 -1
BITMAP
4c40
5240
4d40
5240
5f40
5140
5f40
5140
9360
0000
ENDCHAR
STARTCHAR 307e
ENCODING 12414
SWIDTH 960 0
DWIDTH 12 0
BBX 12 10 0 -1
BITMAP
1100
ffe0
a380
ac60
c7c0
a0c0
afe0
c440
8fa0
0000
ENDCHAR
STARTCHAR 3121
ENCODING 12577
SWIDTH 960 0
DWIDTH 12 0
BBX 12 10 0 -1
BITMAP
f100
9fe0
a820
e7c0
9000
9fe0
a280
c4a0
98e0
0000
ENDCHAR
STARTCHAR 3122
ENCODING 12578
SWIDTH 960 0
DWIDTH 12 0
BBX 12 10 0 -1
BITMAP
f380
9440
abe0
e080
97c0
9000
afe0
c440
8fa0
0000
ENDCHAR
STARTCHAR 3123
ENCODING 12579
SWIDTH 960 0
DWIDTH 12 0
BBX 12 10 0 -1
BITMAP
f0c0
9780
a540
e7e0
9020
97e0
a280
ca20
8ba0
0000
ENDCHAR
STARTCHAR 3124
ENCODING 12580
SWIDTH 960 0
DWIDTH 12 0
BBX 12 10 0 -1
BITMAP
21c0
f940
53e0
fe20
7be0
4a20
7be0
4940
7a20
0000
ENDCHAR
STARTCHAR 3125
ENCODING 12581
SWIDTH 960 0
DWIDTH 12 0
BBX 12 10 0 -1
BITMAP
0040
f040
9fe0
9040
9440
9240
f040
0040
01c0
0000
ENDCHAR
STARTCHAR 3126
ENCODING 12582
SWIDTH 960 0
DWIDTH 12 0
BBX 12 10 0 -1
BITMAP
0400
ffe0
0800
1000
3fc0
5040
9040
1040
1fc0
0000
ENDCHAR
STARTCHAR 3127
ENCODING 12583
SWIDTH 960 0
DWIDTH 12 0
BBX 12 10 0 -1
BITMAP
0400
ffe0
8020
3f80
0400
ffe0
0400
0400
1c00
0000
ENDCHAR
STARTCHAR 3128
ENCODING 12584
SWIDTH 960 0
DWIDTH 12 0
BBX 12 10 0 -1
BITMAP
0800
7f80
4080
4080
7f80
7fe0
0020
5520
9540
0000
ENDCHAR
STARTCHAR 3129
ENCODING 12585
SWIDTH 960 0
DWIDTH 12 0
BBX 12 10 0 -1
BITMAP
fbe0
0820
8a20
4920
0820
38e0
cb20
0820
38e0
0000
ENDCHAR
STARTCHAR 312a
ENCODING 12586
SWIDTH 960 0
DWIDTH 12 0
BBX 12 10 0 -1
BITMAP
c7c0
2100
0100
efe0
2100
2100
2300
5000
8fe0
0000
ENDCHAR
STARTCHAR 312b
ENCODING 12587
SWIDTH 960 0
DWIDTH 12 0
BBX 12 10 0 -1
BITMAP
ffe0
0400
ffe0
8420
b5a0
8420
b5a0
8420
8460
0000
ENDCHAR
STARTCHAR 312c
ENCODING 12588
SWIDTH 960 0
DWIDTH 12 0
BBX 12 10 0 -1
BITMAP
3000
43e0
4a20
4a20
4a20
7a20
cac0
1200
6200
0000
ENDCHAR
STARTCHAR 312d
ENCODING 12589
SWIDTH 960 0
DWIDTH 12 0
BBX 12 10 0 -1
BITMAP
5080
fbc0
2a40
fbc0
a240
fbe0
6820
aaa0
a2a0
0000
ENDCHAR
STARTCHAR 312e
ENCODING 12590
SWIDTH 960 0
DWIDTH 12 0
BBX 12 10 0 -1
BITMAP
0400
ffe0
8020
27c0
f440
27c0
f7c0
2280
d4e0
0000
ENDCHAR
STARTCHAR 312f
ENCODING 12591
SWIDTH 960 0
DWIDTH 12 0
BBX 12 10 0 -1
BITMAP
7f00
1100
1100
1100
ffe0
1100
1100
1100
ffe0
0000
ENDCHAR
STARTCHAR 3130
ENCODING 12592
SWIDTH 960 0
DWIDTH 12 0
BBX 12 10 0 -1
BITMAP
0240
f280
47e0
7c80
d7c0
d480
57c0
7480
07e0
0000
ENDCHAR
STARTCHAR 3131
ENCODING 12593
SWIDTH 960 0
DWIDTH 12 0
BBX 12 10 0 -1
BITMAP
1800
63c0
4040
4040
7bc0
4040
4040
4040
7fc0
0000
ENDCHAR
STARTCHAR 3132
ENCODING 12594
SWIDTH 960 0
DWIDTH 12 0
BBX 12 10 0 -1
BITMAP
cfc0
2bc0
0a40
dfe0
3020
17a0
34a0
57a0
9060
0000
ENDCHAR
STARTCHAR 3133
ENCODING 12595
SWIDTH 960 0
DWIDTH 12 0
BBX 12 10 0 -1
BITMAP
0200
e380
afe0
aba0
ae00
e9c0
1aa0
16c0
2fe0
0000
ENDCHAR
STARTCHAR 3134
ENCODING 12596
SWIDTH 960 0
DWIDTH 12 0
BBX 12 10 0 -1
BITMAP
07c0
f440
97c0
9440
97c0
9440
f7c0
0280
0c60
0000
ENDCHAR
STARTCHAR 3135
ENCODING 12597
SWIDTH 960 0
DWIDTH 12 0
BBX 12 10 0 -1
BITMAP
4a40
e4e0
ffe0
5540
7fc0
4840
7be0
5240
68c0
0000
ENDCHAR
STARTCHAR 3136
ENCODING 12598
SWIDTH 960 0
DWIDTH 12 0
BBX 12 10 0 -1
BITMAP
1100
ffe0
fc40
85e0
fc40
b940
9140
d440
d4c0
0000
ENDCHAR
STARTCHAR 3137
ENCODING 12599
SWIDTH 960 0
DWIDTH 12 0
BBX 12 10 0 -1
BITMAP
67c0
a440
ffe0
baa0
ffe0
b7c0
f240
2180
d660
0000
ENDCHAR
STARTCHAR 3138
ENCODING 12600
SWIDTH 960 0
DWIDTH 12 0
BBX 12 10 0 -1
BITMAP
4100
47a0
f140
5fe0
9100
a240
e780
5a20
81e0
0000
ENDCHAR
STARTCHAR 3139
ENCODING 12601
SWIDTH 960 0
DWIDTH 12 0
BBX 12 10 0 -1
BITMAP
7fe0
4000
5de0
5540
5de0
50c0
50c0
9d40
b660
0000
ENDCHAR
STARTCHAR 313a
ENCODING 12602
SWIDTH 960 0
DWIDTH 12 0
BBX 12 10 0 -1
BITMAP
c140
3fe0
0100
cfe0
2920
0fe0
2920
4fe0
8960
0000
ENDCHAR
STARTCHAR 313b
ENCODING 12603
SWIDTH 960 0
DWIDTH 12 0
BBX 12 10 0 -1
BITMAP
01c0
7e00
4480
4480
4440
4440
4540
8720
b8a0
0000
ENDCHAR
STARTCHAR 313c
ENCODING 12604
SWIDTH 960 0
DWIDTH 12 0
BBX 12 10 0 -1
BITMAP
fbe0
8a20
fbe0
8020
9f20
8420
9f20
8420
9f60
0000
ENDCHAR
STARTCHAR 313d
ENCODING 12605
SWIDTH 960 0
DWIDTH 12 0
BBX 12 10 0 -1
BITMAP
0240
ffe0
95a0
96e0
97e0
f040
0fe0
0440
02c0
0000
ENDCHAR
STARTCHAR 313e
ENCODING 12606
SWIDTH 960 0
DWIDTH 12 0
BBX 12 10 0 -1
BITMAP
3f80
0000
0000
ffe0
0800
1000
1080
23c0
7c40
0000
ENDCHAR
STARTCHAR 313f
ENCODING 12607
SWIDTH 960 0
DWIDTH 12 0
BBX 12 10 0 -1
BITMAP
4fe0
2920
07c0
e540
27c0
2100
2fe0
6100
9fe0
0000
ENDCHAR
STARTCHAR 3140
ENCODING 12608
SWIDTH 960 0
DWIDTH 12 0
BBX 12 10 0 -1
BITMAP
7fc0
0400
ffe0
8420
b5a0
0000
ffe0
1180
7e40
0000
ENDCHAR
STARTCHAR 3141
ENCODING 12609
SWIDTH 960 0
DWIDTH 12 0
BBX 12 10 0 -1
BITMAP
1100
ffe0
0000
17c0
2100
6fe0
a100
2100
27c0
0000
ENDCHAR
STARTCHAR 3142
ENCODING 12610
SWIDTH 960 0
DWIDTH 12 0
BBX 12 10 0 -1
BITMAP
27e0
5240
a3c0
f240
93c0
f240
83e0
b640
d040
0000
ENDCHAR
STARTCHAR 3143
ENCODING 12611
SWIDTH 960 0
DWIDTH 12 0
BBX 12 10 0 -1
BITMAP
3000
fde0
b420
4920
fd40
4940
7880
4940
7a20
0000
ENDCHAR
STARTCHAR 3144
ENCODING 12612
SWIDTH 960 0
DWIDTH 12 0
BBX 12 10 0 -1
BITMAP
2480
ffe0
bfa0
2080
3f80
0800
7fc0
4040
7fc0
0000
ENDCHAR
STARTCHAR 3145
ENCODING 12613
SWIDTH 960 0
DWIDTH 12 0
BBX 12 10 0 -1
BITMAP
7bc0
4a40
7bc0
3180
4a40
ffe0
1100
1e00
71c0
0000
ENDCHAR
STARTCHAR 3146
ENCODING 12614
SWIDTH 960 0
DWIDTH 12 0
BBX 12 10 0 -1
BITMAP
7840
4880
7b00
fc40
4880
7b00
5820
94c0
3300
0000
ENDCHAR
STARTCHAR 3147
ENCODING 12615
SWIDTH 960 0
DWIDTH 12 0
BBX 12 10 0 -1
BITMAP
0100
f7c0
9540
9540
ffe0
9100
9280
f440
1820
0000
ENDCHAR
STARTCHAR 3148
ENCODING 12616
SWIDTH 960 0
DWIDTH 12 0
BBX 12 10 0 -1
BITMAP
0400
7fc0
4440
7fc0
4440
7fc0
0280
0720
f8e0
0000
ENDCHAR
STARTCHAR 3149
ENCODING 12617
SWIDTH 960 0
DWIDTH 12 0
BBX 12 10 0 -1
BITMAP
4840
2480
ffe0
8420
7fc0
0e00
1500
2480
c460
0000
ENDCHAR
STARTCHAR 314a
ENCODING 12618
SWIDTH 960 0
DWIDTH 12 0
BBX 12 10 0 -1
BITMAP
0c00
0000
3c00
0440
f680
1500
2480
c460
0c00
0000
ENDCHAR
STARTCHAR 314b
ENCODING 12619
SWIDTH 960 0
DWIDTH 12 0
BBX 12 10 0 -1
BITMAP
c300
2000
0700
c120
2fc0
0380
2540
4920
8300
0000
ENDCHAR
STARTCHAR 314c
ENCODING 12620
SWIDTH 960 0
DWIDTH 12 0
BBX 12 10 0 -1
BITMAP
c200
1fc0
1240
dfc0
1240
1fc0
2280
4320
9ce0
0000
ENDCHAR
STARTCHAR 314d
ENCODING 12621
SWIDTH 960 0
DWIDTH 12 0
BBX 12 10 0 -1
BITMAP
0280
f7c0
2280
27c0
f540
2fe0
3100
c280
0c60
0000
ENDCHAR
STARTCHAR 314e
ENCODING 12622
SWIDTH 960 0
DWIDTH 12 0
BBX 12 10 0 -1
BITMAP
7f00
2100
3de0
3420
4820
94c0
7fc0
4a40
ffe0
0000
ENDCHAR
STARTCHAR 314f
ENCODING 12623
SWIDTH 960 0
DWIDTH 12 0
BBX 12 10 0 -1
BITMAP
8be0
f080
83e0
7a20
23e0
fa20
73e0
a940
a220
0000
ENDCHAR
STARTCHAR 3150
ENCODING 12624
SWIDTH 960 0
DWIDTH 12 0
BBX 12 10 0 -1
BITMAP
8be0
f080
83e0
7a20
03e0
fa20
23e0
a940
aa20
0000
ENDCHAR
STARTCHAR 3151
ENCODING 12625
SWIDTH 960 0
DWIDTH 12 0
BBX 12 10 0 -1
BITMAP
1100
ffe0
1100
7fc0
4440
ffe0
0a00
3180
c060
0000
ENDCHAR
STARTCHAR 3152
ENCODING 12626
SWIDTH 960 0
DWIDTH 12 0
BBX 12 10 0 -1
BITMAP
48e0
9e00
2a00
7fe0
d140
5f40
4a40
7f40
42c0
0000
ENDCHAR
STARTCHAR 3153
ENCODING 12627
SWIDTH 960 0
DWIDTH 12 0
BBX 12 10 0 -1
BITMAP
6300
0000
f700
0120
6fc0
0380
f540
9920
f300
0000
ENDCHAR
STARTCHAR 3154
ENCODING 12628
SWIDTH 960 0
DWIDTH 12 0
BBX 12 10 0 -1
BITMAP
2440
5280
87c0
f440
2440
f7c0
b280
62a0
f4e0
0000
ENDCHAR
STARTCHAR 3155
ENCODING 12629
SWIDTH 960 0
DWIDTH 12 0
BBX 12 10 0 -1
BITMAP
c100
2fe0
0500
c9c0
3a40
0d40
2880
4940
8e20
0000
ENDCHAR
STARTCHAR 3156
ENCODING 12630
SWIDTH 960 0
DWIDTH 12 0
BBX 12 10 0 -1
BITMAP
0200
3fe0
a780
6480
38e0
e780
2480
4300
9ce0
0000
ENDCHAR
STARTCHAR 3157
ENCODING 12631
SWIDTH 960 0
DWIDTH 12 0
BBX 12 10 0 -1
BITMAP
2080
ffe0
1100
2080
4040
bfa0
2a80
2a80
ffe0
0000
ENDCHAR
STARTCHAR 3158
ENCODING 12632
SWIDTH 960 0
DWIDTH 12 0
BBX 12 10 0 -1
BITMAP
fbe0
a220
f220
a3e0
fa40
0a40
aa40
aa20
1420
0000
ENDCHAR
STARTCHAR 3159
ENCODING 12633
SWIDTH 960 0
DWIDTH 12 0
BBX 12 10 0 -1
BITMAP
2440
2280
b7c0
b440
a440
27c0
2280
24a0
28e0
0000
ENDCHAR
STARTCHAR 315a
ENCODING 12634
SWIDTH 960 0
DWIDTH 12 0
BBX 12 10 0 -1
BITMAP
67c0
0440
f7c0
0440
63e0
0620
fba0
9220
f340
0000
ENDCHAR
STARTCHAR 315b
ENCODING 12635
SWIDTH 960 0
DWIDTH 12 0
BBX 12 10 0 -1
BITMAP
20a0
77e0
2480
fca0
24a0
b440
a640
e4a0
9fe0
0000
ENDCHAR
STARTCHAR 315c
ENCODING 12636
SWIDTH 960 0
DWIDTH 12 0
BBX 12 10 0 -1
BITMAP
fbe0
8a20
fbe0
8a20
9f20
9120
9f20
8aa0
b3a0
0000
ENDCHAR
STARTCHAR 315d
ENCODING 12637
SWIDTH 960 0
DWIDTH 12 0
BBX 12 10 0 -1
BITMAP
2fe0
27c0
f440
27c0
6440
b7c0
ae80
2180
2ee0
0000
ENDCHAR
STARTCHAR 315e
ENCODING 12638
SWIDTH 960 0
DWIDTH 12 0
BBX 12 10 0 -1
BITMAP
ffe0
bc80
a4a0
bc80
83e0
bc80
a480
bd40
ad20
0000
ENDCHAR
STARTCHAR 315f
ENCODING 12639
SWIDTH 960 0
DWIDTH 12 0
BBX 12 10 0 -1
BITMAP
7fc0
4440
4440
4440
7fc0
4040
4040
4040
40c0
0000
ENDCHAR
STARTCHAR 3160
ENCODING 12640
SWIDTH 960 0
DWIDTH 12 0
BBX 12 10 0 -1
BITMAP
ffe0
8420
9f20
bfa0
9120
9fa0
9520
a4e0
ffe0
0000
ENDCHAR
STARTCHAR 3161
ENCODING 12641
SWIDTH 960 0
DWIDTH 12 0
BBX 12 10 0 -1
BITMAP
5fe0
57c0
f440
57c0
5100
57c0
7380
9660
1fe0
0000
ENDCHAR
STARTCHAR 3162
ENCODING 12642
SWIDTH 960 0
DWIDTH 12 0
BBX 12 10 0 -1
BITMAP
0400
ffe0
1100
2480
7fc0
a4a0
3f80
0420
07e0
0000
ENDCHAR
STARTCHAR 3163
ENCODING 12643
SWIDTH 960 0
DWIDTH 12 0
BBX 12 10 0 -1
BITMAP
0400
ffe0
a0a0
3f80
0800
ffe0
1100
1e00
71c0
0000
ENDCHAR
STARTCHAR 3164
ENCODING 12644
SWIDTH 960 0
DWIDTH 12 0
BBX 12 10 0 -1
BITMAP
e0c0
2f00
4100
e5c0
2500
a500
4fe0
6000
9fe0
0000
ENDCHAR
STARTCHAR 3165
ENCODING 12645
SWIDTH 960 0
DWIDTH 12 0
BBX 12 10 0 -1
BITMAP
7bc0
4a40
aac0
1200
2220
c1e0
1400
52a0
8fa0
0000
ENDCHAR
STARTCHAR 3166
ENCODING 12646
SWIDTH 960 0
DWIDTH 12 0
BBX 12 10 0 -1
BITMAP
2100
2fe0
f280
2d60
37c0
e540
27c0
2120
61e0
0000
ENDCHAR
STARTCHAR 3167
ENCODING 12647
SWIDTH 960 0
DWIDTH 12 0
BBX 12 10 0 -1
BITMAP
2fe0
2540
ffe0
2200
37e0
e3c0
2640
2980
6660
0000
ENDCHAR
STARTCHAR 3168
ENCODING 12648
SWIDTH 960 0
DWIDTH 12 0
BBX 12 10 0 -1
BITMAP
c480
2480
0840
c820
2000
0fe0
2820
4820
8fe0
0000
ENDCHAR
STARTCHAR 3169
ENCODING 12649
SWIDTH 960 0
DWIDTH 12 0
BBX 12 10 0 -1
BITMAP
c100
2fe0
0ba0
c100
27c0
0540
27c0
4280
8c60
0000
ENDCHAR
STARTCHAR 316a
ENCODING 12650
SWIDTH 960 0
DWIDTH 12 0
BBX 12 10 0 -1
BITMAP
2440
2480
0a00
71c0
0400
4420
4440
1b00
e0e0
0000
ENDCHAR
STARTCHAR 316b
ENCODING 12651
SWIDTH 960 0
DWIDTH 12 0
BBX 12 10 0 -1
BITMAP
23c0
2640
b080
b5e0
a520
2520
55e0
5520
85e0
0000
ENDCHAR
STARTCHAR 316c
ENCODING 12652
SWIDTH 960 0
DWIDTH 12 0
BBX 12 10 0 -1
BITMAP
2fe0
2280
bfe0
baa0
afe0
2100
57c0
5100
8fe0
0000
ENDCHAR
STARTCHAR 316d
ENCODING 12653
SWIDTH 960 0
DWIDTH 12 0
BBX 12 10 0 -1
BITMAP
0a00
ffe0
2080
eee0
6a80
ae60
0000
5240
8920
0000
ENDCHAR
STARTCHAR 316e
ENCODING 12654
SWIDTH 960 0
DWIDTH 12 0
BBX 12 10 0 -1
BITMAP
9100
67c0
a100
2fe0
5440
97c0
16c0
2d80
c660
0000
ENDCHAR
STARTCHAR 316f
ENCODING 12655
SWIDTH 960 0
DWIDTH 12 0
BBX 12 10 0 -1
BITMAP
67c0
8040
6fe0
8300
f5a0
22c0
b5c0
a2a0
2d80
0000
ENDCHAR
STARTCHAR 3170
ENCODING 12656
SWIDTH 960 0
DWIDTH 12 0
BBX 12 10 0 -1
BITMAP
51c0
fa40
a880
fbe0
faa0
8be0
fa00
5220
f9e0
0000
ENDCHAR
STARTCHAR 3171
ENCODING 12657
SWIDTH 960 0
DWIDTH 12 0
BBX 12 10 0 -1
BITMAP
1100
ffe0
0000
7bc0
4a40
aa40
12c0
2200
c1e0
0000
ENDCHAR
STARTCHAR 3172
ENCODING 12658
SWIDTH 960 0
DWIDTH 12 0
BBX 12 10 0 -1
BITMAP
1100
ffe0
9f20
bfa0
9120
9fa0
9520
a4e0
ffe0
0000
ENDCHAR
STARTCHAR 3173
ENCODING 12659
SWIDTH 960 0
DWIDTH 12 0
BBX 12 10 0 -1
BITMAP
4100
27c0
0100
efe0
2440
27e0
25c0
6920
9fe0
0000
ENDCHAR
STARTCHAR 3174
ENCODING 12660
SWIDTH 960 0
DWIDTH 12 0
BBX 12 10 0 -1
BITMAP
2240
5240
8440
f420
2000
f7e0
b420
6420
f7e0
0000
ENDCHAR
STARTCHAR 3175
ENCODING 12661
SWIDTH 960 0
DWIDTH 12 0
BBX 12 10 0 -1
BITMAP
7b80
ca80
3220
e9e0
3f80
2080
3fe0
0020
5560
0000
ENDCHAR
STARTCHAR 3176
ENCODING 12662
SWIDTH 960 0
DWIDTH 12 0
BBX 12 10 0 -1
BITMAP
2400
2fe0
ffc0
2440
27c0
2fe0
faa0
0aa0
1fe0
0000
ENDCHAR
STARTCHAR 3177
ENCODING 12663
SWIDTH 960 0
DWIDTH 12 0
BBX 12 10 0 -1
BITMAP
4100
f280
4440
7820
5380
5040
5000
9380
b040
0000
ENDCHAR
STARTCHAR 3178
ENCODING 12664
SWIDTH 960 0
DWIDTH 12 0
BBX 12 10 0 -1
BITMAP
cfc0
2200
1fe0
c400
27c0
0840
2040
4040
8180
0000
ENDCHAR
STARTCHAR 3179
ENCODING 12665
SWIDTH 960 0
DWIDTH 12 0
BBX 12 10 0 -1
BITMAP
27e0
a520
f7e0
a520
77e0
2100
37e0
e220
0460
0000
ENDCHAR
STARTCHAR 317a
ENCODING 12666
SWIDTH 960 0
DWIDTH 12 0
BBX 12 10 0 -1
BITMAP
f1e0
9120
9120
9120
9f20
8020
8020
8020
ffe0
0000
ENDCHAR
STARTCHAR 317b
ENCODING 12667
SWIDTH 960 0
DWIDTH 12 0
BBX 12 10 0 -1
BITMAP
0400
7fc0
4440
4440
ffe0
0a00
1100
2080
c060
0000
ENDCHAR
STARTCHAR 317c
ENCODING 12668
SWIDTH 960 0
DWIDTH 12 0
BBX 12 10 0 -1
BITMAP
0400
7fc0
5540
7fc0
4e40
5540
ffe0
1100
60c0
0000
ENDCHAR
STARTCHAR 317d
ENCODING 12669
SWIDTH 960 0
DWIDTH 12 0
BBX 12 10 0 -1
BITMAP
2200
4100
97c0
2100
6100
a7c0
2100
2100
2fe0
0000
ENDCHAR
STARTCHAR 317e
ENCODING 12670
SWIDTH 960 0
DWIDTH 12 0
BBX 12 10 0 -1
BITMAP
0400
7fe0
4200
4100
4400
5440
5420
a4a0
8780
0000
ENDCHAR
STARTCHAR 3221
ENCODING 12833
SWIDTH 960 0
DWIDTH 12 0
BBX 12 10 0 -1
BITMAP
27e0
2520
f7e0
2520
37e0
e100
2100
2100
6100
0000
ENDCHAR
STARTCHAR 3222
ENCODING 12834
SWIDTH 960 0
DWIDTH 12 0
BBX 12 10 0 -1
BITMAP
0fe0
f100
9100
9100
f7c0
9100
9100
f100
0fe0
0000
ENDCHAR
STARTCHAR 3223
ENCODING 12835
SWIDTH 960 0
DWIDTH 12 0
BBX 12 10 0 -1
BITMAP
2280
27c0
f280
2fe0
67c0
b540
a7c0
2280
2c60
0000
ENDCHAR
STARTCHAR 3224
ENCODING 12836
SWIDTH 960 0
DWIDTH 12 0
BBX 12 10 0 -1
BITMAP
fa00
8200
d3e0
b520
9140
a900
c280
fa40
0420
0000
ENDCHAR
STARTCHAR 3225
ENCODING 12837
SWIDTH 960 0
DWIDTH 12 0
BBX 12 10 0 -1
BITMAP
fbc0
8240
d240
b460
93c0
aa40
c280
f980
0660
0000
ENDCHAR
STARTCHAR 3226
ENCODING 12838
SWIDTH 960 0
DWIDTH 12 0
BBX 12 10 0 -1
BITMAP
7fc0
0400
0400
0400
3f80
0400
0400
0400
ffe0
0000
ENDCHAR
STARTCHAR 3227
ENCODING 12839
SWIDTH 960 0
DWIDTH 12 0
BBX 12 10 0 -1
BITMAP
2080
4840
9320
3d00
0000
fbe0
28a0
c920
1860
0000
ENDCHAR
STARTCHAR 3228
ENCODING 12840
SWIDTH 960 0
DWIDTH 12 0
BBX 12 10 0 -1
BITMAP
2100
ffe0
1aa0
2fe0
6ba0
bd60
bfe0
2280
2c60
0000
ENDCHAR
STARTCHAR 3229
ENCODING 12841
SWIDTH 960 0
DWIDTH 12 0
BBX 12 10 0 -1
BITMAP
2480
ffe0
8820
3f80
2080
3f80
3fe0
0020
5560
0000
ENDCHAR
STARTCHAR 322a
ENCODING 12842
SWIDTH 960 0
DWIDTH 12 0
BBX 12 10 0 -1
BITMAP
f900
83c0
d240
b3c0
9240
abe0
c020
faa0
02a0
0000
ENDCHAR
STARTCHAR 322b
ENCODING 12843
SWIDTH 960 0
DWIDTH 12 0
BBX 12 10 0 -1
BITMAP
1100
7fc0
1100
ffe0
3f80
2480
3f80
1100
60c0
0000
ENDCHAR
STARTCHAR 322c
ENCODING 12844
SWIDTH 960 0
DWIDTH 12 0
BBX 12 10 0 -1
BITMAP
ffe0
9120
8a20
bfa0
8420
a4a0
a4a0
bfa0
8060
0000
ENDCHAR
STARTCHAR 322d
ENCODING 12845
SWIDTH 960 0
DWIDTH 12 0
BBX 12 10 0 -1
BITMAP
c100
2100
0fe0
c920
2920
0fe0
2100
4100
8100
0000
ENDCHAR
STARTCHAR 322e
ENCODING 12846
SWIDTH 960 0
DWIDTH 12 0
BBX 12 10 0 -1
BITMAP
1100
ffe0
9100
6540
a540
7100
9280
1440
6820
0000
ENDCHAR
STARTCHAR 322f
ENCODING 12847
SWIDTH 960 0
DWIDTH 12 0
BBX 12 10 0 -1
BITMAP
2100
2fc0
4480
cfc0
c840
4fc0
4280
4a20
53a0
0000
ENDCHAR
STARTCHAR 3230
ENCODING 12848
SWIDTH 960 0
DWIDTH 12 0
BBX 12 10 0 -1
BITMAP
7fe0
4020
7fe0
5fc0
4480
4f40
5fc0
8200
bfe0
0000
ENDCHAR
STARTCHAR 3231
ENCODING 12849
SWIDTH 960 0
DWIDTH 12 0
BBX 12 10 0 -1
BITMAP
2100
2fc0
b480
bfc0
a840
2fc0
2280
2a20
2ba0
0000
ENDCHAR
STARTCHAR 3232
ENCODING 12850
SWIDTH 960 0
DWIDTH 12 0
BBX 12 10 0 -1
BITMAP
e100
afc0
a480
efc0
a840
efc0
a280
aa20
b3a0
0000
ENDCHAR
STARTCHAR 3233
ENCODING 12851
SWIDTH 960 0
DWIDTH 12 0
BBX 12 10 0 -1
BITMAP
27c0
2240
f180
2fe0
6920
bfe0
a920
2fe0
2920
0000
ENDCHAR
STARTCHAR 3234
ENCODING 12852
SWIDTH 960 0
DWIDTH 12 0
BBX 12 10 0 -1
BITMAP
2100
a100
f900
a7c0
2100
3900
e100
2100
2fe0
0000
ENDCHAR
STARTCHAR 3235
ENCODING 12853
SWIDTH 960 0
DWIDTH 12 0
BBX 12 10 0 -1
BITMAP
0000
7f80
0600
1800
2000
4000
8020
8020
7fc0
0000
ENDCHAR
STARTCHAR 3236
ENCODING 12854
SWIDTH 960 0
DWIDTH 12 0
BBX 12 10 0 -1
BITMAP
2200
3fe0
4500
dac0
efa0
4a80
4f80
4220
43e0
0000
ENDCHAR
STARTCHAR 3237
ENCODING 12855
SWIDTH 960 0
DWIDTH 12 0
BBX 12 10 0 -1
BITMAP
4000
fbe0
2220
fe20
2220
ba20
a220
bac0
c200
0000
ENDCHAR
STARTCHAR 3238
ENCODING 12856
SWIDTH 960 0
DWIDTH 12 0
BBX 12 10 0 -1
BITMAP
7fc0
4440
5f40
4a40
5140
7fc0
1400
52a0
8fa0
0000
ENDCHAR
STARTCHAR 3239
ENCODING 12857
SWIDTH 960 0
DWIDTH 12 0
BBX 12 10 0 -1
BITMAP
cf80
2880
0f80
c880
2f80
1fc0
5540
5540
bfe0
0000
ENDCHAR
STARTCHAR 323a
ENCODING 12858
SWIDTH 960 0
DWIDTH 12 0
BBX 12 10 0 -1
BITMAP
10c0
e780
2540
f7e0
2020
67e0
b280
a620
2ba0
0000
ENDCHAR
STARTCHAR 323b
ENCODING 12859
SWIDTH 960 0
DWIDTH 12 0
BBX 12 10 0 -1
BITMAP
0400
7fc0
1100
ffe0
3f80
2080
3f80
2080
3f80
0000
ENDCHAR
STARTCHAR 323c
ENCODING 12860
SWIDTH 960 0
DWIDTH 12 0
BBX 12 10 0 -1
BITMAP
ffe0
0400
0400
0400
0700
0480
0400
0400
0400
0000
ENDCHAR
STARTCHAR 323d
ENCODING 12861
SWIDTH 960 0
DWIDTH 12 0
BBX 12 10 0 -1
BITMAP
1400
1400
24c0
6700
a400
2400
2400
2420
23e0
0000
ENDCHAR
STARTCHAR 323e
ENCODING 12862
SWIDTH 960 0
DWIDTH 12 0
BBX 12 10 0 -1
BITMAP
17e0
1400
2400
67e0
a620
2540
2880
2940
3620
0000
ENDCHAR
STARTCHAR 323f
ENCODING 12863
SWIDTH 960 0
DWIDTH 12 0
BBX 12 10 0 -1
BITMAP
1000
17e0
2040
6f40
a940
2940
2f40
2040
20c0
0000
ENDCHAR
STARTCHAR 3240
ENCODING 12864
SWIDTH 960 0
DWIDTH 12 0
BBX 12 10 0 -1
BITMAP
2800
28e0
5ea0
caa0
caa0
4aa0
4aa0
52a0
56e0
0000
ENDCHAR
STARTCHAR 3241
ENCODING 12865
SWIDTH 960 0
DWIDTH 12 0
BBX 12 10 0 -1
BITMAP
1fe0
1280
2280
6fe0
aaa0
2aa0
2aa0
2aa0
2fe0
0000
ENDCHAR
STARTCHAR 3242
ENCODING 12866
SWIDTH 960 0
DWIDTH 12 0
BBX 12 10 0 -1
BITMAP
1100
17c0
2100
6fe0
a100
27c0
2100
2100
2fe0
0000
ENDCHAR
STARTCHAR 3243
ENCODING 12867
SWIDTH 960 0
DWIDTH 12 0
BBX 12 10 0 -1
BITMAP
2000
fde0
2520
2520
2520
2520
4520
4520
99e0
0000
ENDCHAR
STARTCHAR 3244
ENCODING 12868
SWIDTH 960 0
DWIDTH 12 0
BBX 12 10 0 -1
BITMAP
ffe0
0080
3c80
2480
2480
3c80
0080
0080
0180
0000
ENDCHAR
STARTCHAR 3245
ENCODING 12869
SWIDTH 960 0
DWIDTH 12 0
BBX 12 10 0 -1
BITMAP
0400
ffe0
3f80
2080
3f80
ffe0
23c0
fa40
4bc0
0000
ENDCHAR
STARTCHAR 3246
ENCODING 12870
SWIDTH 960 0
DWIDTH 12 0
BBX 12 10 0 -1
BITMAP
ffe0
0800
3f80
2080
3f80
0f00
3900
0600
f9e0
0000
ENDCHAR
STARTCHAR 3247
ENCODING 12871
SWIDTH 960 0
DWIDTH 12 0
BBX 12 10 0 -1
BITMAP
4100
4fe0
f820
57c0
9340
a580
e2c0
54a0
8300
0000
ENDCHAR
STARTCHAR 3248
ENCODING 12872
SWIDTH 960 0
DWIDTH 12 0
BBX 12 10 0 -1
BITMAP
0400
ffe0
8020
3f80
0c80
3700
0a80
7240
0c00
0000
ENDCHAR
STARTCHAR 3249
ENCODING 12873
SWIDTH 960 0
DWIDTH 12 0
BBX 12 10 0 -1
BITMAP
0400
ffe0
bfa0
2080
3f80
2080
3f80
c960
3300
0000
ENDCHAR
STARTCHAR 324a
ENCODING 12874
SWIDTH 960 0
DWIDTH 12 0
BBX 12 10 0 -1
BITMAP
1080
e680
2080
f680
20e0
7380
ac80
a080
2080
0000
ENDCHAR
STARTCHAR 324b
ENCODING 12875
SWIDTH 960 0
DWIDTH 12 0
BBX 12 10 0 -1
BITMAP
0ee0
ea20
aee0
a800
eee0
a8a0
aea0
e840
09a0
0000
ENDCHAR
STARTCHAR 324c
ENCODING 12876
SWIDTH 960 0
DWIDTH 12 0
BBX 12 10 0 -1
BITMAP
3f80
2480
3f80
2480
3f80
ffe0
1500
2480
c460
0000
ENDCHAR
STARTCHAR 324d
ENCODING 12877
SWIDTH 960 0
DWIDTH 12 0
BBX 12 10 0 -1
BITMAP
4000
fbc0
4a40
9bc0
0400
ffe0
1500
2480
c460
0000
ENDCHAR
STARTCHAR 324e
ENCODING 12878
SWIDTH 960 0
DWIDTH 12 0
BBX 12 10 0 -1
BITMAP
fd00
5900
79e0
0aa0
fc80
5880
7940
0a40
1c20
0000
ENDCHAR
STARTCHAR 324f
ENCODING 12879
SWIDTH 960 0
DWIDTH 12 0
BBX 12 10 0 -1
BITMAP
cfe0
2040
0f40
c940
2940
0f40
2040
4040
80c0
0000
ENDCHAR
STARTCHAR 3250
ENCODING 12880
SWIDTH 960 0
DWIDTH 12 0
BBX 12 10 0 -1
BITMAP
0400
4440
4440
4480
0a00
0a00
1100
2080
c060
0000
ENDCHAR
STARTCHAR 3251
ENCODING 12881
SWIDTH 960 0
DWIDTH 12 0
BBX 12 10 0 -1
BITMAP
f7e0
2040
2740
f540
2540
2540
3740
c040
00c0
0000
ENDCHAR
STARTCHAR 3252
ENCODING 12882
SWIDTH 960 0
DWIDTH 12 0
BBX 12 10 0 -1
BITMAP
27c0
f440
15c0
2540
6fe0
bba0
aaa0
2ba0
2860
0000
ENDCHAR
STARTCHAR 3253
ENCODING 12883
SWIDTH 960 0
DWIDTH 12 0
BBX 12 10 0 -1
BITMAP
0380
7c00
0400
ffe0
0e00
1500
2480
c460
0400
0000
ENDCHAR
STARTCHAR 3254
ENCODING 12884
SWIDTH 960 0
DWIDTH 12 0
BBX 12 10 0 -1
BITMAP
1100
efe0
2820
f7c0
2340
7580
aac0
a4a0
2300
0000
ENDCHAR
STARTCHAR 3255
ENCODING 12885
SWIDTH 960 0
DWIDTH 12 0
BBX 12 10 0 -1
BITMAP
4200
73e0
9480
7fc0
4440
5f40
5140
5f40
7fc0
0000
ENDCHAR
STARTCHAR 3256
ENCODING 12886
SWIDTH 960 0
DWIDTH 12 0
BBX 12 10 0 -1
BITMAP
1100
ffe0
1100
1200
2240
6380
a200
2220
23e0
0000
ENDCHAR
STARTCHAR 3257
ENCODING 12887
SWIDTH 960 0
DWIDTH 12 0
BBX 12 10 0 -1
BITMAP
1100
ffe0
1100
ffe0
0040
3e40
2240
3e40
00c0
0000
ENDCHAR
STARTCHAR 3258
ENCODING 12888
SWIDTH 960 0
DWIDTH 12 0
BBX 12 10 0 -1
BITMAP
1100
ffe0
1100
2000
fbe0
2a20
4a20
4a20
9be0
0000
ENDCHAR
STARTCHAR 3259
ENCODING 12889
SWIDTH 960 0
DWIDTH 12 0
BBX 12 10 0 -1
BITMAP
1100
ffe0
1100
2fe0
6040
af40
2940
2f40
20c0
0000
ENDCHAR
STARTCHAR 325a
ENCODING 12890
SWIDTH 960 0
DWIDTH 12 0
BBX 12 10 0 -1
BITMAP
1100
ffe0
2480
ffe0
2480
7fc0
0400
ffe0
0400
0000
ENDCHAR
STARTCHAR 325b
ENCODING 12891
SWIDTH 960 0
DWIDTH 12 0
BBX 12 10 0 -1
BITMAP
1100
ffe0
3f80
2480
3f80
2480
ffe0
3580
c460
0000
ENDCHAR
STARTCHAR 325c
ENCODING 12892
SWIDTH 960 0
DWIDTH 12 0
BBX 12 10 0 -1
BITMAP
2ee0
2a20
fee0
a800
aee0
f8a0
2ea0
3840
d9a0
0000
ENDCHAR
STARTCHAR 325d
ENCODING 12893
SWIDTH 960 0
DWIDTH 12 0
BBX 12 10 0 -1
BITMAP
67c0
0540
f7c0
0540
67c0
0fe0
f380
9540
f920
0000
ENDCHAR
STARTCHAR 325e
ENCODING 12894
SWIDTH 960 0
DWIDTH 12 0
BBX 12 10 0 -1
BITMAP
0280
efe0
a540
afe0
a540
efe0
0100
1fe0
0100
0000
ENDCHAR
STARTCHAR 325f
ENCODING 12895
SWIDTH 960 0
DWIDTH 12 0
BBX 12 10 0 -1
BITMAP
1a80
e320
3fe0
2080
3f80
2080
3f80
1100
60c0
0000
ENDCHAR
STARTCHAR 3260
ENCODING 12896
SWIDTH 960 0
DWIDTH 12 0
BBX 12 10 0 -1
BITMAP
8800
5ee0
0aa0
eaa0
2aa0
32a0
26e0
6000
9fe0
0000
ENDCHAR
STARTCHAR 3261
ENCODING 12897
SWIDTH 960 0
DWIDTH 12 0
BBX 12 10 0 -1
BITMAP
47c0
2440
05c0
e540
2fe0
2aa0
2ba0
6860
9fe0
0000
ENDCHAR
STARTCHAR 3262
ENCODING 12898
SWIDTH 960 0
DWIDTH 12 0
BBX 12 10 0 -1
BITMAP
7fc0
ffe0
b5a0
0420
fbc0
f840
83c0
f180
8660
0000
ENDCHAR
STARTCHAR 3263
ENCODING 12899
SWIDTH 960 0
DWIDTH 12 0
BBX 12 10 0 -1
BITMAP
2100
2100
ffe0
aa40
aa40
fa80
2100
3a80
ec60
0000
ENDCHAR
STARTCHAR 3264
ENCODING 12900
SWIDTH 960 0
DWIDTH 12 0
BBX 12 10 0 -1
BITMAP
2640
2d20
4500
dfe0
c500
46c0
5c80
44c0
4d20
0000
ENDCHAR
STARTCHAR 3265
ENCODING 12901
SWIDTH 960 0
DWIDTH 12 0
BBX 12 10 0 -1
BITMAP
2640
2d20
2500
bfe0
b500
b6c0
bc80
f4c0
0d20
0000
ENDCHAR
STARTCHAR 3266
ENCODING 12902
SWIDTH 960 0
DWIDTH 12 0
BBX 12 10 0 -1
BITMAP
1a40
7220
1200
ffe0
1280
1980
f100
12a0
3460
0000
ENDCHAR
STARTCHAR 3267
ENCODING 12903
SWIDTH 960 0
DWIDTH 12 0
BBX 12 10 0 -1
BITMAP
3fc0
2100
2100
ffe0
0300
0500
1900
e100
0700
0000
ENDCHAR
STARTCHAR 3268
ENCODING 12904
SWIDTH 960 0
DWIDTH 12 0
BBX 12 10 0 -1
BITMAP
ffe0
0400
bfa0
a4a0
bfa0
a4a0
bfa0
8020
ffe0
0000
ENDCHAR
STARTCHAR 3269
ENCODING 12905
SWIDTH 960 0
DWIDTH 12 0
BBX 12 10 0 -1
BITMAP
f900
a100
a100
f900
8900
fa80
a280
a440
f820
0000
ENDCHAR
STARTCHAR 326a
ENCODING 12906
SWIDTH 960 0
DWIDTH 12 0
BBX 12 10 0 -1
BITMAP
1100
ffe0
1100
7fc0
2100
ffe0
0700
1900
e300
0000
ENDCHAR
STARTCHAR 326b
ENCODING 12907
SWIDTH 960 0
DWIDTH 12 0
BBX 12 10 0 -1
BITMAP
2640
2d20
f500
bfe0
b500
f6c0
2c80
34c0
d520
0000
ENDCHAR
STARTCHAR 326c
ENCODING 12908
SWIDTH 960 0
DWIDTH 12 0
BBX 12 10 0 -1
BITMAP
fbe0
4a20
bfe0
2080
3f80
2080
3f80
1100
60c0
0000
ENDCHAR
STARTCHAR 326d
ENCODING 12909
SWIDTH 960 0
DWIDTH 12 0
BBX 12 10 0 -1
BITMAP
fa40
5280
57e0
fc80
37c0
3480
57c0
9480
37e0
0000
ENDCHAR
STARTCHAR 326e
ENCODING 12910
SWIDTH 960 0
DWIDTH 12 0
BBX 12 10 0 -1
BITMAP
4640
ad20
5500
ffe0
9500
f6c0
8c80
b4c0
dd20
0000
ENDCHAR
STARTCHAR 326f
ENCODING 12911
SWIDTH 960 0
DWIDTH 12 0
BBX 12 10 0 -1
BITMAP
fbe0
4a20
bfe0
2400
3f80
2400
3fe0
0020
5560
0000
ENDCHAR
STARTCHAR 3270
ENCODING 12912
SWIDTH 960 0
DWIDTH 12 0
BBX 12 10 0 -1
BITMAP
0400
0a00
3180
c060
1100
1100
1100
2100
2100
0000
ENDCHAR
STARTCHAR 3271
ENCODING 12913
SWIDTH 960 0
DWIDTH 12 0
BBX 12 10 0 -1
BITMAP
0400
0a00
3180
df60
0000
7fc0
1100
2180
7e40
0000
ENDCHAR
STARTCHAR 3272
ENCODING 12914
SWIDTH 960 0
DWIDTH 12 0
BBX 12 10 0 -1
BITMAP
77e0
9120
f920
aa80
fbe0
ac80
fbe0
8880
9880
0000
ENDCHAR
STARTCHAR 3273
ENCODING 12915
SWIDTH 960 0
DWIDTH 12 0
BBX 12 10 0 -1
BITMAP
7fc0
4040
5f40
5140
5140
5140
5f40
4040
7fc0
0000
ENDCHAR
STARTCHAR 3274
ENCODING 12916
SWIDTH 960 0
DWIDTH 12 0
BBX 12 10 0 -1
BITMAP
2200
2fc0
f940
2fc0
2940
3f80
c5c0
0920
30e0
0000
ENDCHAR
STARTCHAR 3275
ENCODING 12917
SWIDTH 960 0
DWIDTH 12 0
BBX 12 10 0 -1
BITMAP
2100
2fe0
faa0
2fe0
2100
2fe0
3680
cac0
0320
0000
ENDCHAR
STARTCHAR 3276
ENCODING 12918
SWIDTH 960 0
DWIDTH 12 0
BBX 12 10 0 -1
BITMAP
efe0
2820
4ba0
eaa0
2ba0
a820
4fe0
6000
9fe0
0000
ENDCHAR
STARTCHAR 3277
ENCODING 12919
SWIDTH 960 0
DWIDTH 12 0
BBX 12 10 0 -1
BITMAP
2100
27c0
b140
b140
afe0
2100
2100
2280
2c60
0000
ENDCHAR
STARTCHAR 3278
ENCODING 12920
SWIDTH 960 0
DWIDTH 12 0
BBX 12 10 0 -1
BITMAP
27c0
2440
b280
b300
ace0
2100
27c0
2100
2fe0
0000
ENDCHAR
STARTCHAR 3279
ENCODING 12921
SWIDTH 960 0
DWIDTH 12 0
BBX 12 10 0 -1
BITMAP
2400
27e0
a800
bfc0
b540
2fe0
2540
27e0
20c0
0000
ENDCHAR
STARTCHAR 327a
ENCODING 12922
SWIDTH 960 0
DWIDTH 12 0
BBX 12 10 0 -1
BITMAP
2fe0
2880
b880
baa0
aaa0
2880
2940
2940
2a20
0000
ENDCHAR
STARTCHAR 327b
ENCODING 12923
SWIDTH 960 0
DWIDTH 12 0
BBX 12 10 0 -1
BITMAP
2100
2fe0
baa0
bfe0
b100
2fe0
2680
2ac0
2320
0000
ENDCHAR
STARTCHAR 327c
ENCODING 12924
SWIDTH 960 0
DWIDTH 12 0
BBX 12 10 0 -1
BITMAP
0140
ffe0
0100
4940
fd40
4880
4880
4960
8a20
0000
ENDCHAR
STARTCHAR 327d
ENCODING 12925
SWIDTH 960 0
DWIDTH 12 0
BBX 12 10 0 -1
BITMAP
27e0
2420
f420
27e0
3000
e7e0
2220
2220
6460
0000
ENDCHAR
STARTCHAR 327e
ENCODING 12926
SWIDTH 960 0
DWIDTH 12 0
BBX 12 10 0 -1
BITMAP
f400
17e0
1480
f480
8a80
8100
9180
7240
0c20
0000
ENDCHAR
STARTCHAR 3321
ENCODING 13089
SWIDTH 960 0
DWIDTH 12 0
BBX 12 10 0 -1
BITMAP
2240
f940
a840
fb40
a840
f0e0
5b40
5040
9fe0
0000
ENDCHAR
STARTCHAR 3322
ENCODING 13090
SWIDTH 960 0
DWIDTH 12 0
BBX 12 10 0 -1
BITMAP
0400
f7e0
9800
97c0
f540
9fe0
9540
f7e0
00c0
0000
ENDCHAR
STARTCHAR 3323
ENCODING 13091
SWIDTH 960 0
DWIDTH 12 0
BBX 12 10 0 -1
BITMAP
20c0
20a0
f7e0
2080
75a0
bf40
a540
25a0
2920
0000
ENDCHAR
STARTCHAR 3324
ENCODING 13092
SWIDTH 960 0
DWIDTH 12 0
BBX 12 10 0 -1
BITMAP
c800
2fe0
0800
d7c0
2540
1fe0
2940
4fe0
80c0
0000
ENDCHAR
STARTCHAR 3325
ENCODING 13093
SWIDTH 960 0
DWIDTH 12 0
BBX 12 10 0 -1
BITMAP
7fe0
4200
5240
5240
5280
4500
4500
8880
b060
0000
ENDCHAR
STARTCHAR 3326
ENCODING 13094
SWIDTH 960 0
DWIDTH 12 0
BBX 12 10 0 -1
BITMAP
7fc0
4440
7fc0
4440
7fc0
1b00
f1e0
1100
6100
0000
ENDCHAR
STARTCHAR 3327
ENCODING 13095
SWIDTH 960 0
DWIDTH 12 0
BBX 12 10 0 -1
BITMAP
4200
7b80
4220
f5e0
7fc0
4040
7fc0
4040
7fc0
0000
ENDCHAR
STARTCHAR 3328
ENCODING 13096
SWIDTH 960 0
DWIDTH 12 0
BBX 12 10 0 -1
BITMAP
6100
8280
6440
8ba0
f000
2fe0
b240
a4c0
2f20
0000
ENDCHAR
STARTCHAR 3329
ENCODING 13097
SWIDTH 960 0
DWIDTH 12 0
BBX 12 10 0 -1
BITMAP
1100
ffe0
1500
0a00
3180
d160
1100
2100
4100
0000
ENDCHAR
STARTCHAR 332a
ENCODING 13098
SWIDTH 960 0
DWIDTH 12 0
BBX 12 10 0 -1
BITMAP
33c0
5140
fbe0
6d80
bf80
2480
3f80
04c0
7f40
0000
ENDCHAR
STARTCHAR 332b
ENCODING 13099
SWIDTH 960 0
DWIDTH 12 0
BBX 12 10 0 -1
BITMAP
fbe0
8a20
fbe0
8020
bfa0
8a20
bfa0
8a20
9260
0000
ENDCHAR
STARTCHAR 332c
ENCODING 13100
SWIDTH 960 0
DWIDTH 12 0
BBX 12 10 0 -1
BITMAP
f880
9ee0
a880
eee0
97c0
9440
a7c0
c440
87c0
0000
ENDCHAR
STARTCHAR 332d
ENCODING 13101
SWIDTH 960 0
DWIDTH 12 0
BBX 12 10 0 -1
BITMAP
7fc0
4040
7fc0
4040
7fc0
4040
7fc0
3180
c060
0000
ENDCHAR
STARTCHAR 332e
ENCODING 13102
SWIDTH 960 0
DWIDTH 12 0
BBX 12 10 0 -1
BITMAP
abc0
fa40
0240
fa40
8a40
fa40
5240
5a60
e460
0000
ENDCHAR
STARTCHAR 332f
ENCODING 13103
SWIDTH 960 0
DWIDTH 12 0
BBX 12 10 0 -1
BITMAP
2100
f900
43e0
d120
2120
c920
1220
2a20
c4c0
0000
ENDCHAR
STARTCHAR 3330
ENCODING 13104
SWIDTH 960 0
DWIDTH 12 0
BBX 12 10 0 -1
BITMAP
2100
3d00
4500
4500
a9c0
1920
1100
2100
c100
0000
ENDCHAR
STARTCHAR 3331
ENCODING 13105
SWIDTH 960 0
DWIDTH 12 0
BBX 12 10 0 -1
BITMAP
0100
ffe0
9200
9680
9100
9640
f080
0340
0c20
0000
ENDCHAR
STARTCHAR 3332
ENCODING 13106
SWIDTH 960 0
DWIDTH 12 0
BBX 12 10 0 -1
BITMAP
0400
ffe0
8420
3f80
0400
ffe0
3f80
2080
3f80
0000
ENDCHAR
STARTCHAR 3333
ENCODING 13107
SWIDTH 960 0
DWIDTH 12 0
BBX 12 10 0 -1
BITMAP
2220
3fe0
7fe0
4200
5fc0
4200
4f80
8200
bfe0
0000
ENDCHAR
STARTCHAR 3334
ENCODING 13108
SWIDTH 960 0
DWIDTH 12 0
BBX 12 10 0 -1
BITMAP
2fe0
2aa0
bea0
bbe0
ae40
28c0
2ac0
2b60
2d60
0000
ENDCHAR
STARTCHAR 3335
ENCODING 13109
SWIDTH 960 0
DWIDTH 12 0
BBX 12 10 0 -1
BITMAP
2fe0
2aa0
fea0
2be0
6e40
b8c0
aac0
2b60
2d60
0000
ENDCHAR
STARTCHAR 3336
ENCODING 13110
SWIDTH 960 0
DWIDTH 12 0
BBX 12 10 0 -1
BITMAP
cfe0
2900
0fc0
c900
2fe0
0900
37c0
5100
afe0
0000
ENDCHAR
STARTCHAR 3337
ENCODING 13111
SWIDTH 960 0
DWIDTH 12 0
BBX 12 10 0 -1
BITMAP
f7c0
4440
47c0
7440
dfe0
d040
5440
7240
00c0
0000
ENDCHAR
STARTCHAR 3338
ENCODING 13112
SWIDTH 960 0
DWIDTH 12 0
BBX 12 10 0 -1
BITMAP
1100
ffe0
0400
ffe0
1080
7f40
3f80
2a80
ffe0
0000
ENDCHAR
STARTCHAR 3339
ENCODING 13113
SWIDTH 960 0
DWIDTH 12 0
BBX 12 10 0 -1
BITMAP
2400
4ee0
8400
3fe0
4440
ce40
4440
4740
58c0
0000
ENDCHAR
STARTCHAR 333a
ENCODING 13114
SWIDTH 960 0
DWIDTH 12 0
BBX 12 10 0 -1
BITMAP
6100
0fe0
f200
0680
6100
0640
f080
9140
f620
0000
ENDCHAR
STARTCHAR 333b
ENCODING 13115
SWIDTH 960 0
DWIDTH 12 0
BBX 12 10 0 -1
BITMAP
2100
5520
87e0
f000
27e0
f420
b7e0
6240
f7e0
0000
ENDCHAR
STARTCHAR 333c
ENCODING 13116
SWIDTH 960 0
DWIDTH 12 0
BBX 12 10 0 -1
BITMAP
7880
4fe0
5900
ff40
cc80
7b20
4840
78c0
4b20
0000
ENDCHAR
STARTCHAR 333d
ENCODING 13117
SWIDTH 960 0
DWIDTH 12 0
BBX 12 10 0 -1
BITMAP
cfc0
2940
0fc0
c940
2fc0
0100
2fc0
4100
9fe0
0000
ENDCHAR
STARTCHAR 333e
ENCODING 13118
SWIDTH 960 0
DWIDTH 12 0
BBX 12 10 0 -1
BITMAP
f9c0
ab60
f880
8f60
bf80
3580
df60
1100
1f00
0000
ENDCHAR
STARTCHAR 333f
ENCODING 13119
SWIDTH 960 0
DWIDTH 12 0
BBX 12 10 0 -1
BITMAP
2100
f7c0
b100
bfe0
f100
27c0
2100
3100
dfe0
0000
ENDCHAR
STARTCHAR 3340
ENCODING 13120
SWIDTH 960 0
DWIDTH 12 0
BBX 12 10 0 -1
BITMAP
2fe0
2000
f7c0
2440
27c0
3440
c7c0
0000
0fe0
0000
ENDCHAR
STARTCHAR 3341
ENCODING 13121
SWIDTH 960 0
DWIDTH 12 0
BBX 12 10 0 -1
BITMAP
2100
2fe0
f100
2fe0
6920
b920
a920
2960
2100
0000
ENDCHAR
STARTCHAR 3342
ENCODING 13122
SWIDTH 960 0
DWIDTH 12 0
BBX 12 10 0 -1
BITMAP
27e0
2400
f7e0
b500
b5e0
f520
2520
3920
d260
0000
ENDCHAR
STARTCHAR 3343
ENCODING 13123
SWIDTH 960 0
DWIDTH 12 0
BBX 12 10 0 -1
BITMAP
2200
53e0
8420
f920
2220
f4e0
b760
6020
f0c0
0000
ENDCHAR
STARTCHAR 3344
ENCODING 13124
SWIDTH 960 0
DWIDTH 12 0
BBX 12 10 0 -1
BITMAP
f920
2d20
f920
2120
fd20
a920
f920
1c20
e060
0000
ENDCHAR
STARTCHAR 3345
ENCODING 13125
SWIDTH 960 0
DWIDTH 12 0
BBX 12 10 0 -1
BITMAP
0880
1dc0
e880
bfe0
b540
b760
f760
1540
2540
0000
ENDCHAR
STARTCHAR 3346
ENCODING 13126
SWIDTH 960 0
DWIDTH 12 0
BBX 12 10 0 -1
BITMAP
1000
3f80
5100
0e00
3180
ffe0
2080
2080
3f80
0000
ENDCHAR
STARTCHAR 3347
ENCODING 13127
SWIDTH 960 0
DWIDTH 12 0
BBX 12 10 0 -1
BITMAP
0400
ffe0
8800
ffe0
a520
bd40
9f20
b960
8900
0000
ENDCHAR
STARTCHAR 3348
ENCODING 13128
SWIDTH 960 0
DWIDTH 12 0
BBX 12 10 0 -1
BITMAP
2100
27e0
f400
2480
3480
e480
2900
2960
6ba0
0000
ENDCHAR
STARTCHAR 3349
ENCODING 13129
SWIDTH 960 0
DWIDTH 12 0
BBX 12 10 0 -1
BITMAP
2540
2fe0
ffa0
2480
3780
e480
2780
2520
69e0
0000
ENDCHAR
STARTCHAR 334a
ENCODING 13130
SWIDTH 960 0
DWIDTH 12 0
BBX 12 10 0 -1
BITMAP
2400
27c0
fc80
2300
64e0
bfc0
a440
2440
27c0
0000
ENDCHAR
STARTCHAR 334b
ENCODING 13131
SWIDTH 960 0
DWIDTH 12 0
BBX 12 10 0 -1
BITMAP
2100
2fe0
f200
2680
6100
b640
a080
2340
2c20
0000
ENDCHAR
STARTCHAR 334c
ENCODING 13132
SWIDTH 960 0
DWIDTH 12 0
BBX 12 10 0 -1
BITMAP
23c0
fa40
2240
fc60
8bc0
7240
5280
5980
9660
0000
ENDCHAR
STARTCHAR 334d
ENCODING 13133
SWIDTH 960 0
DWIDTH 12 0
BBX 12 10 0 -1
BITMAP
9240
6fe0
a680
2bc0
5280
97e0
1240
2180
ce60
0000
ENDCHAR
STARTCHAR 334e
ENCODING 13134
SWIDTH 960 0
DWIDTH 12 0
BBX 12 10 0 -1
BITMAP
f100
4fe0
4a20
7480
dfc0
d500
57c0
7500
07e0
0000
ENDCHAR
STARTCHAR 334f
ENCODING 13135
SWIDTH 960 0
DWIDTH 12 0
BBX 12 10 0 -1
BITMAP
1240
efe0
2680
f3c0
2280
77e0
aa40
a180
2e60
0000
ENDCHAR
STARTCHAR 3350
ENCODING 13136
SWIDTH 960 0
DWIDTH 12 0
BBX 12 10 0 -1
BITMAP
2480
ffe0
bfa0
2080
3f80
2080
3f80
1220
e3e0
0000
ENDCHAR
STARTCHAR 3351
ENCODING 13137
SWIDTH 960 0
DWIDTH 12 0
BBX 12 10 0 -1
BITMAP
3f00
4200
ffc0
4440
7fc0
4440
7fc0
4040
80c0
0000
ENDCHAR
STARTCHAR 3352
ENCODING 13138
SWIDTH 960 0
DWIDTH 12 0
BBX 12 10 0 -1
BITMAP
2080
fbe0
2080
ffe0
5140
db60
dd60
5140
9240
0000
ENDCHAR
STARTCHAR 3353
ENCODING 13139
SWIDTH 960 0
DWIDTH 12 0
BBX 12 10 0 -1
BITMAP
2100
f7e0
2280
f440
bca0
f280
2100
f280
2c60
0000
ENDCHAR
STARTCHAR 3354
ENCODING 13140
SWIDTH 960 0
DWIDTH 12 0
BBX 12 10 0 -1
BITMAP
11e0
ff20
7d20
4540
7d20
0920
fd20
1140
3100
0000
ENDCHAR
STARTCHAR 3355
ENCODING 13141
SWIDTH 960 0
DWIDTH 12 0
BBX 12 10 0 -1
BITMAP
fbe0
8a20
fbe0
8f20
ba20
8e20
bfa0
9120
9f60
0000
ENDCHAR
STARTCHAR 3356
ENCODING 13142
SWIDTH 960 0
DWIDTH 12 0
BBX 12 10 0 -1
BITMAP
f7e0
93c0
a240
efe0
9aa0
9c60
aba0
c920
8860
0000
ENDCHAR
STARTCHAR 3357
ENCODING 13143
SWIDTH 960 0
DWIDTH 12 0
BBX 12 10 0 -1
BITMAP
1100
ffe0
1100
7fc0
4440
7fc0
0400
ffe0
0400
0000
ENDCHAR
STARTCHAR 3358
ENCODING 13144
SWIDTH 960 0
DWIDTH 12 0
BBX 12 10 0 -1
BITMAP
2480
ffe0
8020
1f00
0200
ffe0
0400
0400
0c00
0000
ENDCHAR
STARTCHAR 3359
ENCODING 13145
SWIDTH 960 0
DWIDTH 12 0
BBX 12 10 0 -1
BITMAP
0f00
3000
3fc0
2100
2100
ffe0
0400
4440
7fc0
0000
ENDCHAR
STARTCHAR 335a
ENCODING 13146
SWIDTH 960 0
DWIDTH 12 0
BBX 12 10 0 -1
BITMAP
8420
5f40
3180
df60
0400
ffe0
1500
2480
c460
0000
ENDCHAR
STARTCHAR 335b
ENCODING 13147
SWIDTH 960 0
DWIDTH 12 0
BBX 12 10 0 -1
BITMAP
23e0
fc80
87e0
7a20
cbe0
3220
ffe0
4940
7a20
0000
ENDCHAR
STARTCHAR 335c
ENCODING 13148
SWIDTH 960 0
DWIDTH 12 0
BBX 12 10 0 -1
BITMAP
fbe0
a880
fbe0
0220
fbe0
4220
fbe0
0940
3620
0000
ENDCHAR
STARTCHAR 335d
ENCODING 13149
SWIDTH 960 0
DWIDTH 12 0
BBX 12 10 0 -1
BITMAP
2480
2e80
f480
2f80
34c0
eea0
2480
3f80
6080
0000
ENDCHAR
STARTCHAR 335e
ENCODING 13150
SWIDTH 960 0
DWIDTH 12 0
BBX 12 10 0 -1
BITMAP
4200
7be0
9240
1440
0400
7fc0
1100
1100
ffe0
0000
ENDCHAR
STARTCHAR 335f
ENCODING 13151
SWIDTH 960 0
DWIDTH 12 0
BBX 12 10 0 -1
BITMAP
2ee0
2ca0
faa0
2c40
6ea0
b100
a7c0
2100
2fe0
0000
ENDCHAR
STARTCHAR 3360
ENCODING 13152
SWIDTH 960 0
DWIDTH 12 0
BBX 12 10 0 -1
BITMAP
2fe0
2540
f7c0
2540
6fe0
b540
a7c0
2540
2fe0
0000
ENDCHAR
STARTCHAR 3361
ENCODING 13153
SWIDTH 960 0
DWIDTH 12 0
BBX 12 10 0 -1
BITMAP
2fc0
2840
ffc0
2b80
6fc0
b900
afc0
2920
29e0
0000
ENDCHAR
STARTCHAR 3362
ENCODING 13154
SWIDTH 960 0
DWIDTH 12 0
BBX 12 10 0 -1
BITMAP
6140
a640
f2e0
bfe0
f240
b740
fa40
22a0
d320
0000
ENDCHAR
STARTCHAR 3363
ENCODING 13155
SWIDTH 960 0
DWIDTH 12 0
BBX 12 10 0 -1
BITMAP
ccc0
2840
0ec0
c840
2fc0
0fe0
3820
5520
8560
0000
ENDCHAR
STARTCHAR 3364
ENCODING 13156
SWIDTH 960 0
DWIDTH 12 0
BBX 12 10 0 -1
BITMAP
1020
fea0
92a0
7ca0
10a0
fea0
7c20
4420
7ce0
0000
ENDCHAR
STARTCHAR 3365
ENCODING 13157
SWIDTH 960 0
DWIDTH 12 0
BBX 12 10 0 -1
BITMAP
07c0
f440
97c0
9440
93e0
9620
fba0
0220
0340
0000
ENDCHAR
STARTCHAR 3366
ENCODING 13158
SWIDTH 960 0
DWIDTH 12 0
BBX 12 10 0 -1
BITMAP
2100
2280
b440
bba0
a000
27c0
2440
2440
27c0
0000
ENDCHAR
STARTCHAR 3367
ENCODING 13159
SWIDTH 960 0
DWIDTH 12 0
BBX 12 10 0 -1
BITMAP
20c0
2700
f100
2fe0
3100
e7c0
2440
2440
67c0
0000
ENDCHAR
STARTCHAR 3368
ENCODING 13160
SWIDTH 960 0
DWIDTH 12 0
BBX 12 10 0 -1
BITMAP
c0c0
2f00
0100
cfe0
2100
0fc0
2840
4840
8fc0
0000
ENDCHAR
STARTCHAR 3369
ENCODING 13161
SWIDTH 960 0
DWIDTH 12 0
BBX 12 10 0 -1
BITMAP
cfc0
2840
0fc0
c840
27e0
0c20
37a0
4420
8740
0000
ENDCHAR
STARTCHAR 336a
ENCODING 13162
SWIDTH 960 0
DWIDTH 12 0
BBX 12 10 0 -1
BITMAP
c7c0
25c0
0540
dfe0
3460
07c0
2440
47c0
84c0
0000
ENDCHAR
STARTCHAR 336b
ENCODING 13163
SWIDTH 960 0
DWIDTH 12 0
BBX 12 10 0 -1
BITMAP
1100
ffe0
2080
3f80
2080
3fe0
3620
d820
0ec0
0000
ENDCHAR
STARTCHAR 336c
ENCODING 13164
SWIDTH 960 0
DWIDTH 12 0
BBX 12 10 0 -1
BITMAP
27c0
f440
17c0
2440
73e0
b620
aba0
2220
2340
0000
ENDCHAR
STARTCHAR 336d
ENCODING 13165
SWIDTH 960 0
DWIDTH 12 0
BBX 12 10 0 -1
BITMAP
2100
ffe0
2920
f7c0
b100
ffe0
27c0
f440
27c0
0000
ENDCHAR
STARTCHAR 336e
ENCODING 13166
SWIDTH 960 0
DWIDTH 12 0
BBX 12 10 0 -1
BITMAP
3f80
2080
2080
3f80
2080
3f80
2080
2080
ffe0
0000
ENDCHAR
STARTCHAR 336f
ENCODING 13167
SWIDTH 960 0
DWIDTH 12 0
BBX 12 10 0 -1
BITMAP
66e0
a6a0
f5a0
b640
f7a0
b100
f7c0
2100
d7e0
0000
ENDCHAR
STARTCHAR 3370
ENCODING 13168
SWIDTH 960 0
DWIDTH 12 0
BBX 12 10 0 -1
BITMAP
0100
f100
9100
9fe0
9100
9100
f100
0100
0100
0000
ENDCHAR
STARTCHAR 3371
ENCODING 13169
SWIDTH 960 0
DWIDTH 12 0
BBX 12 10 0 -1
BITMAP
2280
2fe0
f280
2300
7520
adc0
a500
2520
24e0
0000
ENDCHAR
STARTCHAR 3372
ENCODING 13170
SWIDTH 960 0
DWIDTH 12 0
BBX 12 10 0 -1
BITMAP
2280
2fe0
f540
2fe0
6540
b7c0
a100
2fe0
2100
0000
ENDCHAR
STARTCHAR 3373
ENCODING 13171
SWIDTH 960 0
DWIDTH 12 0
BBX 12 10 0 -1
BITMAP
5200
fbe0
5420
fba0
a8a0
fbc0
2200
fa20
21e0
0000
ENDCHAR
STARTCHAR 3374
ENCODING 13172
SWIDTH 960 0
DWIDTH 12 0
BBX 12 10 0 -1
BITMAP
2100
2500
f7c0
2900
6fe0
b380
a540
2920
2100
0000
ENDCHAR
STARTCHAR 3375
ENCODING 13173
SWIDTH 960 0
DWIDTH 12 0
BBX 12 10 0 -1
BITMAP
2400
df60
9120
9f20
9120
df60
0a00
1220
e1e0
0000
ENDCHAR
STARTCHAR 3376
ENCODING 13174
SWIDTH 960 0
DWIDTH 12 0
BBX 12 10 0 -1
BITMAP
0400
ffe0
9a20
7fc0
2500
7f80
4480
7fa0
07e0
0000
ENDCHAR
STARTCHAR 3377
ENCODING 13175
SWIDTH 960 0
DWIDTH 12 0
BBX 12 10 0 -1
BITMAP
1100
ffe0
0240
dfe0
0fc0
ca40
0fc0
2a40
cac0
0000
ENDCHAR
STARTCHAR 3378
ENCODING 13176
SWIDTH 960 0
DWIDTH 12 0
BBX 12 10 0 -1
BITMAP
1b00
71c0
0e00
3180
df60
0400
7fc0
2480
ffe0
0000
ENDCHAR
STARTCHAR 3379
ENCODING 13177
SWIDTH 960 0
DWIDTH 12 0
BBX 12 10 0 -1
BITMAP
2440
5fe0
9280
f7e0
22a0
f7e0
b280
66c0
faa0
0000
ENDCHAR
STARTCHAR 337a
ENCODING 13178
SWIDTH 960 0
DWIDTH 12 0
BBX 12 10 0 -1
BITMAP
0100
05c0
f500
9fe0
9aa0
9fe0
9ba0
fd60
0fe0
0000
ENDCHAR
STARTCHAR 337b
ENCODING 13179
SWIDTH 960 0
DWIDTH 12 0
BBX 12 10 0 -1
BITMAP
0080
fbc0
aa40
fbc0
aa40
fbe0
2020
2aa0
2aa0
0000
ENDCHAR
STARTCHAR 337c
ENCODING 13180
SWIDTH 960 0
DWIDTH 12 0
BBX 12 10 0 -1
BITMAP
2fe0
2100
f7e0
2420
6420
b7e0
a420
2420
27e0
0000
ENDCHAR
STARTCHAR 337d
ENCODING 13181
SWIDTH 960 0
DWIDTH 12 0
BBX 12 10 0 -1
BITMAP
1100
ffe0
3f80
0100
0e00
ffe0
0a20
1240
6600
0000
ENDCHAR
STARTCHAR 337e
ENCODING 13182
SWIDTH 960 0
DWIDTH 12 0
BBX 12 10 0 -1
BITMAP
1100
ffe0
0400
ffe0
bfa0
2080
3f80
2080
ffe0
0000
ENDCHAR
STARTCHAR 3421
ENCODING 13345
SWIDTH 960 0
DWIDTH 12 0
BBX 12 10 0 -1
BITMAP
e4e0
3520
eee0
9f80
e4e0
2e20
3520
2420
c4c0
0000
ENDCHAR
STARTCHAR 3422
ENCODING 13346
SWIDTH 960 0
DWIDTH 12 0
BBX 12 10 0 -1
BITMAP
0820
0920
c920
3120
1120
2920
2420
4020
80e0
0000
ENDCHAR
STARTCHAR 3423
ENCODING 13347
SWIDTH 960 0
DWIDTH 12 0
BBX 12 10 0 -1
BITMAP
1100
ffe0
1100
0820
c920
3120
1920
2420
c0e0
0000
ENDCHAR
STARTCHAR 3424
ENCODING 13348
SWIDTH 960 0
DWIDTH 12 0
BBX 12 10 0 -1
BITMAP
ffe0
1000
1f00
1080
1480
2280
2080
38a0
c060
0000
ENDCHAR
STARTCHAR 3425
ENCODING 13349
SWIDTH 960 0
DWIDTH 12 0
BBX 12 10 0 -1
BITMAP
2400
f7e0
2800
f7c0
9180
f200
2400
f420
23e0
0000
ENDCHAR
STARTCHAR 3426
ENCODING 13350
SWIDTH 960 0
DWIDTH 12 0
BBX 12 10 0 -1
BITMAP
17c0
1440
2440
67c0
a000
2540
2540
2560
2960
0000
ENDCHAR
STARTCHAR 3427
ENCODING 13351
SWIDTH 960 0
DWIDTH 12 0
BBX 12 10 0 -1
BITMAP
ffe0
8020
7840
03e0
f840
5340
5040
50c0
8fe0
0000
ENDCHAR
STARTCHAR 3428
ENCODING 13352
SWIDTH 960 0
DWIDTH 12 0
BBX 12 10 0 -1
BITMAP
0400
ffe0
9120
3f80
1100
ffe0
2e80
c060
0600
0000
ENDCHAR
STARTCHAR 3429
ENCODING 13353
SWIDTH 960 0
DWIDTH 12 0
BBX 12 10 0 -1
BITMAP
7c20
1120
1120
fd20
1120
1120
1020
1020
1060
0000
ENDCHAR
STARTCHAR 342a
ENCODING 13354
SWIDTH 960 0
DWIDTH 12 0
BBX 12 10 0 -1
BITMAP
4900
fd00
4be0
7920
4920
fd20
6920
4220
7a60
0000
ENDCHAR
STARTCHAR 342b
ENCODING 13355
SWIDTH 960 0
DWIDTH 12 0
BBX 12 10 0 -1
BITMAP
4100
7900
a7e0
5120
f920
5120
7a20
5220
7cc0
0000
ENDCHAR
STARTCHAR 342c
ENCODING 13356
SWIDTH 960 0
DWIDTH 12 0
BBX 12 10 0 -1
BITMAP
2880
7fc0
1200
ffe0
2f80
c160
1f00
1040
0fc0
0000
ENDCHAR
STARTCHAR 342d
ENCODING 13357
SWIDTH 960 0
DWIDTH 12 0
BBX 12 10 0 -1
BITMAP
03c0
f480
9fe0
9aa0
9ce0
9920
ffe0
0280
0c60
0000
ENDCHAR
STARTCHAR 342e
ENCODING 13358
SWIDTH 960 0
DWIDTH 12 0
BBX 12 10 0 -1
BITMAP
2440
2fe0
f440
27c0
2440
3fe0
ea80
0cc0
0fe0
0000
ENDCHAR
STARTCHAR 342f
ENCODING 13359
SWIDTH 960 0
DWIDTH 12 0
BBX 12 10 0 -1
BITMAP
0800
3f80
0a00
0c00
5b00
ffe0
5140
6180
db60
0000
ENDCHAR
STARTCHAR 3430
ENCODING 13360
SWIDTH 960 0
DWIDTH 12 0
BBX 12 10 0 -1
BITMAP
0400
ffe0
8020
3f80
0000
ffe0
1200
2220
c3e0
0000
ENDCHAR
STARTCHAR 3431
ENCODING 13361
SWIDTH 960 0
DWIDTH 12 0
BBX 12 10 0 -1
BITMAP
0400
ffe0
bfa0
2080
3f80
2000
3fc0
2040
3fc0
0000
ENDCHAR
STARTCHAR 3432
ENCODING 13362
SWIDTH 960 0
DWIDTH 12 0
BBX 12 10 0 -1
BITMAP
0400
ffe0
9120
7fc0
3f80
2080
3f80
1220
e3e0
0000
ENDCHAR
STARTCHAR 3433
ENCODING 13363
SWIDTH 960 0
DWIDTH 12 0
BBX 12 10 0 -1
BITMAP
0000
7fc0
0400
0400
ffe0
0400
0400
0400
0400
0000
ENDCHAR
STARTCHAR 3434
ENCODING 13364
SWIDTH 960 0
DWIDTH 12 0
BBX 12 10 0 -1
BITMAP
2100
f280
2440
fba0
9100
f7e0
2100
f100
2100
0000
ENDCHAR
STARTCHAR 3435
ENCODING 13365
SWIDTH 960 0
DWIDTH 12 0
BBX 12 10 0 -1
BITMAP
0400
3f80
2480
7fc0
4440
7fc0
1400
52a0
8fa0
0000
ENDCHAR
STARTCHAR 3436
ENCODING 13366
SWIDTH 960 0
DWIDTH 12 0
BBX 12 10 0 -1
BITMAP
0240
7fe0
5d00
5540
5ca0
8160
1400
52a0
8fa0
0000
ENDCHAR
STARTCHAR 3437
ENCODING 13367
SWIDTH 960 0
DWIDTH 12 0
BBX 12 10 0 -1
BITMAP
27c0
2d60
b7c0
b440
a7c0
2440
27c0
2280
2c60
0000
ENDCHAR
STARTCHAR 3438
ENCODING 13368
SWIDTH 960 0
DWIDTH 12 0
BBX 12 10 0 -1
BITMAP
2140
27e0
b780
b5a0
af40
2820
2280
2a20
2ba0
0000
ENDCHAR
STARTCHAR 3439
ENCODING 13369
SWIDTH 960 0
DWIDTH 12 0
BBX 12 10 0 -1
BITMAP
23c0
2480
ffe0
2aa0
3ce0
e920
2fe0
2280
6c60
0000
ENDCHAR
STARTCHAR 343a
ENCODING 13370
SWIDTH 960 0
DWIDTH 12 0
BBX 12 10 0 -1
BITMAP
7900
2100
ffe0
4a40
7d40
4940
7880
c940
0a20
0000
ENDCHAR
STARTCHAR 343b
ENCODING 13371
SWIDTH 960 0
DWIDTH 12 0
BBX 12 10 0 -1
BITMAP
2440
2440
ffe0
2440
6440
b7c0
a440
2440
27c0
0000
ENDCHAR
STARTCHAR 343c
ENCODING 13372
SWIDTH 960 0
DWIDTH 12 0
BBX 12 10 0 -1
BITMAP
2fe0
2000
f7c0
2440
67c0
b440
a7c0
2000
2fe0
0000
ENDCHAR
STARTCHAR 343d
ENCODING 13373
SWIDTH 960 0
DWIDTH 12 0
BBX 12 10 0 -1
BITMAP
2100
2fe0
ffe0
2440
67c0
b400
a7e0
2420
27e0
0000
ENDCHAR
STARTCHAR 343e
ENCODING 13374
SWIDTH 960 0
DWIDTH 12 0
BBX 12 10 0 -1
BITMAP
2200
fa00
23e0
fb20
0540
f900
2280
aa40
ac20
0000
ENDCHAR
STARTCHAR 343f
ENCODING 13375
SWIDTH 960 0
DWIDTH 12 0
BBX 12 10 0 -1
BITMAP
4200
7a00
a3e0
5520
f940
5100
7a80
5240
7c20
0000
ENDCHAR
STARTCHAR 3440
ENCODING 13376
SWIDTH 960 0
DWIDTH 12 0
BBX 12 10 0 -1
BITMAP
cfc0
2100
0100
dfe0
2100
0100
2100
4100
8100
0000
ENDCHAR
STARTCHAR 3441
ENCODING 13377
SWIDTH 960 0
DWIDTH 12 0
BBX 12 10 0 -1
BITMAP
c280
2fe0
07c0
c540
27c0
0100
2fe0
4280
8c60
0000
ENDCHAR
STARTCHAR 3442
ENCODING 13378
SWIDTH 960 0
DWIDTH 12 0
BBX 12 10 0 -1
BITMAP
cee0
2aa0
0ee0
cba0
2aa0
0ba0
1aa0
2ba0
c860
0000
ENDCHAR
STARTCHAR 3443
ENCODING 13379
SWIDTH 960 0
DWIDTH 12 0
BBX 12 10 0 -1
BITMAP
c400
27c0
0a00
c480
2fe0
0500
17c0
2500
c7e0
0000
ENDCHAR
STARTCHAR 3444
ENCODING 13380
SWIDTH 960 0
DWIDTH 12 0
BBX 12 10 0 -1
BITMAP
0fe0
faa0
2fe0
27c0
f440
27c0
33a0
c540
1920
0000
ENDCHAR
STARTCHAR 3445
ENCODING 13381
SWIDTH 960 0
DWIDTH 12 0
BBX 12 10 0 -1
BITMAP
2080
2080
ffe0
2080
2080
3f80
2080
2080
3f80
0000
ENDCHAR
STARTCHAR 3446
ENCODING 13382
SWIDTH 960 0
DWIDTH 12 0
BBX 12 10 0 -1
BITMAP
f900
e3e0
9a00
e000
fbc0
0000
7fc0
4a40
ffe0
0000
ENDCHAR
STARTCHAR 3447
ENCODING 13383
SWIDTH 960 0
DWIDTH 12 0
BBX 12 10 0 -1
BITMAP
0180
7e00
0800
ffe0
1f80
3080
5f80
9080
1f80
0000
ENDCHAR
STARTCHAR 3448
ENCODING 13384
SWIDTH 960 0
DWIDTH 12 0
BBX 12 10 0 -1
BITMAP
4200
7be0
9240
0000
3f80
0400
ffe0
0400
0400
0000
ENDCHAR
STARTCHAR 3449
ENCODING 13385
SWIDTH 960 0
DWIDTH 12 0
BBX 12 10 0 -1
BITMAP
4200
7be0
9240
0400
ffe0
a120
3f80
2080
3f80
0000
ENDCHAR
STARTCHAR 344a
ENCODING 13386
SWIDTH 960 0
DWIDTH 12 0
BBX 12 10 0 -1
BITMAP
4200
7be0
9240
70e0
4f20
79e0
4f20
4920
4f60
0000
ENDCHAR
STARTCHAR 344b
ENCODING 13387
SWIDTH 960 0
DWIDTH 12 0
BBX 12 10 0 -1
BITMAP
4fe0
8540
6fe0
8200
f7e0
23c0
b640
a980
2660
0000
ENDCHAR
STARTCHAR 344c
ENCODING 13388
SWIDTH 960 0
DWIDTH 12 0
BBX 12 10 0 -1
BITMAP
2000
3f80
4400
0400
ffe0
0400
4440
4440
7fc0
0000
ENDCHAR
STARTCHAR 344d
ENCODING 13389
SWIDTH 960 0
DWIDTH 12 0
BBX 12 10 0 -1
BITMAP
2180
fa40
27e0
f920
8da0
fb60
25a0
f920
2360
0000
ENDCHAR
STARTCHAR 344e
ENCODING 13390
SWIDTH 960 0
DWIDTH 12 0
BBX 12 10 0 -1
BITMAP
7bc0
4880
4880
7880
4fe0
7880
4880
4880
9880
0000
ENDCHAR
STARTCHAR 344f
ENCODING 13391
SWIDTH 960 0
DWIDTH 12 0
BBX 12 10 0 -1
BITMAP
2740
f6e0
9580
b600
9760
f800
97c0
b540
97e0
0000
ENDCHAR
STARTCHAR 3450
ENCODING 13392
SWIDTH 960 0
DWIDTH 12 0
BBX 12 10 0 -1
BITMAP
1100
ffe0
0400
ffe0
8020
3f80
1200
1220
e3e0
0000
ENDCHAR
STARTCHAR 3451
ENCODING 13393
SWIDTH 960 0
DWIDTH 12 0
BBX 12 10 0 -1
BITMAP
43e0
7a20
a3e0
5220
ffe0
5220
7be0
5140
7e60
0000
ENDCHAR
STARTCHAR 3452
ENCODING 13394
SWIDTH 960 0
DWIDTH 12 0
BBX 12 10 0 -1
BITMAP
6100
0fe0
f540
07c0
7540
07c0
f380
9540
f920
0000
ENDCHAR
STARTCHAR 3453
ENCODING 13395
SWIDTH 960 0
DWIDTH 12 0
BBX 12 10 0 -1
BITMAP
3f80
e4e0
3f80
2080
3f80
2080
3f80
1100
60c0
0000
ENDCHAR
STARTCHAR 3454
ENCODING 13396
SWIDTH 960 0
DWIDTH 12 0
BBX 12 10 0 -1
BITMAP
9fc0
5540
1fc0
cf80
4880
4f80
4780
aac0
9fe0
0000
ENDCHAR
STARTCHAR 3455
ENCODING 13397
SWIDTH 960 0
DWIDTH 12 0
BBX 12 10 0 -1
BITMAP
2740
56e0
8580
f600
2760
f000
b7c0
6540
ffe0
0000
ENDCHAR
STARTCHAR 3456
ENCODING 13398
SWIDTH 960 0
DWIDTH 12 0
BBX 12 10 0 -1
BITMAP
fbe0
8a20
fbe0
8020
9f20
9120
9f20
9120
9f60
0000
ENDCHAR
STARTCHAR 3457
ENCODING 13399
SWIDTH 960 0
DWIDTH 12 0
BBX 12 10 0 -1
BITMAP
fbe0
8a20
fbe0
8420
bfa0
8e20
9520
a4a0
8460
0000
ENDCHAR
STARTCHAR 3458
ENCODING 13400
SWIDTH 960 0
DWIDTH 12 0
BBX 12 10 0 -1
BITMAP
fbe0
8a20
fbe0
8a20
9f20
8420
9f20
8a20
9160
0000
ENDCHAR
STARTCHAR 3459
ENCODING 13401
SWIDTH 960 0
DWIDTH 12 0
BBX 12 10 0 -1
BITMAP
f3c0
9240
a480
e1e0
9520
9520
a5e0
c520
85e0
0000
ENDCHAR
STARTCHAR 345a
ENCODING 13402
SWIDTH 960 0
DWIDTH 12 0
BBX 12 10 0 -1
BITMAP
2200
f780
2280
f7e0
9440
f7c0
2280
f7e0
2080
0000
ENDCHAR
STARTCHAR 345b
ENCODING 13403
SWIDTH 960 0
DWIDTH 12 0
BBX 12 10 0 -1
BITMAP
2100
57e0
a7a0
fa40
8bc0
fa00
83e0
9a20
ebe0
0000
ENDCHAR
STARTCHAR 345c
ENCODING 13404
SWIDTH 960 0
DWIDTH 12 0
BBX 12 10 0 -1
BITMAP
2100
57e0
f7e0
2240
fbc0
2200
fbe0
8a20
fbe0
0000
ENDCHAR
STARTCHAR 345d
ENCODING 13405
SWIDTH 960 0
DWIDTH 12 0
BBX 12 10 0 -1
BITMAP
0800
7f00
0900
0900
6900
1900
1500
2120
c0e0
0000
ENDCHAR
STARTCHAR 345e
ENCODING 13406
SWIDTH 960 0
DWIDTH 12 0
BBX 12 10 0 -1
BITMAP
0400
0a00
3f80
c060
1f00
0200
3f80
2080
3f80
0000
ENDCHAR
STARTCHAR 345f
ENCODING 13407
SWIDTH 960 0
DWIDTH 12 0
BBX 12 10 0 -1
BITMAP
4440
7fc0
0000
7fe0
4000
5fc0
4200
bfe0
8200
0000
ENDCHAR
STARTCHAR 3460
ENCODING 13408
SWIDTH 960 0
DWIDTH 12 0
BBX 12 10 0 -1
BITMAP
4440
7fc0
1280
ffe0
a500
bde0
a540
fe80
8560
0000
ENDCHAR
STARTCHAR 3461
ENCODING 13409
SWIDTH 960 0
DWIDTH 12 0
BBX 12 10 0 -1
BITMAP
f7c0
2000
2000
f7e0
2280
2280
3280
c2a0
0ce0
0000
ENDCHAR
STARTCHAR 3462
ENCODING 13410
SWIDTH 960 0
DWIDTH 12 0
BBX 12 10 0 -1
BITMAP
0400
7fe0
c900
5fc0
5540
ddc0
4200
5240
9fc0
0000
ENDCHAR
STARTCHAR 3463
ENCODING 13411
SWIDTH 960 0
DWIDTH 12 0
BBX 12 10 0 -1
BITMAP
07c0
f440
97c0
f440
97c0
f600
9540
f580
0e60
0000
ENDCHAR
STARTCHAR 3464
ENCODING 13412
SWIDTH 960 0
DWIDTH 12 0
BBX 12 10 0 -1
BITMAP
4440
7fc0
0000
ffe0
1000
3fc0
6040
a040
3fc0
0000
ENDCHAR
STARTCHAR 3465
ENCODING 13413
SWIDTH 960 0
DWIDTH 12 0
BBX 12 10 0 -1
BITMAP
fdc0
6c00
b400
27e0
7940
4940
7940
4940
7a60
0000
ENDCHAR
STARTCHAR 3466
ENCODING 13414
SWIDTH 960 0
DWIDTH 12 0
BBX 12 10 0 -1
BITMAP
7fe0
4d80
77c0
5500
5fe0
5f80
9080
9f80
2040
0000
ENDCHAR
STARTCHAR 3467
ENCODING 13415
SWIDTH 960 0
DWIDTH 12 0
BBX 12 10 0 -1
BITMAP
7fe0
4a00
53e0
7480
77c0
5480
57c0
9480
97e0
0000
ENDCHAR
STARTCHAR 3468
ENCODING 13416
SWIDTH 960 0
DWIDTH 12 0
BBX 12 10 0 -1
BITMAP
7be0
0100
fbe0
5220
53e0
5220
5be0
8140
0620
0000
ENDCHAR
STARTCHAR 3469
ENCODING 13417
SWIDTH 960 0
DWIDTH 12 0
BBX 12 10 0 -1
BITMAP
23e0
f900
53e0
fa20
a3e0
d220
abe0
9140
e620
0000
ENDCHAR
STARTCHAR 346a
ENCODING 13418
SWIDTH 960 0
DWIDTH 12 0
BBX 12 10 0 -1
BITMAP
fbe0
9100
fbe0
ca20
fbe0
ca20
fbe0
9540
d620
0000
ENDCHAR
STARTCHAR 346b
ENCODING 13419
SWIDTH 960 0
DWIDTH 12 0
BBX 12 10 0 -1
BITMAP
0400
0a00
3580
c460
0400
2780
2400
2400
ffe0
0000
ENDCHAR
STARTCHAR 346c
ENCODING 13420
SWIDTH 960 0
DWIDTH 12 0
BBX 12 10 0 -1
BITMAP
1100
1fe0
2100
6fc0
a440
2280
2100
2280
2c60
0000
ENDCHAR
STARTCHAR 346d
ENCODING 13421
SWIDTH 960 0
DWIDTH 12 0
BBX 12 10 0 -1
BITMAP
2000
3f00
4200
ffc0
5f80
5080
5380
9020
8fe0
0000
ENDCHAR
STARTCHAR 346e
ENCODING 13422
SWIDTH 960 0
DWIDTH 12 0
BBX 12 10 0 -1
BITMAP
0400
ffe0
3f80
2080
3f80
1100
ffe0
4040
7fc0
0000
ENDCHAR
STARTCHAR 346f
ENCODING 13423
SWIDTH 960 0
DWIDTH 12 0
BBX 12 10 0 -1
BITMAP
7bc0
4a40
75c0
ffe0
0a00
3180
fbe0
4a40
7bc0
0000
ENDCHAR
STARTCHAR 3470
ENCODING 13424
SWIDTH 960 0
DWIDTH 12 0
BBX 12 10 0 -1
BITMAP
1100
7fc0
1f00
1100
ffe0
2480
df60
0400
7fc0
0000
ENDCHAR
STARTCHAR 3471
ENCODING 13425
SWIDTH 960 0
DWIDTH 12 0
BBX 12 10 0 -1
BITMAP
0400
7fc0
0a00
3180
ffe0
3c80
2480
3c80
0180
0000
ENDCHAR
STARTCHAR 3472
ENCODING 13426
SWIDTH 960 0
DWIDTH 12 0
BBX 12 10 0 -1
BITMAP
4100
4fe0
f7c0
5440
97c0
a280
efe0
5440
87c0
0000
ENDCHAR
STARTCHAR 3473
ENCODING 13427
SWIDTH 960 0
DWIDTH 12 0
BBX 12 10 0 -1
BITMAP
0400
ffe0
bfa0
0a00
3180
ffe0
2480
3c80
0380
0000
ENDCHAR
STARTCHAR 3474
ENCODING 13428
SWIDTH 960 0
DWIDTH 12 0
BBX 12 10 0 -1
BITMAP
2100
2fe0
2100
a7c0
ac40
aa80
a900
fa80
0c60
0000
ENDCHAR
STARTCHAR 3475
ENCODING 13429
SWIDTH 960 0
DWIDTH 12 0
BBX 12 10 0 -1
BITMAP
1980
0600
3900
ffe0
2400
7fc0
a440
24c0
0400
0000
ENDCHAR
STARTCHAR 3476
ENCODING 13430
SWIDTH 960 0
DWIDTH 12 0
BBX 12 10 0 -1
BITMAP
2480
4500
34c0
4500
75c0
ffe0
2240
5180
8660
0000
ENDCHAR
STARTCHAR 3477
ENCODING 13431
SWIDTH 960 0
DWIDTH 12 0
BBX 12 10 0 -1
BITMAP
3f80
0080
7f80
4000
4040
3fc0
1400
52a0
8fa0
0000
ENDCHAR
STARTCHAR 3478
ENCODING 13432
SWIDTH 960 0
DWIDTH 12 0
BBX 12 10 0 -1
BITMAP
2fe0
2ba0
f100
27c0
3540
e7c0
2100
2fe0
6100
0000
ENDCHAR
STARTCHAR 3479
ENCODING 13433
SWIDTH 960 0
DWIDTH 12 0
BBX 12 10 0 -1
BITMAP
2780
2480
f480
2480
6480
b480
a480
28a0
2860
0000
ENDCHAR
STARTCHAR 347a
ENCODING 13434
SWIDTH 960 0
DWIDTH 12 0
BBX 12 10 0 -1
BITMAP
2400
f7e0
4a40
77e0
53c0
5240
57e0
9240
b420
0000
ENDCHAR
STARTCHAR 347b
ENCODING 13435
SWIDTH 960 0
DWIDTH 12 0
BBX 12 10 0 -1
BITMAP
f7c0
9280
f280
9280
f7e0
8180
91a0
b2a0
cc60
0000
ENDCHAR
STARTCHAR 347c
ENCODING 13436
SWIDTH 960 0
DWIDTH 12 0
BBX 12 10 0 -1
BITMAP
49e0
4920
fd20
49e0
7920
49e0
fd20
4920
8660
0000
ENDCHAR
STARTCHAR 347d
ENCODING 13437
SWIDTH 960 0
DWIDTH 12 0
BBX 12 10 0 -1
BITMAP
2240
2240
f7e0
2240
63c0
b240
afe0
2240
2c20
0000
ENDCHAR
STARTCHAR 347e
ENCODING 13438
SWIDTH 960 0
DWIDTH 12 0
BBX 12 10 0 -1
BITMAP
0400
ffe0
1880
7fc0
24a0
3f80
ffe0
1500
e4e0
0000
ENDCHAR
STARTCHAR 3521
ENCODING 13601
SWIDTH 960 0
DWIDTH 12 0
BBX 12 10 0 -1
BITMAP
2540
2ba0
f540
2ba0
6fe0
b480
a6a0
28c0
2b20
0000
ENDCHAR
STARTCHAR 3522
ENCODING 13602
SWIDTH 960 0
DWIDTH 12 0
BBX 12 10 0 -1
BITMAP
2fc0
2040
afc0
a040
bfe0
3220
2fc0
4a40
8ac0
0000
ENDCHAR
STARTCHAR 3523
ENCODING 13603
SWIDTH 960 0
DWIDTH 12 0
BBX 12 10 0 -1
BITMAP
23c0
fa40
5240
fc60
cbc0
3240
da80
3980
d660
0000
ENDCHAR
STARTCHAR 3524
ENCODING 13604
SWIDTH 960 0
DWIDTH 12 0
BBX 12 10 0 -1
BITMAP
4000
7fc0
4000
bf80
0000
7f80
2480
18a0
e460
0000
ENDCHAR
STARTCHAR 3525
ENCODING 13605
SWIDTH 960 0
DWIDTH 12 0
BBX 12 10 0 -1
BITMAP
c800
2fc0
1000
c780
2000
0f80
2080
40a0
8060
0000
ENDCHAR
STARTCHAR 3526
ENCODING 13606
SWIDTH 960 0
DWIDTH 12 0
BBX 12 10 0 -1
BITMAP
2480
4500
34c0
4500
ffe0
5600
7d40
54a0
7d60
0000
ENDCHAR
STARTCHAR 3527
ENCODING 13607
SWIDTH 960 0
DWIDTH 12 0
BBX 12 10 0 -1
BITMAP
2040
f780
1400
27e0
6480
b480
a480
2880
2880
0000
ENDCHAR
STARTCHAR 3528
ENCODING 13608
SWIDTH 960 0
DWIDTH 12 0
BBX 12 10 0 -1
BITMAP
3f80
0400
ffe0
3580
df60
0200
ffe0
0400
1c00
0000
ENDCHAR
STARTCHAR 3529
ENCODING 13609
SWIDTH 960 0
DWIDTH 12 0
BBX 12 10 0 -1
BITMAP
1240
e180
2740
ffe0
2200
77e0
ad20
a560
2100
0000
ENDCHAR
STARTCHAR 352a
ENCODING 13610
SWIDTH 960 0
DWIDTH 12 0
BBX 12 10 0 -1
BITMAP
67c0
8040
6040
87c0
f400
2400
b400
a420
23e0
0000
ENDCHAR
STARTCHAR 352b
ENCODING 13611
SWIDTH 960 0
DWIDTH 12 0
BBX 12 10 0 -1
BITMAP
2500
5500
9fe0
2d40
5140
ce80
4480
5740
5520
0000
ENDCHAR
STARTCHAR 352c
ENCODING 13612
SWIDTH 960 0
DWIDTH 12 0
BBX 12 10 0 -1
BITMAP
27c0
2440
f7c0
2440
f7c0
2440
57c0
42a0
8c60
0000
ENDCHAR
STARTCHAR 352d
ENCODING 13613
SWIDTH 960 0
DWIDTH 12 0
BBX 12 10 0 -1
BITMAP
67c0
0040
f040
07c0
6400
0400
f400
9420
f3e0
0000
ENDCHAR
STARTCHAR 352e
ENCODING 13614
SWIDTH 960 0
DWIDTH 12 0
BBX 12 10 0 -1
BITMAP
0400
7fc0
4440
ffe0
2080
3f80
2080
3f80
60c0
0000
ENDCHAR
STARTCHAR 352f
ENCODING 13615
SWIDTH 960 0
DWIDTH 12 0
BBX 12 10 0 -1
BITMAP
2000
77c0
2040
f7c0
2400
b420
a3e0
e000
9fe0
0000
ENDCHAR
STARTCHAR 3530
ENCODING 13616
SWIDTH 960 0
DWIDTH 12 0
BBX 12 10 0 -1
BITMAP
2200
f200
27c0
f240
b240
f240
2440
f460
2860
0000
ENDCHAR
STARTCHAR 3531
ENCODING 13617
SWIDTH 960 0
DWIDTH 12 0
BBX 12 10 0 -1
BITMAP
2fe0
aba0
7100
ffc0
6540
67c0
a100
afe0
3100
0000
ENDCHAR
STARTCHAR 3532
ENCODING 13618
SWIDTH 960 0
DWIDTH 12 0
BBX 12 10 0 -1
BITMAP
23c0
5240
a240
f240
9240
f240
8240
b460
d860
0000
ENDCHAR
STARTCHAR 3533
ENCODING 13619
SWIDTH 960 0
DWIDTH 12 0
BBX 12 10 0 -1
BITMAP
f100
a7c0
f280
a440
ffe0
1740
5540
9740
20c0
0000
ENDCHAR
STARTCHAR 3534
ENCODING 13620
SWIDTH 960 0
DWIDTH 12 0
BBX 12 10 0 -1
BITMAP
0800
7fc0
4440
7fc0
4440
7fc0
1480
2560
c7a0
0000
ENDCHAR
STARTCHAR 3535
ENCODING 13621
SWIDTH 960 0
DWIDTH 12 0
BBX 12 10 0 -1
BITMAP
1f00
6200
3f80
2480
7fc0
4440
7fc0
0420
07e0
0000
ENDCHAR
STARTCHAR 3536
ENCODING 13622
SWIDTH 960 0
DWIDTH 12 0
BBX 12 10 0 -1
BITMAP
1480
1300
2780
6280
a7c0
2440
2fe0
3020
2aa0
0000
ENDCHAR
STARTCHAR 3537
ENCODING 13623
SWIDTH 960 0
DWIDTH 12 0
BBX 12 10 0 -1
BITMAP
1280
17c0
2100
6fe0
a680
2fe0
2360
2e40
22a0
0000
ENDCHAR
STARTCHAR 3538
ENCODING 13624
SWIDTH 960 0
DWIDTH 12 0
BBX 12 10 0 -1
BITMAP
4100
4fe0
f100
57c0
9440
a280
e100
5280
8c60
0000
ENDCHAR
STARTCHAR 3539
ENCODING 13625
SWIDTH 960 0
DWIDTH 12 0
BBX 12 10 0 -1
BITMAP
0400
ffe0
9f20
1100
1f00
1100
1f00
1100
ffe0
0000
ENDCHAR
STARTCHAR 353a
ENCODING 13626
SWIDTH 960 0
DWIDTH 12 0
BBX 12 10 0 -1
BITMAP
2140
3920
fd00
a3e0
9c80
a8a0
ec40
a8c0
fd20
0000
ENDCHAR
STARTCHAR 353b
ENCODING 13627
SWIDTH 960 0
DWIDTH 12 0
BBX 12 10 0 -1
BITMAP
2100
2fe0
f100
27c0
3440
e280
2100
2280
6c60
0000
ENDCHAR
STARTCHAR 353c
ENCODING 13628
SWIDTH 960 0
DWIDTH 12 0
BBX 12 10 0 -1
BITMAP
29e0
2e20
f8c0
2640
39e0
ee40
2d60
25c0
6b60
0000
ENDCHAR
STARTCHAR 353d
ENCODING 13629
SWIDTH 960 0
DWIDTH 12 0
BBX 12 10 0 -1
BITMAP
4900
4900
fde0
4aa0
7880
4880
fd40
4940
8620
0000
ENDCHAR
STARTCHAR 353e
ENCODING 13630
SWIDTH 960 0
DWIDTH 12 0
BBX 12 10 0 -1
BITMAP
2280
a7c0
f100
afe0
2680
3fe0
e360
2e40
22a0
0000
ENDCHAR
STARTCHAR 353f
ENCODING 13631
SWIDTH 960 0
DWIDTH 12 0
BBX 12 10 0 -1
BITMAP
8be0
f040
8180
7be0
4080
7ae0
a280
3380
cce0
0000
ENDCHAR
STARTCHAR 3540
ENCODING 13632
SWIDTH 960 0
DWIDTH 12 0
BBX 12 10 0 -1
BITMAP
2040
f780
1480
2480
67e0
b480
a480
2760
2c20
0000
ENDCHAR
STARTCHAR 3541
ENCODING 13633
SWIDTH 960 0
DWIDTH 12 0
BBX 12 10 0 -1
BITMAP
1100
7fc0
0400
ffe0
3100
ffe0
1940
f1a0
1260
0000
ENDCHAR
STARTCHAR 3542
ENCODING 13634
SWIDTH 960 0
DWIDTH 12 0
BBX 12 10 0 -1
BITMAP
2280
27c0
f100
bfe0
b280
ffe0
2360
3640
d2a0
0000
ENDCHAR
STARTCHAR 3543
ENCODING 13635
SWIDTH 960 0
DWIDTH 12 0
BBX 12 10 0 -1
BITMAP
6100
0fe0
fbe0
0240
63c0
0240
f3c0
9240
f7e0
0000
ENDCHAR
STARTCHAR 3544
ENCODING 13636
SWIDTH 960 0
DWIDTH 12 0
BBX 12 10 0 -1
BITMAP
6280
07c0
f100
0fe0
6680
0fe0
f360
9e40
f2a0
0000
ENDCHAR
STARTCHAR 3545
ENCODING 13637
SWIDTH 960 0
DWIDTH 12 0
BBX 12 10 0 -1
BITMAP
2800
2fe0
fa20
2aa0
3720
efa0
2720
2aa0
6240
0000
ENDCHAR
STARTCHAR 3546
ENCODING 13638
SWIDTH 960 0
DWIDTH 12 0
BBX 12 10 0 -1
BITMAP
1100
ffe0
4000
7fe0
5520
bfa0
1e20
65a0
0440
0000
ENDCHAR
STARTCHAR 3547
ENCODING 13639
SWIDTH 960 0
DWIDTH 12 0
BBX 12 10 0 -1
BITMAP
5400
f7e0
2920
f560
b3a0
ffe0
23a0
f560
2140
0000
ENDCHAR
STARTCHAR 3548
ENCODING 13640
SWIDTH 960 0
DWIDTH 12 0
BBX 12 10 0 -1
BITMAP
0400
ffe0
0400
7fc0
0000
3f80
2080
2080
3f80
0000
ENDCHAR
STARTCHAR 3549
ENCODING 13641
SWIDTH 960 0
DWIDTH 12 0
BBX 12 10 0 -1
BITMAP
0400
f7e0
9800
9780
9100
9200
f400
0820
07e0
0000
ENDCHAR
STARTCHAR 354a
ENCODING 13642
SWIDTH 960 0
DWIDTH 12 0
BBX 12 10 0 -1
BITMAP
05e0
eea0
a4a0
bea0
a100
bfe0
e100
0280
1c60
0000
ENDCHAR
STARTCHAR 354b
ENCODING 13643
SWIDTH 960 0
DWIDTH 12 0
BBX 12 10 0 -1
BITMAP
2100
2fe0
f100
27c0
6000
b7c0
a440
2440
27c0
0000
ENDCHAR
STARTCHAR 354c
ENCODING 13644
SWIDTH 960 0
DWIDTH 12 0
BBX 12 10 0 -1
BITMAP
27c0
2180
ffe0
2aa0
6ce0
bba0
aaa0
2ba0
2860
0000
ENDCHAR
STARTCHAR 354d
ENCODING 13645
SWIDTH 960 0
DWIDTH 12 0
BBX 12 10 0 -1
BITMAP
6100
0fe0
f100
07c0
6000
07c0
f440
9440
f7c0
0000
ENDCHAR
STARTCHAR 354e
ENCODING 13646
SWIDTH 960 0
DWIDTH 12 0
BBX 12 10 0 -1
BITMAP
0080
f880
20e0
7880
cbe0
4a20
4a20
7a20
03e0
0000
ENDCHAR
STARTCHAR 354f
ENCODING 13647
SWIDTH 960 0
DWIDTH 12 0
BBX 12 10 0 -1
BITMAP
2400
27c0
f500
2900
6fe0
b100
a100
2100
2100
0000
ENDCHAR
STARTCHAR 3550
ENCODING 13648
SWIDTH 960 0
DWIDTH 12 0
BBX 12 10 0 -1
BITMAP
3f80
0400
ffe0
3580
c060
2480
1700
34c0
cc20
0000
ENDCHAR
STARTCHAR 3551
ENCODING 13649
SWIDTH 960 0
DWIDTH 12 0
BBX 12 10 0 -1
BITMAP
11e0
7d20
1120
1120
fd20
2120
4960
f500
0100
0000
ENDCHAR
STARTCHAR 3552
ENCODING 13650
SWIDTH 960 0
DWIDTH 12 0
BBX 12 10 0 -1
BITMAP
0400
ffe0
9f20
3100
0e00
f1e0
3f80
2080
3f80
0000
ENDCHAR
STARTCHAR 3553
ENCODING 13651
SWIDTH 960 0
DWIDTH 12 0
BBX 12 10 0 -1
BITMAP
e4e0
aea0
a4a0
ffa0
a4a0
eaa0
b3e0
bd80
a080
0000
ENDCHAR
STARTCHAR 3554
ENCODING 13652
SWIDTH 960 0
DWIDTH 12 0
BBX 12 10 0 -1
BITMAP
0400
0780
7fe0
45a0
5e00
43c0
5fe0
9000
9fe0
0000
ENDCHAR
STARTCHAR 3555
ENCODING 13653
SWIDTH 960 0
DWIDTH 12 0
BBX 12 10 0 -1
BITMAP
c440
2280
0fe0
e100
2920
2fe0
2100
5200
8fe0
0000
ENDCHAR
STARTCHAR 3556
ENCODING 13654
SWIDTH 960 0
DWIDTH 12 0
BBX 12 10 0 -1
BITMAP
0100
0600
3800
2000
3fc0
2100
2100
2100
ffe0
0000
ENDCHAR
STARTCHAR 3557
ENCODING 13655
SWIDTH 960 0
DWIDTH 12 0
BBX 12 10 0 -1
BITMAP
1000
1f00
1100
2100
c200
0400
0a00
3180
c060
0000
ENDCHAR
STARTCHAR 3558
ENCODING 13656
SWIDTH 960 0
DWIDTH 12 0
BBX 12 10 0 -1
BITMAP
1200
1200
2fc0
6240
a240
2240
2440
2440
2860
0000
ENDCHAR
STARTCHAR 3559
ENCODING 13657
SWIDTH 960 0
DWIDTH 12 0
BBX 12 10 0 -1
BITMAP
1100
1100
2fe0
6100
a380
2540
2920
2100
2100
0000
ENDCHAR
STARTCHAR 355a
ENCODING 13658
SWIDTH 960 0
DWIDTH 12 0
BBX 12 10 0 -1
BITMAP
7f00
1100
1200
1380
1880
2500
2200
4580
9860
0000
ENDCHAR
STARTCHAR 355b
ENCODING 13659
SWIDTH 960 0
DWIDTH 12 0
BBX 12 10 0 -1
BITMAP
0f80
f480
9500
95c0
9440
9a80
f900
1280
2460
0000
ENDCHAR
STARTCHAR 355c
ENCODING 13660
SWIDTH 960 0
DWIDTH 12 0
BBX 12 10 0 -1
BITMAP
0400
ffe0
bfa0
2080
3f80
0800
7fc0
4040
7fc0
0000
ENDCHAR
STARTCHAR 355d
ENCODING 13661
SWIDTH 960 0
DWIDTH 12 0
BBX 12 10 0 -1
BITMAP
7fc0
0040
7fc0
8000
ffe0
0020
0020
0040
0380
0000
ENDCHAR
STARTCHAR 355e
ENCODING 13662
SWIDTH 960 0
DWIDTH 12 0
BBX 12 10 0 -1
BITMAP
1000
3f00
c200
3fc0
0040
7fc0
1400
52a0
8fa0
0000
ENDCHAR
STARTCHAR 355f
ENCODING 13663
SWIDTH 960 0
DWIDTH 12 0
BBX 12 10 0 -1
BITMAP
2a00
23e0
fa40
2540
a940
7080
a880
2140
6620
0000
ENDCHAR
STARTCHAR 3560
ENCODING 13664
SWIDTH 960 0
DWIDTH 12 0
BBX 12 10 0 -1
BITMAP
27e0
2100
f200
2200
67e0
b020
a020
2020
21c0
0000
ENDCHAR
STARTCHAR 3561
ENCODING 13665
SWIDTH 960 0
DWIDTH 12 0
BBX 12 10 0 -1
BITMAP
0480
0440
ffe0
0440
6c80
1700
2580
c460
1c00
0000
ENDCHAR
STARTCHAR 3562
ENCODING 13666
SWIDTH 960 0
DWIDTH 12 0
BBX 12 10 0 -1
BITMAP
cf80
2480
0500
c5c0
2440
0a80
2900
5280
a460
0000
ENDCHAR
STARTCHAR 3563
ENCODING 13667
SWIDTH 960 0
DWIDTH 12 0
BBX 12 10 0 -1
BITMAP
c100
2100
0fe0
c440
2440
0240
2280
4080
9fe0
0000
ENDCHAR
STARTCHAR 3564
ENCODING 13668
SWIDTH 960 0
DWIDTH 12 0
BBX 12 10 0 -1
BITMAP
1000
3f00
4200
0d00
f0e0
2440
2480
1b00
e0e0
0000
ENDCHAR
STARTCHAR 3565
ENCODING 13669
SWIDTH 960 0
DWIDTH 12 0
BBX 12 10 0 -1
BITMAP
0140
f120
2fe0
2100
f560
2380
3540
c920
0300
0000
ENDCHAR
STARTCHAR 3566
ENCODING 13670
SWIDTH 960 0
DWIDTH 12 0
BBX 12 10 0 -1
BITMAP
0400
ffe0
9220
63c0
0800
7f00
0900
1120
e1e0
0000
ENDCHAR
STARTCHAR 3567
ENCODING 13671
SWIDTH 960 0
DWIDTH 12 0
BBX 12 10 0 -1
BITMAP
0400
ffe0
bba0
4840
7bc0
4a00
ffe0
3820
c8c0
0000
ENDCHAR
STARTCHAR 3568
ENCODING 13672
SWIDTH 960 0
DWIDTH 12 0
BBX 12 10 0 -1
BITMAP
4200
7be0
9440
3f00
1200
1bc0
2480
4300
9ce0
0000
ENDCHAR
STARTCHAR 3569
ENCODING 13673
SWIDTH 960 0
DWIDTH 12 0
BBX 12 10 0 -1
BITMAP
6f80
8480
6500
85c0
f440
2680
b500
aa80
2c60
0000
ENDCHAR
STARTCHAR 356a
ENCODING 13674
SWIDTH 960 0
DWIDTH 12 0
BBX 12 10 0 -1
BITMAP
6080
8480
6480
8480
f4e0
2f80
b080
a080
2080
0000
ENDCHAR
STARTCHAR 356b
ENCODING 13675
SWIDTH 960 0
DWIDTH 12 0
BBX 12 10 0 -1
BITMAP
6100
8280
6440
8ba0
f000
27c0
b440
a440
27c0
0000
ENDCHAR
STARTCHAR 356c
ENCODING 13676
SWIDTH 960 0
DWIDTH 12 0
BBX 12 10 0 -1
BITMAP
4fe0
4820
4820
4820
4fe0
4820
4820
4820
4fe0
0000
ENDCHAR
STARTCHAR 356d
ENCODING 13677
SWIDTH 960 0
DWIDTH 12 0
BBX 12 10 0 -1
BITMAP
0400
4400
7fc0
4400
8400
ffe0
0400
0400
0400
0000
ENDCHAR
STARTCHAR 356e
ENCODING 13678
SWIDTH 960 0
DWIDTH 12 0
BBX 12 10 0 -1
BITMAP
0400
3f80
0400
0400
ffe0
0800
1100
2180
7e40
0000
ENDCHAR
STARTCHAR 356f
ENCODING 13679
SWIDTH 960 0
DWIDTH 12 0
BBX 12 10 0 -1
BITMAP
7fc0
4040
7fc0
4200
7fe0
4200
5fc0
9040
9fc0
0000
ENDCHAR
STARTCHAR 3570
ENCODING 13680
SWIDTH 960 0
DWIDTH 12 0
BBX 12 10 0 -1
BITMAP
ffc0
8000
8000
ff80
8080
ff80
8000
8000
ffe0
0000
ENDCHAR
STARTCHAR 3571
ENCODING 13681
SWIDTH 960 0
DWIDTH 12 0
BBX 12 10 0 -1
BITMAP
27c0
2400
f400
27c0
3440
e7c0
2400
2400
67e0
0000
ENDCHAR
STARTCHAR 3572
ENCODING 13682
SWIDTH 960 0
DWIDTH 12 0
BBX 12 10 0 -1
BITMAP
5000
5dc0
f540
5540
7d40
d540
4560
4a00
d1e0
0000
ENDCHAR
STARTCHAR 3573
ENCODING 13683
SWIDTH 960 0
DWIDTH 12 0
BBX 12 10 0 -1
BITMAP
2880
ffe0
2280
4c40
bfa0
0200
7fc0
0200
0c00
0000
ENDCHAR
STARTCHAR 3574
ENCODING 13684
SWIDTH 960 0
DWIDTH 12 0
BBX 12 10 0 -1
BITMAP
cfe0
0f80
c840
2f80
cfe0
0400
ffe0
3580
c460
0000
ENDCHAR
STARTCHAR 3575
ENCODING 13685
SWIDTH 960 0
DWIDTH 12 0
BBX 12 10 0 -1
BITMAP
0400
0780
7fe0
45a0
5e00
43c0
a520
9540
bfe0
0000
ENDCHAR
STARTCHAR 3576
ENCODING 13686
SWIDTH 960 0
DWIDTH 12 0
BBX 12 10 0 -1
BITMAP
6400
0400
f7c0
0900
6100
0fe0
f100
9100
f100
0000
ENDCHAR
STARTCHAR 3577
ENCODING 13687
SWIDTH 960 0
DWIDTH 12 0
BBX 12 10 0 -1
BITMAP
f7c0
9400
9400
f7c0
2440
b7c0
a400
b400
c7e0
0000
ENDCHAR
STARTCHAR 3578
ENCODING 13688
SWIDTH 960 0
DWIDTH 12 0
BBX 12 10 0 -1
BITMAP
27e0
5420
87e0
f480
27e0
f480
b7e0
6a20
f3e0
0000
ENDCHAR
STARTCHAR 3579
ENCODING 13689
SWIDTH 960 0
DWIDTH 12 0
BBX 12 10 0 -1
BITMAP
c380
2480
0fc0
c540
27c0
0540
27c0
4aa0
92a0
0000
ENDCHAR
STARTCHAR 357a
ENCODING 13690
SWIDTH 960 0
DWIDTH 12 0
BBX 12 10 0 -1
BITMAP
48e0
9fa0
64a0
d7a0
5c80
3fc0
ffe0
2480
4c40
0000
ENDCHAR
STARTCHAR 357b
ENCODING 13691
SWIDTH 960 0
DWIDTH 12 0
BBX 12 10 0 -1
BITMAP
1f00
2200
ff80
2480
3f80
2480
3f80
5240
8920
0000
ENDCHAR
STARTCHAR 357c
ENCODING 13692
SWIDTH 960 0
DWIDTH 12 0
BBX 12 10 0 -1
BITMAP
0400
ffe0
2080
3f80
0000
ffe0
0300
0400
1c00
0000
ENDCHAR
STARTCHAR 357d
ENCODING 13693
SWIDTH 960 0
DWIDTH 12 0
BBX 12 10 0 -1
BITMAP
0400
ffe0
2080
3f80
1f00
0200
ffe0
0400
1c00
0000
ENDCHAR
STARTCHAR 357e
ENCODING 13694
SWIDTH 960 0
DWIDTH 12 0
BBX 12 10 0 -1
BITMAP
0400
ffe0
0000
3f80
2080
3f80
0400
24c0
cc20
0000
ENDCHAR
STARTCHAR 3621
ENCODING 13857
SWIDTH 960 0
DWIDTH 12 0
BBX 12 10 0 -1
BITMAP
1480
1480
3fc0
6480
a480
3fe0
2480
2840
2840
0000
ENDCHAR
STARTCHAR 3622
ENCODING 13858
SWIDTH 960 0
DWIDTH 12 0
BBX 12 10 0 -1
BITMAP
1100
17c0
2100
6920
a540
2fe0
2100
2280
2c60
0000
ENDCHAR
STARTCHAR 3623
ENCODING 13859
SWIDTH 960 0
DWIDTH 12 0
BBX 12 10 0 -1
BITMAP
10c0
1700
2fe0
66c0
bba0
2fe0
2aa0
2ba0
2860
0000
ENDCHAR
STARTCHAR 3624
ENCODING 13860
SWIDTH 960 0
DWIDTH 12 0
BBX 12 10 0 -1
BITMAP
1900
8620
8d20
b0a0
ffe0
1200
1200
2220
c3e0
0000
ENDCHAR
STARTCHAR 3625
ENCODING 13861
SWIDTH 960 0
DWIDTH 12 0
BBX 12 10 0 -1
BITMAP
2080
fbe0
5140
fbe0
8a20
fbe0
5140
5a60
9460
0000
ENDCHAR
STARTCHAR 3626
ENCODING 13862
SWIDTH 960 0
DWIDTH 12 0
BBX 12 10 0 -1
BITMAP
1100
1100
7fc0
1100
1100
ffe0
1100
2080
4040
0000
ENDCHAR
STARTCHAR 3627
ENCODING 13863
SWIDTH 960 0
DWIDTH 12 0
BBX 12 10 0 -1
BITMAP
0000
8120
b120
8a20
8420
8a20
b120
8020
ffe0
0000
ENDCHAR
STARTCHAR 3628
ENCODING 13864
SWIDTH 960 0
DWIDTH 12 0
BBX 12 10 0 -1
BITMAP
4200
4fc0
f240
44c0
4880
5fe0
4aa0
4aa0
5760
0000
ENDCHAR
STARTCHAR 3629
ENCODING 13865
SWIDTH 960 0
DWIDTH 12 0
BBX 12 10 0 -1
BITMAP
ffc0
8000
bf80
8400
9f00
8400
bf80
8000
ffe0
0000
ENDCHAR
STARTCHAR 362a
ENCODING 13866
SWIDTH 960 0
DWIDTH 12 0
BBX 12 10 0 -1
BITMAP
6ee0
8aa0
aea0
aaa0
aea0
e8a0
2ae0
5d80
8080
0000
ENDCHAR
STARTCHAR 362b
ENCODING 13867
SWIDTH 960 0
DWIDTH 12 0
BBX 12 10 0 -1
BITMAP
0080
f480
9480
9480
9480
94e0
f780
0c80
0080
0000
ENDCHAR
STARTCHAR 362c
ENCODING 13868
SWIDTH 960 0
DWIDTH 12 0
BBX 12 10 0 -1
BITMAP
0380
3c00
ffe0
3180
df60
7fc0
5140
5f40
40c0
0000
ENDCHAR
STARTCHAR 362d
ENCODING 13869
SWIDTH 960 0
DWIDTH 12 0
BBX 12 10 0 -1
BITMAP
2100
27c0
f280
2fe0
27c0
3440
c7c0
02a0
0ce0
0000
ENDCHAR
STARTCHAR 362e
ENCODING 13870
SWIDTH 960 0
DWIDTH 12 0
BBX 12 10 0 -1
BITMAP
2100
27c0
b100
b520
b340
bfe0
f100
0280
0c60
0000
ENDCHAR
STARTCHAR 362f
ENCODING 13871
SWIDTH 960 0
DWIDTH 12 0
BBX 12 10 0 -1
BITMAP
f100
1260
f7a0
8100
f7e0
1520
17c0
2160
cfa0
0000
ENDCHAR
STARTCHAR 3630
ENCODING 13872
SWIDTH 960 0
DWIDTH 12 0
BBX 12 10 0 -1
BITMAP
ffe0
1540
f7c0
8540
ffe0
1540
17c0
2540
cfe0
0000
ENDCHAR
STARTCHAR 3631
ENCODING 13873
SWIDTH 960 0
DWIDTH 12 0
BBX 12 10 0 -1
BITMAP
2100
27c0
b100
b100
afe0
2200
2240
24c0
2f20
0000
ENDCHAR
STARTCHAR 3632
ENCODING 13874
SWIDTH 960 0
DWIDTH 12 0
BBX 12 10 0 -1
BITMAP
f7c0
2440
2640
3560
c460
0800
5420
92a0
8fa0
0000
ENDCHAR
STARTCHAR 3633
ENCODING 13875
SWIDTH 960 0
DWIDTH 12 0
BBX 12 10 0 -1
BITMAP
1100
7fc0
1100
ffe0
2080
4440
95a0
2540
0c00
0000
ENDCHAR
STARTCHAR 3634
ENCODING 13876
SWIDTH 960 0
DWIDTH 12 0
BBX 12 10 0 -1
BITMAP
2100
27c0
f100
2520
3340
efe0
2100
2280
6c60
0000
ENDCHAR
STARTCHAR 3635
ENCODING 13877
SWIDTH 960 0
DWIDTH 12 0
BBX 12 10 0 -1
BITMAP
2200
fbe0
2240
fa40
7540
9080
3880
d140
3620
0000
ENDCHAR
STARTCHAR 3636
ENCODING 13878
SWIDTH 960 0
DWIDTH 12 0
BBX 12 10 0 -1
BITMAP
20c0
2f00
f7e0
26c0
6ba0
bfe0
aaa0
2ba0
2860
0000
ENDCHAR
STARTCHAR 3637
ENCODING 13879
SWIDTH 960 0
DWIDTH 12 0
BBX 12 10 0 -1
BITMAP
cfc0
2840
0840
cfc0
2500
0500
2500
4920
91e0
0000
ENDCHAR
STARTCHAR 3638
ENCODING 13880
SWIDTH 960 0
DWIDTH 12 0
BBX 12 10 0 -1
BITMAP
9fe0
6100
a100
2100
57c0
9100
1100
2100
cfe0
0000
ENDCHAR
STARTCHAR 3639
ENCODING 13881
SWIDTH 960 0
DWIDTH 12 0
BBX 12 10 0 -1
BITMAP
9100
67c0
a100
2520
5340
9fe0
1100
2280
cc60
0000
ENDCHAR
STARTCHAR 363a
ENCODING 13882
SWIDTH 960 0
DWIDTH 12 0
BBX 12 10 0 -1
BITMAP
40c0
7700
afe0
26c0
fba0
2fe0
5aa0
4ba0
8860
0000
ENDCHAR
STARTCHAR 363b
ENCODING 13883
SWIDTH 960 0
DWIDTH 12 0
BBX 12 10 0 -1
BITMAP
e800
afe0
b120
e520
aaa0
eda0
a8a0
afa0
a060
0000
ENDCHAR
STARTCHAR 363c
ENCODING 13884
SWIDTH 960 0
DWIDTH 12 0
BBX 12 10 0 -1
BITMAP
0800
3f00
5180
fbe0
4920
bfa0
2080
3f80
2180
0000
ENDCHAR
STARTCHAR 363d
ENCODING 13885
SWIDTH 960 0
DWIDTH 12 0
BBX 12 10 0 -1
BITMAP
60e0
9f20
d160
9f20
db60
9f20
ffe0
2080
c060
0000
ENDCHAR
STARTCHAR 363e
ENCODING 13886
SWIDTH 960 0
DWIDTH 12 0
BBX 12 10 0 -1
BITMAP
2080
ffe0
1f00
ffe0
2a80
ce60
7fc0
4a40
4ec0
0000
ENDCHAR
STARTCHAR 363f
ENCODING 13887
SWIDTH 960 0
DWIDTH 12 0
BBX 12 10 0 -1
BITMAP
6ee0
8aa0
6ea0
8ac0
aea0
e8a0
2ba0
4dc0
9080
0000
ENDCHAR
STARTCHAR 3640
ENCODING 13888
SWIDTH 960 0
DWIDTH 12 0
BBX 12 10 0 -1
BITMAP
2100
57c0
8280
ffe0
27c0
f440
b7c0
6280
f4e0
0000
ENDCHAR
STARTCHAR 3641
ENCODING 13889
SWIDTH 960 0
DWIDTH 12 0
BBX 12 10 0 -1
BITMAP
6ee0
8aa0
6dc0
44a0
bfc0
1100
ffe0
2080
3f80
0000
ENDCHAR
STARTCHAR 3642
ENCODING 13890
SWIDTH 960 0
DWIDTH 12 0
BBX 12 10 0 -1
BITMAP
6ee0
8aa0
6dc0
24a0
dfc0
3180
df60
1200
1d80
0000
ENDCHAR
STARTCHAR 3643
ENCODING 13891
SWIDTH 960 0
DWIDTH 12 0
BBX 12 10 0 -1
BITMAP
53e0
fb40
6d80
9a60
3fc0
2200
3fe0
0020
5560
0000
ENDCHAR
STARTCHAR 3644
ENCODING 13892
SWIDTH 960 0
DWIDTH 12 0
BBX 12 10 0 -1
BITMAP
1200
1de0
2920
6920
a920
2920
2f20
3940
2100
0000
ENDCHAR
STARTCHAR 3645
ENCODING 13893
SWIDTH 960 0
DWIDTH 12 0
BBX 12 10 0 -1
BITMAP
11e0
de20
30c0
0e40
11e0
5e40
5560
8dc0
9360
0000
ENDCHAR
STARTCHAR 3646
ENCODING 13894
SWIDTH 960 0
DWIDTH 12 0
BBX 12 10 0 -1
BITMAP
0400
7fc0
2480
ffe0
2080
7fc0
1200
2220
c3e0
0000
ENDCHAR
STARTCHAR 3647
ENCODING 13895
SWIDTH 960 0
DWIDTH 12 0
BBX 12 10 0 -1
BITMAP
0100
ffe0
9540
9fe0
f440
9fe0
9280
f2a0
0ce0
0000
ENDCHAR
STARTCHAR 3648
ENCODING 13896
SWIDTH 960 0
DWIDTH 12 0
BBX 12 10 0 -1
BITMAP
4a40
ffe0
1100
ffe0
0400
ffe0
1500
2480
c460
0000
ENDCHAR
STARTCHAR 3649
ENCODING 13897
SWIDTH 960 0
DWIDTH 12 0
BBX 12 10 0 -1
BITMAP
7fc0
4040
7fc0
4000
7fe0
5f20
5120
5f20
8040
0000
ENDCHAR
STARTCHAR 364a
ENCODING 13898
SWIDTH 960 0
DWIDTH 12 0
BBX 12 10 0 -1
BITMAP
1100
1100
ffe0
9120
9120
ffe0
9120
9120
ffe0
0000
ENDCHAR
STARTCHAR 364b
ENCODING 13899
SWIDTH 960 0
DWIDTH 12 0
BBX 12 10 0 -1
BITMAP
2fe0
2200
f760
2120
6fa0
bb40
afa0
2100
2fe0
0000
ENDCHAR
STARTCHAR 364c
ENCODING 13900
SWIDTH 960 0
DWIDTH 12 0
BBX 12 10 0 -1
BITMAP
7fc0
0400
0400
0400
7fc0
0480
0440
0400
ffe0
0000
ENDCHAR
STARTCHAR 364d
ENCODING 13901
SWIDTH 960 0
DWIDTH 12 0
BBX 12 10 0 -1
BITMAP
2fe0
2820
fba0
2820
6ba0
baa0
aba0
2820
2860
0000
ENDCHAR
STARTCHAR 364e
ENCODING 13902
SWIDTH 960 0
DWIDTH 12 0
BBX 12 10 0 -1
BITMAP
20c0
b300
6100
f900
27e0
7100
a900
a100
2100
0000
ENDCHAR
STARTCHAR 364f
ENCODING 13903
SWIDTH 960 0
DWIDTH 12 0
BBX 12 10 0 -1
BITMAP
1440
1fe0
2fc0
6940
afc0
2100
2fc0
2100
3fe0
0000
ENDCHAR
STARTCHAR 3650
ENCODING 13904
SWIDTH 960 0
DWIDTH 12 0
BBX 12 10 0 -1
BITMAP
5100
f900
ffe0
a920
f920
2120
fa20
2220
fcc0
0000
ENDCHAR
STARTCHAR 3651
ENCODING 13905
SWIDTH 960 0
DWIDTH 12 0
BBX 12 10 0 -1
BITMAP
2400
27e0
f420
2ba0
2020
31a0
c620
0020
00c0
0000
ENDCHAR
STARTCHAR 3652
ENCODING 13906
SWIDTH 960 0
DWIDTH 12 0
BBX 12 10 0 -1
BITMAP
0400
7fc0
4440
4440
4440
4440
4440
44c0
0400
0000
ENDCHAR
STARTCHAR 3653
ENCODING 13907
SWIDTH 960 0
DWIDTH 12 0
BBX 12 10 0 -1
BITMAP
2100
57e0
8420
f7e0
2100
f7e0
b520
6560
f100
0000
ENDCHAR
STARTCHAR 3654
ENCODING 13908
SWIDTH 960 0
DWIDTH 12 0
BBX 12 10 0 -1
BITMAP
00c0
7f00
4000
7fe0
4200
4200
8200
8200
0200
0000
ENDCHAR
STARTCHAR 3655
ENCODING 13909
SWIDTH 960 0
DWIDTH 12 0
BBX 12 10 0 -1
BITMAP
1a00
6200
47e0
7d20
5100
5280
5280
9440
1420
0000
ENDCHAR
STARTCHAR 3656
ENCODING 13910
SWIDTH 960 0
DWIDTH 12 0
BBX 12 10 0 -1
BITMAP
2200
5200
83e0
f520
2940
f100
b280
6240
f420
0000
ENDCHAR
STARTCHAR 3657
ENCODING 13911
SWIDTH 960 0
DWIDTH 12 0
BBX 12 10 0 -1
BITMAP
fbe0
2080
eee0
1100
2e80
c060
3f80
0100
0600
0000
ENDCHAR
STARTCHAR 3658
ENCODING 13912
SWIDTH 960 0
DWIDTH 12 0
BBX 12 10 0 -1
BITMAP
2080
fbe0
71c0
aea0
0000
7fc0
0400
2480
cc60
0000
ENDCHAR
STARTCHAR 3659
ENCODING 13913
SWIDTH 960 0
DWIDTH 12 0
BBX 12 10 0 -1
BITMAP
0e00
3580
ffe0
2a80
2480
2a80
ffe0
8920
bea0
0000
ENDCHAR
STARTCHAR 365a
ENCODING 13914
SWIDTH 960 0
DWIDTH 12 0
BBX 12 10 0 -1
BITMAP
4200
7be0
9440
7900
4be0
7920
4920
7a20
9a60
0000
ENDCHAR
STARTCHAR 365b
ENCODING 13915
SWIDTH 960 0
DWIDTH 12 0
BBX 12 10 0 -1
BITMAP
fbe0
e120
94c0
e940
f220
0c40
7fc0
2480
c460
0000
ENDCHAR
STARTCHAR 365c
ENCODING 13916
SWIDTH 960 0
DWIDTH 12 0
BBX 12 10 0 -1
BITMAP
1100
ffe0
00c0
7f00
4000
7fe0
4200
4200
8200
0000
ENDCHAR
STARTCHAR 365d
ENCODING 13917
SWIDTH 960 0
DWIDTH 12 0
BBX 12 10 0 -1
BITMAP
1100
ffe0
7fc0
4f40
4440
7fc0
4e40
55c0
7fc0
0000
ENDCHAR
STARTCHAR 365e
ENCODING 13918
SWIDTH 960 0
DWIDTH 12 0
BBX 12 10 0 -1
BITMAP
2100
f280
1440
2ba0
7000
b7c0
a040
2080
2100
0000
ENDCHAR
STARTCHAR 365f
ENCODING 13919
SWIDTH 960 0
DWIDTH 12 0
BBX 12 10 0 -1
BITMAP
2440
ffe0
16c0
2d60
7000
bfe0
a100
2540
2b20
0000
ENDCHAR
STARTCHAR 3660
ENCODING 13920
SWIDTH 960 0
DWIDTH 12 0
BBX 12 10 0 -1
BITMAP
6280
0fe0
f7c0
0540
67c0
0100
f7c0
9100
f7e0
0000
ENDCHAR
STARTCHAR 3661
ENCODING 13921
SWIDTH 960 0
DWIDTH 12 0
BBX 12 10 0 -1
BITMAP
c040
2780
0400
e7e0
2480
2480
2880
5000
8fe0
0000
ENDCHAR
STARTCHAR 3662
ENCODING 13922
SWIDTH 960 0
DWIDTH 12 0
BBX 12 10 0 -1
BITMAP
0400
0a00
3180
df60
0400
7fc0
2480
1500
ffe0
0000
ENDCHAR
STARTCHAR 3663
ENCODING 13923
SWIDTH 960 0
DWIDTH 12 0
BBX 12 10 0 -1
BITMAP
0100
f280
9440
9ba0
9000
97c0
f040
0080
0100
0000
ENDCHAR
STARTCHAR 3664
ENCODING 13924
SWIDTH 960 0
DWIDTH 12 0
BBX 12 10 0 -1
BITMAP
27c0
5440
87c0
f440
27c0
f620
b540
6580
fe60
0000
ENDCHAR
STARTCHAR 3665
ENCODING 13925
SWIDTH 960 0
DWIDTH 12 0
BBX 12 10 0 -1
BITMAP
1000
1000
ff00
1100
1100
2100
2120
4120
80e0
0000
ENDCHAR
STARTCHAR 3666
ENCODING 13926
SWIDTH 960 0
DWIDTH 12 0
BBX 12 10 0 -1
BITMAP
17c0
1440
27c0
6440
a7c0
2440
2fe0
2440
2820
0000
ENDCHAR
STARTCHAR 3667
ENCODING 13927
SWIDTH 960 0
DWIDTH 12 0
BBX 12 10 0 -1
BITMAP
4000
7fe0
4020
be20
2220
2220
3e20
0040
0180
0000
ENDCHAR
STARTCHAR 3668
ENCODING 13928
SWIDTH 960 0
DWIDTH 12 0
BBX 12 10 0 -1
BITMAP
ffc0
8000
8880
8500
8300
8c80
b040
8000
ffe0
0000
ENDCHAR
STARTCHAR 3669
ENCODING 13929
SWIDTH 960 0
DWIDTH 12 0
BBX 12 10 0 -1
BITMAP
9400
67e0
a420
2ba0
52a0
92a0
13a0
2020
c0c0
0000
ENDCHAR
STARTCHAR 366a
ENCODING 13930
SWIDTH 960 0
DWIDTH 12 0
BBX 12 10 0 -1
BITMAP
f200
23c0
2440
f880
2080
2100
3280
c440
1820
0000
ENDCHAR
STARTCHAR 366b
ENCODING 13931
SWIDTH 960 0
DWIDTH 12 0
BBX 12 10 0 -1
BITMAP
47c0
7c00
a400
27c0
fc40
27c0
5400
4c00
87e0
0000
ENDCHAR
STARTCHAR 366c
ENCODING 13932
SWIDTH 960 0
DWIDTH 12 0
BBX 12 10 0 -1
BITMAP
1100
ffe0
1100
0400
ffe0
0400
3f80
2080
3f80
0000
ENDCHAR
STARTCHAR 366d
ENCODING 13933
SWIDTH 960 0
DWIDTH 12 0
BBX 12 10 0 -1
BITMAP
47e0
f400
9440
f540
9480
fcc0
3520
5600
b7e0
0000
ENDCHAR
STARTCHAR 366e
ENCODING 13934
SWIDTH 960 0
DWIDTH 12 0
BBX 12 10 0 -1
BITMAP
f7e0
a400
f440
a540
fc80
0cc0
ad20
ac00
17e0
0000
ENDCHAR
STARTCHAR 366f
ENCODING 13935
SWIDTH 960 0
DWIDTH 12 0
BBX 12 10 0 -1
BITMAP
f040
a380
f200
a3e0
fa40
0a40
aa40
aa40
17e0
0000
ENDCHAR
STARTCHAR 3670
ENCODING 13936
SWIDTH 960 0
DWIDTH 12 0
BBX 12 10 0 -1
BITMAP
f400
a7e0
f420
aba0
faa0
0aa0
aba0
a820
10c0
0000
ENDCHAR
STARTCHAR 3671
ENCODING 13937
SWIDTH 960 0
DWIDTH 12 0
BBX 12 10 0 -1
BITMAP
3f80
2080
3f80
2080
3f80
2080
ffe0
1100
60c0
0000
ENDCHAR
STARTCHAR 3672
ENCODING 13938
SWIDTH 960 0
DWIDTH 12 0
BBX 12 10 0 -1
BITMAP
3f80
2480
3f80
ffe0
8520
bea0
8060
5280
8fa0
0000
ENDCHAR
STARTCHAR 3673
ENCODING 13939
SWIDTH 960 0
DWIDTH 12 0
BBX 12 10 0 -1
BITMAP
0400
ffe0
be00
87c0
af80
a880
bfc0
8880
b060
0000
ENDCHAR
STARTCHAR 3674
ENCODING 13940
SWIDTH 960 0
DWIDTH 12 0
BBX 12 10 0 -1
BITMAP
0100
f280
9540
9fe0
9440
97c0
f540
0580
0e60
0000
ENDCHAR
STARTCHAR 3675
ENCODING 13941
SWIDTH 960 0
DWIDTH 12 0
BBX 12 10 0 -1
BITMAP
0400
ffe0
9220
1240
63c0
0000
3f80
0400
ffe0
0000
ENDCHAR
STARTCHAR 3676
ENCODING 13942
SWIDTH 960 0
DWIDTH 12 0
BBX 12 10 0 -1
BITMAP
17c0
1540
27c0
6540
afe0
2920
29a0
2f60
2860
0000
ENDCHAR
STARTCHAR 3677
ENCODING 13943
SWIDTH 960 0
DWIDTH 12 0
BBX 12 10 0 -1
BITMAP
0400
ffe0
a4a0
3f80
2480
7fc0
4540
5ec0
40c0
0000
ENDCHAR
STARTCHAR 3678
ENCODING 13944
SWIDTH 960 0
DWIDTH 12 0
BBX 12 10 0 -1
BITMAP
8f80
4a80
0f80
ca80
5fc0
5340
5ec0
d0c0
bfe0
0000
ENDCHAR
STARTCHAR 3679
ENCODING 13945
SWIDTH 960 0
DWIDTH 12 0
BBX 12 10 0 -1
BITMAP
f7c0
9540
a7c0
e540
9fe0
9920
a9a0
cf60
8860
0000
ENDCHAR
STARTCHAR 367a
ENCODING 13946
SWIDTH 960 0
DWIDTH 12 0
BBX 12 10 0 -1
BITMAP
0400
7fc0
4440
7fc0
0400
ffe0
8420
ffe0
0400
0000
ENDCHAR
STARTCHAR 367b
ENCODING 13947
SWIDTH 960 0
DWIDTH 12 0
BBX 12 10 0 -1
BITMAP
2880
2ee0
f540
2ee0
6aa0
bea0
a8a0
2ba0
2d80
0000
ENDCHAR
STARTCHAR 367c
ENCODING 13948
SWIDTH 960 0
DWIDTH 12 0
BBX 12 10 0 -1
BITMAP
2220
52a0
82a0
f2a0
22a0
f2a0
b4a0
6420
f820
0000
ENDCHAR
STARTCHAR 367d
ENCODING 13949
SWIDTH 960 0
DWIDTH 12 0
BBX 12 10 0 -1
BITMAP
7fe0
4020
7fe0
5240
4a80
5fc0
5040
9fc0
90c0
0000
ENDCHAR
STARTCHAR 367e
ENCODING 13950
SWIDTH 960 0
DWIDTH 12 0
BBX 12 10 0 -1
BITMAP
7fe0
4020
7fe0
4200
5240
5fc0
4200
a220
bfe0
0000
ENDCHAR
STARTCHAR 3721
ENCODING 14113
SWIDTH 960 0
DWIDTH 12 0
BBX 12 10 0 -1
BITMAP
27e0
2420
f7e0
2480
36a0
e7e0
2480
2aa0
6be0
0000
ENDCHAR
STARTCHAR 3722
ENCODING 14114
SWIDTH 960 0
DWIDTH 12 0
BBX 12 10 0 -1
BITMAP
0400
ffe0
bba0
4040
7fc0
5480
5f80
a440
bfc0
0000
ENDCHAR
STARTCHAR 3723
ENCODING 14115
SWIDTH 960 0
DWIDTH 12 0
BBX 12 10 0 -1
BITMAP
0440
7e80
1500
6cc0
bfa0
2080
3f80
2080
3f80
0000
ENDCHAR
STARTCHAR 3724
ENCODING 14116
SWIDTH 960 0
DWIDTH 12 0
BBX 12 10 0 -1
BITMAP
5180
f980
52a0
fac0
ae80
fa80
2280
faa0
22e0
0000
ENDCHAR
STARTCHAR 3725
ENCODING 14117
SWIDTH 960 0
DWIDTH 12 0
BBX 12 10 0 -1
BITMAP
6460
8e80
6460
8e80
eee0
4440
7fc0
4040
7fc0
0000
ENDCHAR
STARTCHAR 3726
ENCODING 14118
SWIDTH 960 0
DWIDTH 12 0
BBX 12 10 0 -1
BITMAP
0400
ffe0
bba0
6100
07c0
6100
07c0
2100
cfe0
0000
ENDCHAR
STARTCHAR 3727
ENCODING 14119
SWIDTH 960 0
DWIDTH 12 0
BBX 12 10 0 -1
BITMAP
22c0
4b00
fde0
4ac0
7b00
49e0
0000
5240
8920
0000
ENDCHAR
STARTCHAR 3728
ENCODING 14120
SWIDTH 960 0
DWIDTH 12 0
BBX 12 10 0 -1
BITMAP
f7c0
9540
a7c0
e540
9fe0
9500
a4a0
c5c0
8e20
0000
ENDCHAR
STARTCHAR 3729
ENCODING 14121
SWIDTH 960 0
DWIDTH 12 0
BBX 12 10 0 -1
BITMAP
1f00
7100
0e00
3580
d560
0e00
ffe0
3580
c460
0000
ENDCHAR
STARTCHAR 372a
ENCODING 14122
SWIDTH 960 0
DWIDTH 12 0
BBX 12 10 0 -1
BITMAP
ffe0
1100
7fc0
5140
7fc0
0400
ffe0
3580
c460
0000
ENDCHAR
STARTCHAR 372b
ENCODING 14123
SWIDTH 960 0
DWIDTH 12 0
BBX 12 10 0 -1
BITMAP
6380
8280
6fe0
8aa0
eee0
2100
b7e0
a380
2d60
0000
ENDCHAR
STARTCHAR 372c
ENCODING 14124
SWIDTH 960 0
DWIDTH 12 0
BBX 12 10 0 -1
BITMAP
3f00
1100
0e00
7bc0
3180
4e40
ffe0
3580
c460
0000
ENDCHAR
STARTCHAR 372d
ENCODING 14125
SWIDTH 960 0
DWIDTH 12 0
BBX 12 10 0 -1
BITMAP
2140
5640
82e0
ffe0
2240
f740
ba40
62a0
f320
0000
ENDCHAR
STARTCHAR 372e
ENCODING 14126
SWIDTH 960 0
DWIDTH 12 0
BBX 12 10 0 -1
BITMAP
1900
e100
fbe0
a920
f120
3a60
c000
5240
8920
0000
ENDCHAR
STARTCHAR 372f
ENCODING 14127
SWIDTH 960 0
DWIDTH 12 0
BBX 12 10 0 -1
BITMAP
7f80
0880
ffe0
1080
7f80
2000
7fc0
a040
3fc0
0000
ENDCHAR
STARTCHAR 3730
ENCODING 14128
SWIDTH 960 0
DWIDTH 12 0
BBX 12 10 0 -1
BITMAP
1100
ffe0
7fc0
2480
7fc0
0400
ffe0
5240
8920
0000
ENDCHAR
STARTCHAR 3731
ENCODING 14129
SWIDTH 960 0
DWIDTH 12 0
BBX 12 10 0 -1
BITMAP
6220
02a0
f2a0
02a0
62a0
02a0
f4a0
9420
f820
0000
ENDCHAR
STARTCHAR 3732
ENCODING 14130
SWIDTH 960 0
DWIDTH 12 0
BBX 12 10 0 -1
BITMAP
f440
5280
ffe0
5100
f7c0
4100
7fe0
c900
7900
0000
ENDCHAR
STARTCHAR 3733
ENCODING 14131
SWIDTH 960 0
DWIDTH 12 0
BBX 12 10 0 -1
BITMAP
ffe0
8420
7fc0
3f80
2480
3f80
0400
ffe0
0400
0000
ENDCHAR
STARTCHAR 3734
ENCODING 14132
SWIDTH 960 0
DWIDTH 12 0
BBX 12 10 0 -1
BITMAP
f3c0
5240
fa80
5280
f240
4220
7a20
cac0
7a00
0000
ENDCHAR
STARTCHAR 3735
ENCODING 14133
SWIDTH 960 0
DWIDTH 12 0
BBX 12 10 0 -1
BITMAP
1100
7d00
1100
fd00
11c0
7d20
1100
1d00
e100
0000
ENDCHAR
STARTCHAR 3736
ENCODING 14134
SWIDTH 960 0
DWIDTH 12 0
BBX 12 10 0 -1
BITMAP
4000
fbe0
4a20
9be0
0400
ffe0
3280
d300
3ce0
0000
ENDCHAR
STARTCHAR 3737
ENCODING 14135
SWIDTH 960 0
DWIDTH 12 0
BBX 12 10 0 -1
BITMAP
23c0
fa40
1280
2280
7240
aa20
a220
22c0
2200
0000
ENDCHAR
STARTCHAR 3738
ENCODING 14136
SWIDTH 960 0
DWIDTH 12 0
BBX 12 10 0 -1
BITMAP
10c0
1f00
2240
6180
a220
2fe0
2120
2540
2920
0000
ENDCHAR
STARTCHAR 3739
ENCODING 14137
SWIDTH 960 0
DWIDTH 12 0
BBX 12 10 0 -1
BITMAP
23e0
3080
53e0
de20
d3e0
5220
53e0
4d40
4220
0000
ENDCHAR
STARTCHAR 373a
ENCODING 14138
SWIDTH 960 0
DWIDTH 12 0
BBX 12 10 0 -1
BITMAP
fc20
4920
4920
ff20
4920
4920
4920
8820
8860
0000
ENDCHAR
STARTCHAR 373b
ENCODING 14139
SWIDTH 960 0
DWIDTH 12 0
BBX 12 10 0 -1
BITMAP
7fc0
4040
4040
4040
7fc0
1200
1200
2220
c3e0
0000
ENDCHAR
STARTCHAR 373c
ENCODING 14140
SWIDTH 960 0
DWIDTH 12 0
BBX 12 10 0 -1
BITMAP
fa00
03e0
7a40
4d40
7880
4360
bf80
2080
3f80
0000
ENDCHAR
STARTCHAR 373d
ENCODING 14141
SWIDTH 960 0
DWIDTH 12 0
BBX 12 10 0 -1
BITMAP
0400
7fc0
0400
ffe0
0400
7fc0
0400
0400
ffe0
0000
ENDCHAR
STARTCHAR 373e
ENCODING 14142
SWIDTH 960 0
DWIDTH 12 0
BBX 12 10 0 -1
BITMAP
0100
f7c0
2100
2fe0
f100
27c0
3100
c100
0fe0
0000
ENDCHAR
STARTCHAR 373f
ENCODING 14143
SWIDTH 960 0
DWIDTH 12 0
BBX 12 10 0 -1
BITMAP
fc20
4920
fd20
4920
8860
0400
7fc0
0400
ffe0
0000
ENDCHAR
STARTCHAR 3740
ENCODING 14144
SWIDTH 960 0
DWIDTH 12 0
BBX 12 10 0 -1
BITMAP
2000
fbe0
2120
3920
e260
0400
ffe0
1100
e0e0
0000
ENDCHAR
STARTCHAR 3741
ENCODING 14145
SWIDTH 960 0
DWIDTH 12 0
BBX 12 10 0 -1
BITMAP
fc40
4880
4b00
4840
fc80
4b00
4820
48c0
8b00
0000
ENDCHAR
STARTCHAR 3742
ENCODING 14146
SWIDTH 960 0
DWIDTH 12 0
BBX 12 10 0 -1
BITMAP
27c0
4440
9280
2180
6660
a100
27c0
2100
2fe0
0000
ENDCHAR
STARTCHAR 3743
ENCODING 14147
SWIDTH 960 0
DWIDTH 12 0
BBX 12 10 0 -1
BITMAP
0400
ffe0
2480
3f80
2480
3f80
1400
52a0
8fa0
0000
ENDCHAR
STARTCHAR 3744
ENCODING 14148
SWIDTH 960 0
DWIDTH 12 0
BBX 12 10 0 -1
BITMAP
0400
7fe0
7fc0
5140
7fc0
6fa0
5880
8700
b8e0
0000
ENDCHAR
STARTCHAR 3745
ENCODING 14149
SWIDTH 960 0
DWIDTH 12 0
BBX 12 10 0 -1
BITMAP
2080
fbe0
2080
fbe0
7fc0
0040
7fc0
52a0
8fa0
0000
ENDCHAR
STARTCHAR 3746
ENCODING 14150
SWIDTH 960 0
DWIDTH 12 0
BBX 12 10 0 -1
BITMAP
1880
e3e0
2220
fbe0
8a20
fbe0
1400
52a0
8fa0
0000
ENDCHAR
STARTCHAR 3747
ENCODING 14151
SWIDTH 960 0
DWIDTH 12 0
BBX 12 10 0 -1
BITMAP
27c0
2440
f7c0
2440
33e0
e620
2ba0
2220
6340
0000
ENDCHAR
STARTCHAR 3748
ENCODING 14152
SWIDTH 960 0
DWIDTH 12 0
BBX 12 10 0 -1
BITMAP
2280
27c0
fc80
27c0
3480
efc0
22e0
2420
68c0
0000
ENDCHAR
STARTCHAR 3749
ENCODING 14153
SWIDTH 960 0
DWIDTH 12 0
BBX 12 10 0 -1
BITMAP
5200
fbe0
4240
7a40
8d40
e880
a880
e940
1620
0000
ENDCHAR
STARTCHAR 374a
ENCODING 14154
SWIDTH 960 0
DWIDTH 12 0
BBX 12 10 0 -1
BITMAP
3f80
2080
3f80
0400
ffe0
2080
3f80
2480
cc60
0000
ENDCHAR
STARTCHAR 374b
ENCODING 14155
SWIDTH 960 0
DWIDTH 12 0
BBX 12 10 0 -1
BITMAP
2100
27c0
f100
2fe0
6100
b7c0
a100
2100
2fe0
0000
ENDCHAR
STARTCHAR 374c
ENCODING 14156
SWIDTH 960 0
DWIDTH 12 0
BBX 12 10 0 -1
BITMAP
c0c0
2f20
0a40
c100
27c0
0100
2fe0
4280
8c60
0000
ENDCHAR
STARTCHAR 374d
ENCODING 14157
SWIDTH 960 0
DWIDTH 12 0
BBX 12 10 0 -1
BITMAP
0080
fbc0
a880
afe0
f880
abc0
a880
f880
07e0
0000
ENDCHAR
STARTCHAR 374e
ENCODING 14158
SWIDTH 960 0
DWIDTH 12 0
BBX 12 10 0 -1
BITMAP
1140
e7c0
22a0
f4e0
2780
6420
b3e0
a440
27c0
0000
ENDCHAR
STARTCHAR 374f
ENCODING 14159
SWIDTH 960 0
DWIDTH 12 0
BBX 12 10 0 -1
BITMAP
0380
7c00
1900
0e00
3040
ffe0
0420
3580
c460
0000
ENDCHAR
STARTCHAR 3750
ENCODING 14160
SWIDTH 960 0
DWIDTH 12 0
BBX 12 10 0 -1
BITMAP
67c0
8440
6280
8180
f660
2100
b7c0
a100
2fe0
0000
ENDCHAR
STARTCHAR 3751
ENCODING 14161
SWIDTH 960 0
DWIDTH 12 0
BBX 12 10 0 -1
BITMAP
6480
86a0
75c0
87e0
fc80
25c0
b6a0
a480
27e0
0000
ENDCHAR
STARTCHAR 3752
ENCODING 14162
SWIDTH 960 0
DWIDTH 12 0
BBX 12 10 0 -1
BITMAP
13c0
fe60
5bc0
fd80
3260
0c40
7fc0
2480
c460
0000
ENDCHAR
STARTCHAR 3753
ENCODING 14163
SWIDTH 960 0
DWIDTH 12 0
BBX 12 10 0 -1
BITMAP
ffe0
9120
ffe0
1080
7e80
10c0
7ca0
1080
fe80
0000
ENDCHAR
STARTCHAR 3754
ENCODING 14164
SWIDTH 960 0
DWIDTH 12 0
BBX 12 10 0 -1
BITMAP
1100
ffe0
7f80
1100
0e00
f5e0
3f80
0400
ffe0
0000
ENDCHAR
STARTCHAR 3755
ENCODING 14165
SWIDTH 960 0
DWIDTH 12 0
BBX 12 10 0 -1
BITMAP
1100
ffe0
0000
fd20
4920
fd20
4920
4820
8860
0000
ENDCHAR
STARTCHAR 3756
ENCODING 14166
SWIDTH 960 0
DWIDTH 12 0
BBX 12 10 0 -1
BITMAP
2880
ffe0
8420
3f80
2480
3f80
0400
04c0
7f40
0000
ENDCHAR
STARTCHAR 3757
ENCODING 14167
SWIDTH 960 0
DWIDTH 12 0
BBX 12 10 0 -1
BITMAP
7080
0080
f880
07e0
7080
0080
f880
8880
f880
0000
ENDCHAR
STARTCHAR 3758
ENCODING 14168
SWIDTH 960 0
DWIDTH 12 0
BBX 12 10 0 -1
BITMAP
6400
0780
f420
03e0
67c0
0440
f7c0
9440
f7c0
0000
ENDCHAR
STARTCHAR 3759
ENCODING 14169
SWIDTH 960 0
DWIDTH 12 0
BBX 12 10 0 -1
BITMAP
4900
fde0
7a40
c980
3f60
ffe0
1f00
2080
3f80
0000
ENDCHAR
STARTCHAR 375a
ENCODING 14170
SWIDTH 960 0
DWIDTH 12 0
BBX 12 10 0 -1
BITMAP
27c0
f440
2280
f180
b660
f100
27c0
f100
2fe0
0000
ENDCHAR
STARTCHAR 375b
ENCODING 14171
SWIDTH 960 0
DWIDTH 12 0
BBX 12 10 0 -1
BITMAP
f3e0
5080
23e0
da20
23e0
fa20
23e0
3940
e220
0000
ENDCHAR
STARTCHAR 375c
ENCODING 14172
SWIDTH 960 0
DWIDTH 12 0
BBX 12 10 0 -1
BITMAP
1880
e3c0
aa40
53c0
fa40
23e0
f820
52a0
8aa0
0000
ENDCHAR
STARTCHAR 375d
ENCODING 14173
SWIDTH 960 0
DWIDTH 12 0
BBX 12 10 0 -1
BITMAP
1100
ffe0
0000
3f80
0000
ffe0
0880
3180
7e40
0000
ENDCHAR
STARTCHAR 375e
ENCODING 14174
SWIDTH 960 0
DWIDTH 12 0
BBX 12 10 0 -1
BITMAP
c200
2de0
0920
e920
2920
2b20
3d40
6100
9fe0
0000
ENDCHAR
STARTCHAR 375f
ENCODING 14175
SWIDTH 960 0
DWIDTH 12 0
BBX 12 10 0 -1
BITMAP
7080
97e0
fbc0
aa40
fbc0
a880
faa0
22a0
d980
0000
ENDCHAR
STARTCHAR 3760
ENCODING 14176
SWIDTH 960 0
DWIDTH 12 0
BBX 12 10 0 -1
BITMAP
1820
fea0
faa0
a0a0
9ea0
b8a0
daa0
ac20
da60
0000
ENDCHAR
STARTCHAR 3761
ENCODING 14177
SWIDTH 960 0
DWIDTH 12 0
BBX 12 10 0 -1
BITMAP
2140
f920
27e0
f900
8940
f8c0
2080
f960
2620
0000
ENDCHAR
STARTCHAR 3762
ENCODING 14178
SWIDTH 960 0
DWIDTH 12 0
BBX 12 10 0 -1
BITMAP
13c0
fe60
5bc0
fd80
1660
7fc0
0400
ffe0
0c00
0000
ENDCHAR
STARTCHAR 3763
ENCODING 14179
SWIDTH 960 0
DWIDTH 12 0
BBX 12 10 0 -1
BITMAP
8900
5d00
15e0
9d40
4940
3e80
5c80
9540
ae20
0000
ENDCHAR
STARTCHAR 3764
ENCODING 14180
SWIDTH 960 0
DWIDTH 12 0
BBX 12 10 0 -1
BITMAP
f100
9540
ab20
e7c0
9440
97c0
a940
c920
9320
0000
ENDCHAR
STARTCHAR 3765
ENCODING 14181
SWIDTH 960 0
DWIDTH 12 0
BBX 12 10 0 -1
BITMAP
2200
24e0
fa00
25e0
6c40
b440
a440
2440
24c0
0000
ENDCHAR
STARTCHAR 3766
ENCODING 14182
SWIDTH 960 0
DWIDTH 12 0
BBX 12 10 0 -1
BITMAP
1440
17e0
2b40
65e0
b940
2fe0
2380
2540
2920
0000
ENDCHAR
STARTCHAR 3767
ENCODING 14183
SWIDTH 960 0
DWIDTH 12 0
BBX 12 10 0 -1
BITMAP
2000
2000
3fe0
4440
8480
0a00
1100
2080
c060
0000
ENDCHAR
STARTCHAR 3768
ENCODING 14184
SWIDTH 960 0
DWIDTH 12 0
BBX 12 10 0 -1
BITMAP
c200
2fc0
0240
c240
1fe0
0200
2300
4480
9860
0000
ENDCHAR
STARTCHAR 3769
ENCODING 14185
SWIDTH 960 0
DWIDTH 12 0
BBX 12 10 0 -1
BITMAP
c5e0
2ea0
04a0
c7a0
2d80
0340
2fe0
4540
8920
0000
ENDCHAR
STARTCHAR 376a
ENCODING 14186
SWIDTH 960 0
DWIDTH 12 0
BBX 12 10 0 -1
BITMAP
0400
ffe0
8020
8020
1100
1100
1100
2080
c060
0000
ENDCHAR
STARTCHAR 376b
ENCODING 14187
SWIDTH 960 0
DWIDTH 12 0
BBX 12 10 0 -1
BITMAP
6100
8fe0
6100
87c0
f000
27c0
b440
a440
27c0
0000
ENDCHAR
STARTCHAR 376c
ENCODING 14188
SWIDTH 960 0
DWIDTH 12 0
BBX 12 10 0 -1
BITMAP
0400
0800
3000
7fc0
5240
5240
5240
5240
ffe0
0000
ENDCHAR
STARTCHAR 376d
ENCODING 14189
SWIDTH 960 0
DWIDTH 12 0
BBX 12 10 0 -1
BITMAP
6100
07c0
f140
0140
6fe0
0100
f100
9280
fc60
0000
ENDCHAR
STARTCHAR 376e
ENCODING 14190
SWIDTH 960 0
DWIDTH 12 0
BBX 12 10 0 -1
BITMAP
3fc0
2040
2040
3fc0
2040
3fc0
2040
4040
80c0
0000
ENDCHAR
STARTCHAR 376f
ENCODING 14191
SWIDTH 960 0
DWIDTH 12 0
BBX 12 10 0 -1
BITMAP
1500
1500
27e0
6900
a100
2fe0
2100
2100
2100
0000
ENDCHAR
STARTCHAR 3770
ENCODING 14192
SWIDTH 960 0
DWIDTH 12 0
BBX 12 10 0 -1
BITMAP
1100
1280
37c0
6920
a7c0
2540
27c0
2280
2c60
0000
ENDCHAR
STARTCHAR 3771
ENCODING 14193
SWIDTH 960 0
DWIDTH 12 0
BBX 12 10 0 -1
BITMAP
1540
17c0
2280
6fe0
a7c0
38a0
2780
2420
23e0
0000
ENDCHAR
STARTCHAR 3772
ENCODING 14194
SWIDTH 960 0
DWIDTH 12 0
BBX 12 10 0 -1
BITMAP
2100
3bc0
4fe0
c940
d3c0
5900
6fe0
5900
67e0
0000
ENDCHAR
STARTCHAR 3773
ENCODING 14195
SWIDTH 960 0
DWIDTH 12 0
BBX 12 10 0 -1
BITMAP
1100
ffe0
0a00
7f80
0ae0
7f80
1b00
2a80
ca60
0000
ENDCHAR
STARTCHAR 3774
ENCODING 14196
SWIDTH 960 0
DWIDTH 12 0
BBX 12 10 0 -1
BITMAP
2880
7fc0
1200
ffe0
2080
df60
0900
1100
6300
0000
ENDCHAR
STARTCHAR 3775
ENCODING 14197
SWIDTH 960 0
DWIDTH 12 0
BBX 12 10 0 -1
BITMAP
1820
2520
7920
9120
7d20
5520
7d20
2820
c4e0
0000
ENDCHAR
STARTCHAR 3776
ENCODING 14198
SWIDTH 960 0
DWIDTH 12 0
BBX 12 10 0 -1
BITMAP
0100
0fe0
fba0
9000
97c0
9440
f7c0
0000
0fe0
0000
ENDCHAR
STARTCHAR 3777
ENCODING 14199
SWIDTH 960 0
DWIDTH 12 0
BBX 12 10 0 -1
BITMAP
ffe0
9520
bfa0
8a20
ffe0
bea0
d160
8f20
ffe0
0000
ENDCHAR
STARTCHAR 3778
ENCODING 14200
SWIDTH 960 0
DWIDTH 12 0
BBX 12 10 0 -1
BITMAP
fbe0
e120
9940
e080
fb60
0400
3f80
0400
ffe0
0000
ENDCHAR
STARTCHAR 3779
ENCODING 14201
SWIDTH 960 0
DWIDTH 12 0
BBX 12 10 0 -1
BITMAP
4440
4fe0
f280
57c0
92e0
afc0
e280
56c0
8aa0
0000
ENDCHAR
STARTCHAR 377a
ENCODING 14202
SWIDTH 960 0
DWIDTH 12 0
BBX 12 10 0 -1
BITMAP
e100
27c0
4fe0
e140
27c0
a100
4fe0
6100
9fe0
0000
ENDCHAR
STARTCHAR 377b
ENCODING 14203
SWIDTH 960 0
DWIDTH 12 0
BBX 12 10 0 -1
BITMAP
0400
ffe0
bfa0
0400
ffe0
2a80
3f80
52a0
8fa0
0000
ENDCHAR
STARTCHAR 377c
ENCODING 14204
SWIDTH 960 0
DWIDTH 12 0
BBX 12 10 0 -1
BITMAP
38c0
ab80
b940
fbe0
2080
aaa0
1000
52a0
8fa0
0000
ENDCHAR
STARTCHAR 377d
ENCODING 14205
SWIDTH 960 0
DWIDTH 12 0
BBX 12 10 0 -1
BITMAP
2880
7fc0
1100
ffe0
2680
dc60
7fc0
0400
1c00
0000
ENDCHAR
STARTCHAR 377e
ENCODING 14206
SWIDTH 960 0
DWIDTH 12 0
BBX 12 10 0 -1
BITMAP
2540
27c0
f280
2fe0
37c0
e8a0
2780
2420
63e0
0000
ENDCHAR
STARTCHAR 3821
ENCODING 14369
SWIDTH 960 0
DWIDTH 12 0
BBX 12 10 0 -1
BITMAP
2100
2280
f7c0
2920
67c0
b540
a7c0
2280
2c60
0000
ENDCHAR
STARTCHAR 3822
ENCODING 14370
SWIDTH 960 0
DWIDTH 12 0
BBX 12 10 0 -1
BITMAP
2400
27c0
fa00
2480
6fe0
b500
a7c0
2500
27e0
0000
ENDCHAR
STARTCHAR 3823
ENCODING 14371
SWIDTH 960 0
DWIDTH 12 0
BBX 12 10 0 -1
BITMAP
0400
ffe0
1900
ffe0
a420
3f80
4400
ffe0
0400
0000
ENDCHAR
STARTCHAR 3824
ENCODING 14372
SWIDTH 960 0
DWIDTH 12 0
BBX 12 10 0 -1
BITMAP
0480
0440
ffe0
0400
0a00
0a00
1100
2080
c060
0000
ENDCHAR
STARTCHAR 3825
ENCODING 14373
SWIDTH 960 0
DWIDTH 12 0
BBX 12 10 0 -1
BITMAP
10c0
fca0
1080
ffe0
ac80
bc80
9540
bd40
9620
0000
ENDCHAR
STARTCHAR 3826
ENCODING 14374
SWIDTH 960 0
DWIDTH 12 0
BBX 12 10 0 -1
BITMAP
fbe0
2140
2140
7940
cfe0
c940
4a40
7a40
0440
0000
ENDCHAR
STARTCHAR 3827
ENCODING 14375
SWIDTH 960 0
DWIDTH 12 0
BBX 12 10 0 -1
BITMAP
f7c0
4440
47c0
7440
d7c0
d440
57c0
72a0
0ce0
0000
ENDCHAR
STARTCHAR 3828
ENCODING 14376
SWIDTH 960 0
DWIDTH 12 0
BBX 12 10 0 -1
BITMAP
63c0
8240
63c0
87e0
f420
27e0
b420
a7e0
2460
0000
ENDCHAR
STARTCHAR 3829
ENCODING 14377
SWIDTH 960 0
DWIDTH 12 0
BBX 12 10 0 -1
BITMAP
1f80
9080
9f80
9080
9f80
8000
ffe0
2480
c460
0000
ENDCHAR
STARTCHAR 382a
ENCODING 14378
SWIDTH 960 0
DWIDTH 12 0
BBX 12 10 0 -1
BITMAP
ffe0
7fc0
4040
7fc0
5080
5f80
5080
9f80
9180
0000
ENDCHAR
STARTCHAR 382b
ENCODING 14379
SWIDTH 960 0
DWIDTH 12 0
BBX 12 10 0 -1
BITMAP
3f80
2080
3f80
2080
3f80
2080
3fa0
1220
e3e0
0000
ENDCHAR
STARTCHAR 382c
ENCODING 14380
SWIDTH 960 0
DWIDTH 12 0
BBX 12 10 0 -1
BITMAP
6440
0fe0
f280
0fc0
62e0
0fc0
f280
96c0
faa0
0000
ENDCHAR
STARTCHAR 382d
ENCODING 14381
SWIDTH 960 0
DWIDTH 12 0
BBX 12 10 0 -1
BITMAP
fbc0
e140
b380
ffe0
2080
3f80
2080
3f80
c060
0000
ENDCHAR
STARTCHAR 382e
ENCODING 14382
SWIDTH 960 0
DWIDTH 12 0
BBX 12 10 0 -1
BITMAP
27c0
f900
2100
f900
afe0
f900
2100
f900
2100
0000
ENDCHAR
STARTCHAR 382f
ENCODING 14383
SWIDTH 960 0
DWIDTH 12 0
BBX 12 10 0 -1
BITMAP
4100
27c0
0540
efe0
2480
27c0
2440
67c0
9fe0
0000
ENDCHAR
STARTCHAR 3830
ENCODING 14384
SWIDTH 960 0
DWIDTH 12 0
BBX 12 10 0 -1
BITMAP
2080
5dc0
87e0
f4c0
29c0
fc80
b7e0
6c80
f3e0
0000
ENDCHAR
STARTCHAR 3831
ENCODING 14385
SWIDTH 960 0
DWIDTH 12 0
BBX 12 10 0 -1
BITMAP
f100
9280
a7c0
e920
97c0
9540
a7c0
c280
8c60
0000
ENDCHAR
STARTCHAR 3832
ENCODING 14386
SWIDTH 960 0
DWIDTH 12 0
BBX 12 10 0 -1
BITMAP
fbe0
8880
fbe0
5220
dbe0
da20
d3e0
7940
c220
0000
ENDCHAR
STARTCHAR 3833
ENCODING 14387
SWIDTH 960 0
DWIDTH 12 0
BBX 12 10 0 -1
BITMAP
f100
a280
f7c0
a920
ffc0
0d40
afc0
aa80
1460
0000
ENDCHAR
STARTCHAR 3834
ENCODING 14388
SWIDTH 960 0
DWIDTH 12 0
BBX 12 10 0 -1
BITMAP
3900
2280
ffc0
8920
dfc0
ad40
dfc0
8a80
fc60
0000
ENDCHAR
STARTCHAR 3835
ENCODING 14389
SWIDTH 960 0
DWIDTH 12 0
BBX 12 10 0 -1
BITMAP
7fc0
0000
0000
ffe0
1200
1200
1220
2220
c1e0
0000
ENDCHAR
STARTCHAR 3836
ENCODING 14390
SWIDTH 960 0
DWIDTH 12 0
BBX 12 10 0 -1
BITMAP
7fe0
4200
5fc0
5040
5fc0
5040
5fc0
9280
a660
0000
ENDCHAR
STARTCHAR 3837
ENCODING 14391
SWIDTH 960 0
DWIDTH 12 0
BBX 12 10 0 -1
BITMAP
2440
ffe0
9100
fde0
a740
bd40
a480
fd40
8620
0000
ENDCHAR
STARTCHAR 3838
ENCODING 14392
SWIDTH 960 0
DWIDTH 12 0
BBX 12 10 0 -1
BITMAP
2000
27e0
4820
8820
5020
2020
4820
f420
04c0
0000
ENDCHAR
STARTCHAR 3839
ENCODING 14393
SWIDTH 960 0
DWIDTH 12 0
BBX 12 10 0 -1
BITMAP
f100
1fe0
f100
8200
f440
1280
1100
2260
cfa0
0000
ENDCHAR
STARTCHAR 383a
ENCODING 14394
SWIDTH 960 0
DWIDTH 12 0
BBX 12 10 0 -1
BITMAP
c140
3fe0
1100
df00
3f40
12c0
3e80
5160
a220
0000
ENDCHAR
STARTCHAR 383b
ENCODING 14395
SWIDTH 960 0
DWIDTH 12 0
BBX 12 10 0 -1
BITMAP
dfe0
3100
17c0
d440
37c0
1440
37c0
6540
a920
0000
ENDCHAR
STARTCHAR 383c
ENCODING 14396
SWIDTH 960 0
DWIDTH 12 0
BBX 12 10 0 -1
BITMAP
0400
ffe0
0800
1100
3200
0c00
0880
11c0
7e40
0000
ENDCHAR
STARTCHAR 383d
ENCODING 14397
SWIDTH 960 0
DWIDTH 12 0
BBX 12 10 0 -1
BITMAP
f7c0
2440
27c0
f440
27c0
2440
37c0
c2a0
0ce0
0000
ENDCHAR
STARTCHAR 383e
ENCODING 14398
SWIDTH 960 0
DWIDTH 12 0
BBX 12 10 0 -1
BITMAP
6100
8fe0
6100
8200
f440
2280
b100
a260
2fa0
0000
ENDCHAR
STARTCHAR 383f
ENCODING 14399
SWIDTH 960 0
DWIDTH 12 0
BBX 12 10 0 -1
BITMAP
4100
f7e0
9100
d200
9640
f980
9100
d260
97a0
0000
ENDCHAR
STARTCHAR 3840
ENCODING 14400
SWIDTH 960 0
DWIDTH 12 0
BBX 12 10 0 -1
BITMAP
3f00
0000
ffe0
0000
3f80
0000
7fc0
4040
7fc0
0000
ENDCHAR
STARTCHAR 3841
ENCODING 14401
SWIDTH 960 0
DWIDTH 12 0
BBX 12 10 0 -1
BITMAP
6100
07e0
f240
07e0
6580
0440
f580
9460
f980
0000
ENDCHAR
STARTCHAR 3842
ENCODING 14402
SWIDTH 960 0
DWIDTH 12 0
BBX 12 10 0 -1
BITMAP
f7c0
9440
a7c0
e440
97c0
9620
a540
c580
8e60
0000
ENDCHAR
STARTCHAR 3843
ENCODING 14403
SWIDTH 960 0
DWIDTH 12 0
BBX 12 10 0 -1
BITMAP
03c0
7c00
0440
2440
1480
ffe0
0400
0400
1c00
0000
ENDCHAR
STARTCHAR 3844
ENCODING 14404
SWIDTH 960 0
DWIDTH 12 0
BBX 12 10 0 -1
BITMAP
1fe0
2920
2ba0
6920
aba0
2aa0
2ba0
2820
2fe0
0000
ENDCHAR
STARTCHAR 3845
ENCODING 14405
SWIDTH 960 0
DWIDTH 12 0
BBX 12 10 0 -1
BITMAP
0400
0400
ffe0
0400
0400
7fc0
4040
4040
7fc0
0000
ENDCHAR
STARTCHAR 3846
ENCODING 14406
SWIDTH 960 0
DWIDTH 12 0
BBX 12 10 0 -1
BITMAP
00c0
f700
9120
9520
9340
9fe0
f100
0100
0300
0000
ENDCHAR
STARTCHAR 3847
ENCODING 14407
SWIDTH 960 0
DWIDTH 12 0
BBX 12 10 0 -1
BITMAP
ffe0
8420
bfa0
8420
9f20
9120
9f20
8020
ffe0
0000
ENDCHAR
STARTCHAR 3848
ENCODING 14408
SWIDTH 960 0
DWIDTH 12 0
BBX 12 10 0 -1
BITMAP
4100
4100
ffe0
5100
9100
a7c0
e440
5440
87c0
0000
ENDCHAR
STARTCHAR 3849
ENCODING 14409
SWIDTH 960 0
DWIDTH 12 0
BBX 12 10 0 -1
BITMAP
f060
17c0
2540
3540
e540
2540
2940
29a0
73a0
0000
ENDCHAR
STARTCHAR 384a
ENCODING 14410
SWIDTH 960 0
DWIDTH 12 0
BBX 12 10 0 -1
BITMAP
7fc0
0040
0040
7fc0
4000
4000
4020
4020
3fe0
0000
ENDCHAR
STARTCHAR 384b
ENCODING 14411
SWIDTH 960 0
DWIDTH 12 0
BBX 12 10 0 -1
BITMAP
0400
7fe0
4200
7fe0
5240
5fc0
4200
bfe0
8200
0000
ENDCHAR
STARTCHAR 384c
ENCODING 14412
SWIDTH 960 0
DWIDTH 12 0
BBX 12 10 0 -1
BITMAP
f060
17c0
f540
8540
f540
1540
1540
29a0
cba0
0000
ENDCHAR
STARTCHAR 384d
ENCODING 14413
SWIDTH 960 0
DWIDTH 12 0
BBX 12 10 0 -1
BITMAP
ffe0
0000
7fc0
4040
4040
7fc0
4000
4000
8000
0000
ENDCHAR
STARTCHAR 384e
ENCODING 14414
SWIDTH 960 0
DWIDTH 12 0
BBX 12 10 0 -1
BITMAP
2200
23e0
fa40
2240
fd40
8880
8880
f940
0620
0000
ENDCHAR
STARTCHAR 384f
ENCODING 14415
SWIDTH 960 0
DWIDTH 12 0
BBX 12 10 0 -1
BITMAP
2100
2100
f7e0
2100
6100
b7c0
a440
2440
27c0
0000
ENDCHAR
STARTCHAR 3850
ENCODING 14416
SWIDTH 960 0
DWIDTH 12 0
BBX 12 10 0 -1
BITMAP
84e0
44a0
1ea0
84e0
5ea0
12e0
32a0
5ea0
8160
0000
ENDCHAR
STARTCHAR 3851
ENCODING 14417
SWIDTH 960 0
DWIDTH 12 0
BBX 12 10 0 -1
BITMAP
9060
67c0
a540
2540
5540
9540
1540
29a0
cba0
0000
ENDCHAR
STARTCHAR 3852
ENCODING 14418
SWIDTH 960 0
DWIDTH 12 0
BBX 12 10 0 -1
BITMAP
24e0
b4a0
6ea0
f4e0
2fa0
79e0
a9a0
afa0
2160
0000
ENDCHAR
STARTCHAR 3853
ENCODING 14419
SWIDTH 960 0
DWIDTH 12 0
BBX 12 10 0 -1
BITMAP
2100
f7e0
1240
2420
77c0
b200
a7e0
2020
20c0
0000
ENDCHAR
STARTCHAR 3854
ENCODING 14420
SWIDTH 960 0
DWIDTH 12 0
BBX 12 10 0 -1
BITMAP
73c0
5240
5240
7460
53c0
7240
5280
5180
b660
0000
ENDCHAR
STARTCHAR 3855
ENCODING 14421
SWIDTH 960 0
DWIDTH 12 0
BBX 12 10 0 -1
BITMAP
23e0
2220
fa20
23e0
fa20
8be0
8a20
fa20
04e0
0000
ENDCHAR
STARTCHAR 3856
ENCODING 14422
SWIDTH 960 0
DWIDTH 12 0
BBX 12 10 0 -1
BITMAP
1100
ffe0
0000
f7e0
2540
4540
7540
c9a0
53a0
0000
ENDCHAR
STARTCHAR 3857
ENCODING 14423
SWIDTH 960 0
DWIDTH 12 0
BBX 12 10 0 -1
BITMAP
0400
0780
7fe0
4740
7c00
4380
4a00
5220
a1e0
0000
ENDCHAR
STARTCHAR 3858
ENCODING 14424
SWIDTH 960 0
DWIDTH 12 0
BBX 12 10 0 -1
BITMAP
6100
07e0
f240
0420
6fc0
0200
f7e0
9020
f0c0
0000
ENDCHAR
STARTCHAR 3859
ENCODING 14425
SWIDTH 960 0
DWIDTH 12 0
BBX 12 10 0 -1
BITMAP
f100
97e0
9240
f420
2fc0
b200
a7e0
b020
c0c0
0000
ENDCHAR
STARTCHAR 385a
ENCODING 14426
SWIDTH 960 0
DWIDTH 12 0
BBX 12 10 0 -1
BITMAP
2100
5100
8fe0
f100
2100
f7c0
b440
6440
f7c0
0000
ENDCHAR
STARTCHAR 385b
ENCODING 14427
SWIDTH 960 0
DWIDTH 12 0
BBX 12 10 0 -1
BITMAP
7fe0
0000
7fe0
5020
5fe0
7100
5fc0
5100
9fe0
0000
ENDCHAR
STARTCHAR 385c
ENCODING 14428
SWIDTH 960 0
DWIDTH 12 0
BBX 12 10 0 -1
BITMAP
fde0
0080
fde0
a520
bde0
e920
bde0
a940
be20
0000
ENDCHAR
STARTCHAR 385d
ENCODING 14429
SWIDTH 960 0
DWIDTH 12 0
BBX 12 10 0 -1
BITMAP
2100
ffe0
2100
ffc0
8a40
fa80
9100
5a80
e460
0000
ENDCHAR
STARTCHAR 385e
ENCODING 14430
SWIDTH 960 0
DWIDTH 12 0
BBX 12 10 0 -1
BITMAP
7fc0
0800
0800
0800
7f80
1080
1080
1080
ffe0
0000
ENDCHAR
STARTCHAR 385f
ENCODING 14431
SWIDTH 960 0
DWIDTH 12 0
BBX 12 10 0 -1
BITMAP
7fc0
1000
1f80
2080
2080
3f00
0100
0100
ffe0
0000
ENDCHAR
STARTCHAR 3860
ENCODING 14432
SWIDTH 960 0
DWIDTH 12 0
BBX 12 10 0 -1
BITMAP
17c0
1200
2200
6200
a7c0
2240
2240
2240
2fe0
0000
ENDCHAR
STARTCHAR 3861
ENCODING 14433
SWIDTH 960 0
DWIDTH 12 0
BBX 12 10 0 -1
BITMAP
4000
7fc0
4400
8400
0400
ffe0
0400
0400
0400
0000
ENDCHAR
STARTCHAR 3862
ENCODING 14434
SWIDTH 960 0
DWIDTH 12 0
BBX 12 10 0 -1
BITMAP
1f80
5080
5f80
4000
7fc0
0040
ffe0
1100
60c0
0000
ENDCHAR
STARTCHAR 3863
ENCODING 14435
SWIDTH 960 0
DWIDTH 12 0
BBX 12 10 0 -1
BITMAP
7fc0
1000
7f80
1080
ffe0
0000
7fc0
4040
7fc0
0000
ENDCHAR
STARTCHAR 3864
ENCODING 14436
SWIDTH 960 0
DWIDTH 12 0
BBX 12 10 0 -1
BITMAP
41c0
4540
f5c0
5400
97c0
a040
e7e0
5240
8420
0000
ENDCHAR
STARTCHAR 3865
ENCODING 14437
SWIDTH 960 0
DWIDTH 12 0
BBX 12 10 0 -1
BITMAP
2200
4c80
9500
2240
6fe0
a380
2c80
2300
2ce0
0000
ENDCHAR
STARTCHAR 3866
ENCODING 14438
SWIDTH 960 0
DWIDTH 12 0
BBX 12 10 0 -1
BITMAP
5000
9ee0
24a0
5ea0
c4a0
56a0
54e0
5e80
4080
0000
ENDCHAR
STARTCHAR 3867
ENCODING 14439
SWIDTH 960 0
DWIDTH 12 0
BBX 12 10 0 -1
BITMAP
27c0
2100
b7c0
b240
afe0
2000
27c0
2440
27c0
0000
ENDCHAR
STARTCHAR 3868
ENCODING 14440
SWIDTH 960 0
DWIDTH 12 0
BBX 12 10 0 -1
BITMAP
27c0
2100
f7c0
2240
6fe0
b000
a7c0
2440
27c0
0000
ENDCHAR
STARTCHAR 3869
ENCODING 14441
SWIDTH 960 0
DWIDTH 12 0
BBX 12 10 0 -1
BITMAP
2100
2280
f540
2fe0
66c0
b540
afe0
2aa0
2b60
0000
ENDCHAR
STARTCHAR 386a
ENCODING 14442
SWIDTH 960 0
DWIDTH 12 0
BBX 12 10 0 -1
BITMAP
e4e0
44a0
5ea0
e4e0
5ea0
52e0
72a0
dea0
0160
0000
ENDCHAR
STARTCHAR 386b
ENCODING 14443
SWIDTH 960 0
DWIDTH 12 0
BBX 12 10 0 -1
BITMAP
1100
7fc0
1100
1f00
1100
ffe0
5f40
b120
1f00
0000
ENDCHAR
STARTCHAR 386c
ENCODING 14444
SWIDTH 960 0
DWIDTH 12 0
BBX 12 10 0 -1
BITMAP
67c0
0100
f7c0
0240
6fe0
0000
f7c0
9440
f7c0
0000
ENDCHAR
STARTCHAR 386d
ENCODING 14445
SWIDTH 960 0
DWIDTH 12 0
BBX 12 10 0 -1
BITMAP
61c0
0540
f5c0
0400
67c0
0040
f7e0
9240
f420
0000
ENDCHAR
STARTCHAR 386e
ENCODING 14446
SWIDTH 960 0
DWIDTH 12 0
BBX 12 10 0 -1
BITMAP
6240
0fe0
f680
0bc0
6280
07e0
f240
9180
f660
0000
ENDCHAR
STARTCHAR 386f
ENCODING 14447
SWIDTH 960 0
DWIDTH 12 0
BBX 12 10 0 -1
BITMAP
fae0
52a0
ffa0
dae0
cfa0
8de0
fda0
8fa0
f960
0000
ENDCHAR
STARTCHAR 3870
ENCODING 14448
SWIDTH 960 0
DWIDTH 12 0
BBX 12 10 0 -1
BITMAP
2000
3fc0
4000
bf80
0600
1800
2020
4020
3fe0
0000
ENDCHAR
STARTCHAR 3871
ENCODING 14449
SWIDTH 960 0
DWIDTH 12 0
BBX 12 10 0 -1
BITMAP
73e0
92a0
fbe0
aaa0
fbe0
a880
fbe0
3080
cbe0
0000
ENDCHAR
STARTCHAR 3872
ENCODING 14450
SWIDTH 960 0
DWIDTH 12 0
BBX 12 10 0 -1
BITMAP
0400
ffe0
1100
2080
d160
0a00
0400
1b00
e0e0
0000
ENDCHAR
STARTCHAR 3873
ENCODING 14451
SWIDTH 960 0
DWIDTH 12 0
BBX 12 10 0 -1
BITMAP
1100
1fe0
2280
6440
aca0
2280
2100
2280
2c60
0000
ENDCHAR
STARTCHAR 3874
ENCODING 14452
SWIDTH 960 0
DWIDTH 12 0
BBX 12 10 0 -1
BITMAP
17c0
1040
2fe0
6400
a7c0
2900
27e0
2280
2c60
0000
ENDCHAR
STARTCHAR 3875
ENCODING 14453
SWIDTH 960 0
DWIDTH 12 0
BBX 12 10 0 -1
BITMAP
27c0
2040
4fe0
d200
d7e0
5900
57e0
5280
4460
0000
ENDCHAR
STARTCHAR 3876
ENCODING 14454
SWIDTH 960 0
DWIDTH 12 0
BBX 12 10 0 -1
BITMAP
1100
17c0
2100
6fe0
a440
2fe0
2100
2fe0
2100
0000
ENDCHAR
STARTCHAR 3877
ENCODING 14455
SWIDTH 960 0
DWIDTH 12 0
BBX 12 10 0 -1
BITMAP
4440
2440
1480
ffe0
1200
1200
1220
2220
c1e0
0000
ENDCHAR
STARTCHAR 3878
ENCODING 14456
SWIDTH 960 0
DWIDTH 12 0
BBX 12 10 0 -1
BITMAP
1000
1100
2080
4440
8420
0800
0880
1180
7e40
0000
ENDCHAR
STARTCHAR 3879
ENCODING 14457
SWIDTH 960 0
DWIDTH 12 0
BBX 12 10 0 -1
BITMAP
0100
f100
2fe0
2120
2120
2220
3220
c420
08c0
0000
ENDCHAR
STARTCHAR 387a
ENCODING 14458
SWIDTH 960 0
DWIDTH 12 0
BBX 12 10 0 -1
BITMAP
2100
f900
53e0
4920
9120
5120
2220
5220
84c0
0000
ENDCHAR
STARTCHAR 387b
ENCODING 14459
SWIDTH 960 0
DWIDTH 12 0
BBX 12 10 0 -1
BITMAP
2000
3fe0
4020
9020
1220
2220
2d20
7120
00c0
0000
ENDCHAR
STARTCHAR 387c
ENCODING 14460
SWIDTH 960 0
DWIDTH 12 0
BBX 12 10 0 -1
BITMAP
7fe0
5080
5f80
5080
5f80
4300
7fe0
8200
8e00
0000
ENDCHAR
STARTCHAR 387d
ENCODING 14461
SWIDTH 960 0
DWIDTH 12 0
BBX 12 10 0 -1
BITMAP
0000
7fc0
4040
4040
4040
4040
4040
7fc0
0000
0000
ENDCHAR
STARTCHAR 387e
ENCODING 14462
SWIDTH 960 0
DWIDTH 12 0
BBX 12 10 0 -1
BITMAP
0400
0800
ffe0
8020
9f20
9120
9120
9f20
8060
0000
ENDCHAR
STARTCHAR 3921
ENCODING 14625
SWIDTH 960 0
DWIDTH 12 0
BBX 12 10 0 -1
BITMAP
01c0
7e00
4000
7fe0
4000
5fc0
5040
9040
9fc0
0000
ENDCHAR
STARTCHAR 3922
ENCODING 14626
SWIDTH 960 0
DWIDTH 12 0
BBX 12 10 0 -1
BITMAP
05c0
e440
abe0
ba00
abe0
ac80
ebe0
0940
0a20
0000
ENDCHAR
STARTCHAR 3923
ENCODING 14627
SWIDTH 960 0
DWIDTH 12 0
BBX 12 10 0 -1
BITMAP
2100
2fc0
f000
2780
2480
3480
c480
04a0
08e0
0000
ENDCHAR
STARTCHAR 3924
ENCODING 14628
SWIDTH 960 0
DWIDTH 12 0
BBX 12 10 0 -1
BITMAP
20c0
2700
f400
27e0
2400
3be0
ca20
0a20
13e0
0000
ENDCHAR
STARTCHAR 3925
ENCODING 14629
SWIDTH 960 0
DWIDTH 12 0
BBX 12 10 0 -1
BITMAP
4780
4080
f100
5100
9fe0
a100
e100
5100
8300
0000
ENDCHAR
STARTCHAR 3926
ENCODING 14630
SWIDTH 960 0
DWIDTH 12 0
BBX 12 10 0 -1
BITMAP
fa00
1200
2200
2200
3a00
e200
2220
2220
61e0
0000
ENDCHAR
STARTCHAR 3927
ENCODING 14631
SWIDTH 960 0
DWIDTH 12 0
BBX 12 10 0 -1
BITMAP
0440
7f80
0500
ffe0
1f00
6200
bfe0
0200
0600
0000
ENDCHAR
STARTCHAR 3928
ENCODING 14632
SWIDTH 960 0
DWIDTH 12 0
BBX 12 10 0 -1
BITMAP
0400
ffe0
8820
7fc0
1000
1400
2480
4980
9e40
0000
ENDCHAR
STARTCHAR 3929
ENCODING 14633
SWIDTH 960 0
DWIDTH 12 0
BBX 12 10 0 -1
BITMAP
0000
7fc0
0400
0400
0400
0400
0400
ffe0
0000
0000
ENDCHAR
STARTCHAR 392a
ENCODING 14634
SWIDTH 960 0
DWIDTH 12 0
BBX 12 10 0 -1
BITMAP
07e0
f100
2200
2200
27e0
3020
c020
0020
01c0
0000
ENDCHAR
STARTCHAR 392b
ENCODING 14635
SWIDTH 960 0
DWIDTH 12 0
BBX 12 10 0 -1
BITMAP
1100
7fc0
1100
ffe0
2f80
c160
1f00
1040
0fc0
0000
ENDCHAR
STARTCHAR 392c
ENCODING 14636
SWIDTH 960 0
DWIDTH 12 0
BBX 12 10 0 -1
BITMAP
0400
3f80
0400
ffe0
1100
7fc0
0400
3f80
0400
0000
ENDCHAR
STARTCHAR 392d
ENCODING 14637
SWIDTH 960 0
DWIDTH 12 0
BBX 12 10 0 -1
BITMAP
0400
7fc0
4000
4400
4400
4880
4880
9340
bc40
0000
ENDCHAR
STARTCHAR 392e
ENCODING 14638
SWIDTH 960 0
DWIDTH 12 0
BBX 12 10 0 -1
BITMAP
0400
7fe0
4240
7fe0
4240
5fc0
4200
8500
b8e0
0000
ENDCHAR
STARTCHAR 392f
ENCODING 14639
SWIDTH 960 0
DWIDTH 12 0
BBX 12 10 0 -1
BITMAP
0400
7fe0
4240
5fe0
4240
4fc0
5280
8f00
b6e0
0000
ENDCHAR
STARTCHAR 3930
ENCODING 14640
SWIDTH 960 0
DWIDTH 12 0
BBX 12 10 0 -1
BITMAP
f100
1100
f100
8200
f200
1200
1440
24c0
cf20
0000
ENDCHAR
STARTCHAR 3931
ENCODING 14641
SWIDTH 960 0
DWIDTH 12 0
BBX 12 10 0 -1
BITMAP
2fe0
2000
b7c0
b440
a7c0
2440
27c0
2000
2fe0
0000
ENDCHAR
STARTCHAR 3932
ENCODING 14642
SWIDTH 960 0
DWIDTH 12 0
BBX 12 10 0 -1
BITMAP
2440
2fe0
b100
bfe0
b400
23e0
2540
2540
2960
0000
ENDCHAR
STARTCHAR 3933
ENCODING 14643
SWIDTH 960 0
DWIDTH 12 0
BBX 12 10 0 -1
BITMAP
2100
2fc0
f000
2780
3480
e480
2480
24a0
68e0
0000
ENDCHAR
STARTCHAR 3934
ENCODING 14644
SWIDTH 960 0
DWIDTH 12 0
BBX 12 10 0 -1
BITMAP
2400
27e0
f420
2ba0
32a0
e2a0
23a0
2020
60c0
0000
ENDCHAR
STARTCHAR 3935
ENCODING 14645
SWIDTH 960 0
DWIDTH 12 0
BBX 12 10 0 -1
BITMAP
2100
2fe0
faa0
2280
34e0
e000
27c0
2100
6fe0
0000
ENDCHAR
STARTCHAR 3936
ENCODING 14646
SWIDTH 960 0
DWIDTH 12 0
BBX 12 10 0 -1
BITMAP
0400
f7e0
2480
2480
2a80
3100
c180
0240
0c20
0000
ENDCHAR
STARTCHAR 3937
ENCODING 14647
SWIDTH 960 0
DWIDTH 12 0
BBX 12 10 0 -1
BITMAP
7fc0
4040
7fc0
0800
73e0
4220
5a20
e2c0
0200
0000
ENDCHAR
STARTCHAR 3938
ENCODING 14648
SWIDTH 960 0
DWIDTH 12 0
BBX 12 10 0 -1
BITMAP
7fc0
4040
7fc0
2480
1500
ffe0
0a00
1220
e3e0
0000
ENDCHAR
STARTCHAR 3939
ENCODING 14649
SWIDTH 960 0
DWIDTH 12 0
BBX 12 10 0 -1
BITMAP
ffe0
2480
3f80
2480
3f80
2800
1800
2600
c1e0
0000
ENDCHAR
STARTCHAR 393a
ENCODING 14650
SWIDTH 960 0
DWIDTH 12 0
BBX 12 10 0 -1
BITMAP
2100
2fc0
f000
2780
6480
b480
a480
24a0
28e0
0000
ENDCHAR
STARTCHAR 393b
ENCODING 14651
SWIDTH 960 0
DWIDTH 12 0
BBX 12 10 0 -1
BITMAP
2100
2fe0
f280
2440
6ca0
b280
a100
2280
2c60
0000
ENDCHAR
ENDFONT
